<svg width="409" height="306" viewBox="0 0 409 306" fill="none" xmlns="http://www.w3.org/2000/svg">
<path d="M319.022 301.321C305.784 301.211 276.877 301.321 275.601 301.321C275.268 301.321 274.924 301.288 274.603 301.321C273.526 301.432 273.282 300.8 273.393 299.934C273.959 295.696 273.637 291.412 273.915 287.162C274.292 281.581 274.558 275.988 274.88 270.396C275.324 262.639 275.779 254.883 276.201 247.126C276.323 244.951 276.334 242.777 276.4 240.602C276.445 239.015 276.312 237.395 277.81 236.263C278.131 236.019 278.32 235.586 278.032 235.142C277.676 234.598 277.199 234.665 276.711 234.909C276.123 235.209 275.501 235.486 274.958 235.875C265.437 242.532 255.916 249.179 246.418 255.881C240.059 260.364 233.757 264.903 227.432 269.43C226 270.451 224.58 271.472 223.182 272.526C221.229 273.969 219.209 274.046 217.045 273.014C213.217 271.195 209.966 268.576 206.859 265.768C196.484 256.392 186.652 246.472 176.876 236.485C175.966 235.553 176.022 234.965 176.92 234.088C180.749 230.348 184.522 226.542 188.339 222.781C189.892 221.249 189.926 221.272 191.612 222.492C199.413 228.118 207.236 233.722 215.225 239.059C217.345 240.48 219.675 240.613 221.739 239.081C227.043 235.142 232.236 231.059 237.307 226.831C245.153 220.306 253.242 214.092 261.309 207.845C264.949 205.026 268.666 202.319 272.339 199.567C275.113 197.492 278.253 196.504 281.56 195.872C286.653 194.906 291.736 193.897 296.829 192.987C298.882 192.62 300.979 192.498 303.043 192.188C303.953 192.055 304.652 192.498 305.429 192.765C315.305 196.127 325.336 197.159 335.5 194.318C337.886 193.652 340.138 193.32 342.591 193.786C347.762 194.751 352.999 195.317 358.07 196.815C360.9 197.658 363.119 199.212 364.928 201.575C371.464 210.153 378.61 218.264 384.735 227.164C387.476 231.147 390.361 235.064 392.525 239.425C393.524 241.434 393.346 243.076 392.292 245.051C384.979 258.878 376.812 272.227 369.023 285.775C368.49 286.696 368.046 287.706 367.203 288.438C366.326 287.462 366.992 286.264 366.748 285.176C366.315 283.256 367.025 281.714 368.146 280.116C372.418 274.013 376.524 267.81 380.685 261.641C381.894 259.843 381.917 259.81 380.563 258.167C375.736 252.386 370.909 246.616 366.026 240.89C365.25 239.969 364.451 239.181 364.617 237.85C364.651 237.539 364.54 237.184 364.395 236.895C364.173 236.44 363.84 236.008 363.252 236.074C362.72 236.141 362.309 236.463 362.22 237.017C362.143 237.506 362.109 238.016 362.132 238.515C362.342 244.785 362.542 251.054 362.808 257.313C363.086 263.915 363.452 270.507 363.763 277.109C364.085 283.956 364.384 290.802 364.684 297.66C364.695 297.915 364.728 298.159 364.739 298.414C364.784 299.491 364.817 300.301 364.473 300.778C363.985 301.477 362.786 301.41 362.387 301.399C358.292 301.222 354.12 302.387 350.092 301.621C349.992 301.577 339.672 301.488 319.022 301.321Z" fill="#009245"/>
<path d="M404.786 300.9C400.359 300.878 395.92 300.933 391.493 300.9C385.234 300.844 378.965 301.089 372.706 300.778C371.386 300.811 370.032 300.833 368.712 300.922C367.591 300.989 367.302 300.467 367.314 299.435C367.336 297.848 367.258 296.239 367.158 294.653C367.058 293.343 367.458 292.245 368.201 291.179C369.644 289.115 371.031 287.029 372.318 284.877C379.919 272.093 387.409 259.244 394.489 246.161C395.954 243.442 396.02 241.034 394.555 238.382C391.97 233.689 389.307 229.05 386.289 224.634C380.463 216.134 373.661 208.422 367.413 200.244C364.972 197.07 361.887 195.062 357.926 194.174C352.045 192.854 346.13 191.866 340.172 191.089C337.975 190.79 337.952 190.867 337.52 188.648C337.42 188.16 337.364 187.671 337.309 187.183C336.665 182.512 337.242 177.829 337.164 173.157C337.142 172.181 337.897 171.937 338.507 171.571C340.849 170.161 342.724 168.308 344.2 166C345.176 164.447 346.219 162.926 347.129 161.34C350.214 155.98 353.143 150.543 354.963 144.573C356.184 140.511 356.705 136.406 355.762 132.222C355.008 128.838 353.754 125.786 350.158 124.499C349.304 124.2 349.249 123.789 349.393 123.001C349.937 119.828 348.716 117.298 346.286 115.311C343.978 113.425 341.348 112.193 338.485 111.417C332.604 109.808 326.601 109.597 320.564 110.163C313.529 110.806 306.66 112.049 300.28 115.278C297.417 116.743 294.676 118.396 292.712 120.971C289.228 125.487 289.183 129.937 295.209 132C296.063 132.278 296.396 132.511 296.063 133.576C293.866 140.589 292.435 147.791 291.48 155.092C290.937 159.265 290.57 163.415 291.813 167.531C293.123 171.826 295.786 174.544 300.346 175.343C302.455 175.709 304.519 175.521 306.594 175.343C308.114 175.199 308.269 175.321 307.836 176.753C306.827 180.104 305.484 183.333 304.263 186.606C303.287 189.192 302 190.79 299.015 190.379C298.704 190.324 298.371 190.479 298.038 190.534C293.012 191.322 287.974 192.088 282.947 192.909C279.052 193.541 275.257 194.396 271.995 196.87C265.293 201.997 258.435 206.935 251.777 212.117C244.664 217.665 237.696 223.424 230.672 229.095C230.095 229.561 229.418 230.382 228.852 230.171C228.119 229.905 228.519 228.884 228.519 228.196C228.552 212.283 228.586 196.371 228.663 180.481C228.763 151.874 228.508 123.256 228.996 94.6609C229.096 87.8033 228.93 80.9456 228.719 74.1102C228.697 73.5665 228.441 72.8674 229.107 72.5789C229.629 72.357 230.028 72.8452 230.428 73.1226C234.089 75.6304 237.751 78.116 241.369 80.6793C243.111 81.8999 243.41 81.9998 245.119 80.7792C254.807 73.8883 264.727 67.3969 274.669 60.9054C276.311 59.8291 277.022 58.675 276.977 56.6333C276.855 51.2737 276.589 45.9252 276.877 40.5656C276.844 39.811 276.789 39.0676 276.777 38.313C276.633 30.8784 276.467 23.4437 276.434 15.998C276.434 14.2004 275.757 13.3127 274.114 12.7024C271.374 11.6926 268.721 10.472 266.036 9.31794C259.123 6.36628 252.221 3.42571 245.33 0.451861C244.132 -0.0696733 243.022 -0.191736 241.735 0.363087C231.892 4.69071 222.016 8.98503 212.107 13.1684C210.831 13.7121 210.52 14.4445 210.498 15.6096C210.498 18.295 210.443 20.9692 210.432 23.6546C210.41 25.9737 210.41 25.9959 207.991 25.9737C186.008 25.885 164.026 25.7962 142.044 25.6963C126.653 25.6297 111.285 25.541 95.9162 25.4744C92.6538 25.4744 89.3914 25.4411 86.1291 25.4966C82.9 25.5299 81.4242 26.8615 80.947 30.0683C80.8583 30.6454 80.825 31.2224 80.8028 31.8105C80.714 34.3072 80.6252 36.815 80.6141 39.3117C80.5587 45.0042 80.5808 50.6634 80.5587 56.3337C80.5365 58.1535 80.5254 58.1979 78.872 58.1091C72.78 57.7984 66.677 57.9538 60.5739 57.9316C57.9774 57.9094 55.3697 57.987 52.7953 58.1535C50.3208 58.3421 49.0447 59.6182 48.6563 62.0816C48.4344 63.5686 48.3123 65.0666 48.3123 66.5868C48.3345 75.6082 48.3345 84.6408 48.3123 93.6844C48.279 109.819 48.2125 125.964 48.157 142.098C48.2569 142.254 48.2458 142.376 48.1237 142.498V145.094C48.2679 145.239 48.2679 145.372 48.1237 145.527C48.157 145.86 48.2125 146.193 48.2125 146.526C48.1903 157.012 48.1792 167.498 48.1459 177.995C48.1459 179.737 48.0793 181.48 48.046 183.233C48.3123 187.738 48.1126 192.254 48.1126 196.771C48.1126 203.784 48.0793 210.796 48.046 217.809C47.9794 228.395 47.8685 238.97 47.8352 249.556C47.8019 258.922 47.8352 268.31 47.8685 277.675C47.8685 278.685 47.9905 279.683 48.0904 280.671C48.5121 284.322 50.5871 286.341 54.2489 286.774C58.5766 287.284 62.9375 287.118 67.2762 287.107C93.131 287.007 119.008 287.051 144.863 287.262C156.836 287.362 168.798 287.484 180.771 287.54C183.767 287.562 186.785 287.418 189.792 287.229C193.598 287.007 196.051 284.355 196.051 280.493C196.029 274.057 195.951 267.599 195.895 261.163C195.873 260.575 195.873 259.998 195.895 259.399C195.918 258.6 196.239 258.6 196.772 259.066C198.758 260.842 200.767 262.606 202.753 264.426C206.259 267.633 209.71 270.928 213.761 273.503C214.06 273.68 214.349 273.836 214.615 274.024C218.665 276.854 222.46 276.399 226.388 273.569C241.69 262.495 257.07 251.532 272.428 240.524C272.761 240.28 273.105 240.036 273.437 239.792C274.314 239.181 274.447 239.703 274.392 240.424C274.214 244.019 274.003 247.592 273.837 251.188C273.471 258.711 273.171 266.223 272.716 273.725C272.261 281.07 271.862 288.416 271.718 295.762C271.684 297.083 271.229 298.414 271.407 299.757C271.595 301.188 270.863 301.344 269.676 301.344C261.298 301.344 252.942 301.41 244.587 301.444C228.119 301.51 211.652 301.599 195.185 301.654C173.758 301.721 152.342 301.754 130.914 301.843C118.287 301.876 105.67 302.032 93.0533 302.065C70.0392 302.12 47.0473 302.098 24.0555 302.12C21.47 302.12 18.8734 302.054 16.2879 302.021C16.1326 302.021 15.955 302.021 15.7997 301.998C15.1561 302.331 14.5236 302.298 13.9022 301.998H13.7468C11.8937 302.464 10.0295 302.176 8.17641 302.154C7.75474 302.187 7.34418 302.254 6.93361 302.254C5.0805 302.32 3.24958 302.32 1.40757 302.442C0.619717 302.498 -0.0904546 302.93 0.00941356 303.874C0.0981853 304.706 0.830551 304.817 1.52963 304.85C3.44932 304.939 5.36901 305.116 7.2887 305.094C27.9281 305.028 48.5786 304.917 69.2181 304.85C96.2269 304.761 123.247 304.706 150.267 304.662C164.148 304.628 178.041 304.639 191.945 304.606C207.491 304.573 223.015 304.462 238.561 304.428C247.827 304.406 257.092 304.517 266.358 304.495C273.959 304.495 281.571 304.373 289.172 304.351C310.511 304.318 331.86 304.351 353.199 304.318C370.432 304.284 387.653 304.195 404.886 304.129C407.105 304.129 408.049 303.641 408.126 302.553C408.215 301.41 407.228 300.9 404.786 300.9ZM307.792 183.788C308.746 181.113 309.612 178.395 310.011 175.587C310.156 174.522 310.833 174.267 311.509 173.845C311.931 173.568 312.43 173.257 312.297 172.68C312.12 171.948 311.41 171.97 310.866 172.003C310.2 172.037 309.545 172.192 308.913 172.403C306.727 173.113 304.496 173.324 302.233 173.224C298.238 173.035 295.431 170.838 294.487 166.943C293.7 163.703 293.422 160.419 293.788 157.056C294.543 149.899 295.919 142.875 297.938 135.984C298.859 132.844 298.882 132.877 302.177 133.188C304.252 133.376 306.35 133.465 308.425 133.643C309.59 133.743 310.766 133.865 311.898 134.109C314.15 134.619 314.461 135.141 314.206 137.404C314.139 137.981 314.028 138.57 314.062 139.147C314.161 140.578 313.795 141.555 312.286 142.165C311.043 142.675 310.244 143.852 309.934 145.25C309.834 145.671 309.878 146.126 310.233 146.404C310.6 146.681 311.054 146.592 311.398 146.337C312.153 145.816 312.841 145.205 313.629 144.717C315.027 143.84 316.015 144.251 316.37 145.871C316.592 146.936 316.558 148.002 316.148 149.067C315.56 150.631 314.705 152.063 313.707 153.428C313.307 153.949 312.83 154.438 312.464 154.992C312.098 155.58 311.243 156.157 311.798 156.945C312.386 157.778 313.085 157.189 313.74 156.768C314.439 156.313 314.561 156.823 314.65 157.378C315.038 159.93 315.171 162.494 315.804 165.035C317.379 171.437 322.75 175.399 329.319 174.733C330.229 174.644 331.139 174.522 332.06 174.433C333.003 174.345 334.157 173.424 334.801 174.067C335.411 174.678 334.823 175.954 334.768 176.941C334.646 179.538 334.823 182.123 334.956 184.709C335.078 186.784 335.045 186.85 333.059 187.549C332.271 187.827 331.45 188.126 330.651 188.215C328.143 188.426 325.646 188.681 323.571 188.548C318.3 188.271 313.451 188.249 308.88 186.24C307.215 185.519 307.16 185.563 307.792 183.788ZM305.928 188.415C306.35 187.738 306.694 187.782 307.337 188.049C309.801 189.092 312.308 190.09 314.983 190.39C321.407 191.089 327.821 191.611 334.124 189.602C335.034 189.303 335.4 189.303 335.711 190.335C336.044 191.344 335.833 191.589 334.879 191.866C331.794 192.754 328.653 193.12 325.48 193.264C323.904 193.353 322.317 193.775 320.819 193.331C315.937 193.242 311.276 192.41 306.76 190.767C305.04 190.157 304.985 189.88 305.928 188.415ZM212.085 53.4708C212.351 50.1751 212.185 46.8795 212.351 43.5616C212.407 42.3077 212.54 39.467 212.529 36.4821C212.496 29.9574 212.596 23.4326 212.473 16.9079C212.44 15.4432 212.995 14.8995 214.149 14.3224C218.199 12.314 222.36 10.6384 226.533 8.92956C231.77 6.76575 237.03 4.65742 242.256 2.46032C243.355 2.00536 244.276 1.99426 245.33 2.43812C254.241 6.25531 263.14 10.0836 272.073 13.7787C273.781 14.4889 274.358 15.421 274.425 17.2852C274.891 29.913 274.636 42.5519 274.913 55.1575C274.947 57.3213 274.325 58.5974 272.439 59.7847C263.073 65.6103 253.863 71.669 244.809 77.9829C243.743 78.7152 242.989 78.8151 241.946 78.0827C237.551 75.0312 233.113 72.0241 228.685 69.0502C224.469 66.2206 220.219 63.4021 215.936 60.6391C213.994 59.3852 213.017 58.7527 212.551 57.8872C211.785 56.489 211.941 55.1907 212.085 53.4708ZM122.27 32.5872C123.313 32.443 124.379 33.3529 124.49 34.4514C124.578 35.55 123.535 36.7706 122.426 36.8372C121.449 36.9038 120.295 35.9273 120.162 34.9397C120.018 33.9521 121.127 32.7204 122.27 32.5872ZM105.925 32.9534C106.957 32.9534 107.9 33.8078 107.934 34.7732C107.956 35.783 106.891 36.8483 105.836 36.8705C104.771 36.8927 103.895 36.0493 103.895 35.0063C103.883 33.8411 104.771 32.9534 105.925 32.9534ZM89.9685 32.4985C91.1225 32.4652 91.9547 33.3307 91.9436 34.5624C91.9436 35.661 91.1558 36.5154 90.146 36.5376C89.103 36.5598 88.0377 35.5833 87.9489 34.5513C87.8712 33.4971 88.8255 32.5318 89.9685 32.4985ZM83.0887 167.864C83.2995 149.544 83.3106 131.246 83.3994 112.926C83.4992 91.1544 83.4548 69.3942 83.4548 47.6229V46.3691C83.477 43.9833 83.477 43.9389 85.7407 43.9056C89.5801 43.8391 93.4306 43.6837 97.2699 43.7836C108.222 44.061 119.197 43.8169 130.16 43.9389C135.852 43.9944 141.534 43.9389 147.226 43.9389C166.823 43.9056 186.397 44.3273 205.982 44.3717C206.981 44.3717 207.99 44.3939 208.978 44.3162C210.099 44.2496 210.41 44.749 210.387 45.8031C210.354 49.3984 210.509 53.0047 210.332 56.6C210.243 58.6195 211.009 59.8402 212.618 60.9054C216.735 63.6462 220.751 66.5091 224.835 69.2611C225.811 69.9268 226.244 70.6037 226.244 71.8798C226.155 92.4527 226.144 113.014 226.067 133.598C226.033 147.902 226.044 162.194 225.8 176.497C225.49 194.418 225.712 212.317 225.645 230.226C225.623 232.29 225.157 233.755 223.381 234.776C222.738 235.164 222.183 235.664 221.584 236.141C219.231 238.027 217.001 238.094 214.537 236.207C206.515 230.027 198.192 224.29 190.003 218.342C188.66 217.343 187.262 216.4 185.864 215.501C184.921 214.891 183.922 214.37 182.968 215.501C182.48 216.078 182.136 215.768 181.725 215.413C179.018 213.071 178.241 209.798 177.342 206.569C177.131 205.814 177.797 205.87 178.285 205.859C179.939 205.836 181.614 205.803 183.29 205.803C186.13 205.825 188.982 205.892 191.823 205.859C193.842 205.836 194.93 204.949 195.396 203.029C195.618 202.141 195.818 201.254 195.818 200.31C195.795 192.621 195.818 184.908 195.818 177.208C195.818 176.697 195.818 176.198 195.718 175.709C195.263 173.512 193.776 172.292 191.479 172.258C181.359 172.136 171.239 172.07 161.108 171.914C147.137 171.693 133.178 171.46 119.208 171.493C118.287 171.493 117.355 171.526 116.456 171.704C114.325 172.125 113.315 173.346 113.282 175.543C113.216 183.81 113.16 192.066 113.094 200.333C113.094 200.577 113.094 200.843 113.116 201.087C113.338 204.627 114.37 205.626 117.954 205.67C128.839 205.847 139.714 206.003 150.6 206.158C151.177 206.158 151.765 206.18 152.364 206.18C153.218 206.18 153.241 206.402 152.83 207.19C151.942 208.966 152.308 210.752 153.229 212.461C154.517 214.869 156.37 216.755 158.678 218.22C159.466 218.708 160.253 219.174 161.019 219.663C161.163 219.751 161.319 219.907 161.319 220.029C161.352 220.362 161.041 220.373 160.808 220.373C158.8 220.395 156.791 220.406 154.794 220.406C142.144 220.406 129.516 220.406 116.866 220.462C115.945 220.462 114.248 219.751 114.236 221.338C114.236 222.47 115.89 222.037 116.789 222.093C119.463 222.248 122.148 222.237 124.811 222.237C137.284 222.259 149.756 222.326 162.229 222.204C164.448 222.182 166.079 222.758 167.499 224.401C168.287 225.277 168.986 226.198 169.663 227.153C170.152 227.885 170.54 228.551 169.73 229.35C168.687 230.393 169.33 231.369 170.063 232.224C170.984 233.289 172.038 234.266 172.992 235.309C173.259 235.586 173.725 235.897 173.414 236.341C173.27 236.518 172.781 236.485 172.471 236.463C168.132 236.407 163.76 236.341 159.421 236.307C145.362 236.185 131.314 235.875 117.255 236.008C116.422 236.008 115.568 235.852 114.758 236.185C114.481 236.285 114.17 236.496 114.181 236.895C114.181 237.284 114.447 237.594 114.725 237.661C115.457 237.805 116.212 237.872 116.955 237.883C123.569 237.983 130.182 238.072 136.773 238.16C149.068 238.305 161.374 238.46 173.669 238.527C175.278 238.549 176.421 238.893 177.575 240.113C181.181 243.953 184.976 247.648 188.672 251.399C188.938 251.665 189.471 251.865 189.249 252.375C189.093 252.686 188.672 252.53 188.361 252.519C170.041 251.809 151.709 252.175 133.389 252.086C118.509 252.02 103.606 252.053 88.7257 251.998C84.6089 251.998 82.9888 250.322 82.9888 246.205C82.9888 220.106 82.7891 193.974 83.0887 167.864ZM154.883 186.706C156.259 188.382 157.679 190.024 159.099 191.666C159.743 192.421 159.854 192.953 158.711 193.231C157.912 193.442 157.424 193.996 157.18 194.751C156.88 195.694 156.692 196.671 155.604 197.103C155.216 197.281 154.96 197.858 155.094 198.18C156.103 200.566 153.562 201.564 153.118 203.384C152.93 204.15 152.264 204.05 151.687 204.061C149.856 204.061 148.003 204.15 146.172 204.028C140.402 203.684 134.621 203.817 128.85 203.872C125.011 203.906 121.194 203.351 117.321 203.695C115.579 203.85 115.102 203.273 115.102 201.498C115.08 193.12 115.069 184.764 115.124 176.397C115.124 173.834 115.612 173.479 118.331 173.535C130.371 173.801 142.421 174.045 154.461 174.289C166.59 174.511 178.707 174.722 190.835 174.744C193.21 174.744 193.732 175.299 193.787 177.707C193.998 185.73 193.243 193.752 193.443 201.786C193.476 203.395 192.933 203.85 191.379 204.039C191.046 204.094 190.702 204.072 190.369 204.061C186.275 204.005 182.169 203.939 178.074 203.872C177.275 203.85 176.454 204.028 176.121 202.863C174.745 197.958 171.605 194.152 168.165 190.579C165.214 187.505 162.351 184.331 158.989 181.679C158.045 180.947 157.069 180.337 155.848 180.237C153.962 180.115 153.008 181.036 153.107 182.911C153.207 184.387 153.951 185.585 154.883 186.706ZM155.293 208.033C156.725 208.244 157.113 207.567 156.414 206.336C156.137 205.825 155.737 205.393 155.493 204.871C154.972 203.706 155.526 202.863 156.802 202.929C157.291 202.962 157.757 203.173 158.245 203.273C158.667 203.373 159.099 203.451 159.31 202.962C159.488 202.507 159.288 202.141 158.966 201.842C158.334 201.298 157.646 200.81 157.047 200.233C156.614 199.8 156.459 199.112 156.769 198.613C157.202 197.947 157.801 198.424 158.289 198.701C158.656 198.912 158.989 199.156 159.321 199.4C159.754 199.7 160.198 199.989 160.609 199.434C161.008 198.923 160.642 198.546 160.309 198.124C159.732 197.392 158.567 196.682 159.277 195.65C159.91 194.729 160.953 195.472 161.807 195.705C162.206 195.827 162.684 195.949 163.005 195.639C163.46 195.206 163.094 194.684 162.861 194.296C161.363 191.788 159.51 189.513 157.535 187.35C156.625 186.373 155.704 185.397 155.038 184.232C154.672 183.555 154.306 182.734 154.85 182.123C155.56 181.335 156.503 181.912 157.102 182.367C158.378 183.311 159.577 184.376 160.664 185.53C163.139 188.126 165.447 190.901 167.954 193.464C171.428 197.026 173.647 201.265 175.212 205.903C175.722 207.401 176.288 208.888 176.743 210.408C177.442 212.761 178.54 214.891 180.249 216.667C180.738 217.177 180.982 217.488 180.394 218.076C177.764 220.75 175.112 223.435 172.526 226.154C171.772 226.953 171.405 226.742 170.884 225.943C168.321 222.137 165.147 219.052 160.941 217.011C158.467 215.812 156.248 214.137 154.85 211.607C154.395 210.774 154.051 209.953 154.095 209.077C154.117 208.2 154.306 207.878 155.293 208.033ZM173.725 227.841C176.721 224.601 179.728 221.338 182.968 218.32C183.789 217.554 184.311 217.199 185.431 218.043C188.083 220.018 188.15 219.94 185.742 222.337C182.258 225.81 178.785 229.294 175.533 233.012C175.267 233.311 174.923 233.566 174.579 233.888C174.279 233.578 174.002 233.256 173.725 232.967C171.261 230.437 171.283 230.459 173.725 227.841ZM73.3016 65.5437C74.611 65.5105 75.4654 66.4315 75.3655 67.763C75.2767 69.0391 74.3557 69.8048 72.9909 69.7715C71.737 69.7382 70.8936 68.8616 71.0046 67.7519C71.1045 66.5868 72.1697 65.5548 73.3016 65.5437ZM58.4212 64.9001C59.4865 64.8447 60.7071 65.9654 60.7959 67.0307C60.8846 68.3068 59.6751 69.6605 58.4101 69.7382C57.2561 69.7937 56.3018 68.8172 56.2685 67.5078C56.2241 66.1873 57.2339 64.9445 58.4212 64.9001ZM193.953 280.05C193.743 283.534 192.211 285.021 188.683 285.043C181.98 285.065 175.289 285.143 168.587 285.01C147.581 284.577 126.576 284.821 105.57 284.71C89.4136 284.621 73.2794 284.588 57.1229 284.533C56.5459 284.533 55.9578 284.555 55.3586 284.533C51.9076 284.466 50.5982 283.101 50.6093 279.539C50.6648 270.34 50.7536 261.13 50.7536 251.92C50.7757 227.563 50.7536 203.207 50.7536 178.861C51.031 142.154 51.0975 124.311 51.1197 114.923C51.1419 91.8646 51.1197 80.3242 51.1197 80.0468C51.1197 79.3699 51.1752 78.682 51.1197 78.0273C51.0199 76.8732 51.3417 76.4183 52.64 76.4516C61.1509 76.7179 69.7063 76.6957 78.2284 76.5514C78.295 76.5514 78.3838 76.5736 78.4725 76.5736C80.5476 76.6069 80.5698 76.6069 80.5476 78.5932C80.5143 83.176 80.4477 87.77 80.4477 92.375C80.4255 114.457 80.4477 136.561 80.4144 158.665C80.3811 185.619 80.2923 212.572 80.2701 239.514C80.2701 242.688 80.2036 245.861 80.7362 249.024C81.402 252.797 82.8112 254.028 86.5951 254.117C102.152 254.417 117.721 254.417 133.278 254.417C150.444 254.395 167.61 254.395 184.777 254.395C186.696 254.395 188.616 254.372 190.536 254.428C192.555 254.494 193.765 255.737 193.776 257.712C193.843 264.825 193.898 271.927 193.953 279.051C193.976 279.395 193.998 279.728 193.953 280.05ZM365.682 258.667C365.716 258.278 365.982 258.112 366.515 258.201C367.247 258.5 367.757 259.144 367.702 260.065C367.646 260.941 367.214 261.652 366.337 262.007C366.16 262.073 365.871 262.062 365.793 261.674C365.627 260.675 365.605 259.676 365.682 258.667ZM366.359 275.733C366.259 274.657 366.271 273.569 366.204 272.471C366.082 270.152 366.381 267.799 365.816 265.491C365.671 264.492 366.037 263.915 366.981 263.549C367.68 263.283 368.235 262.75 368.69 262.118C370.265 259.976 369.522 257.235 366.981 256.481C365.793 256.137 365.327 255.682 365.305 254.472C365.272 250.966 365.327 247.459 364.839 243.975C364.806 243.753 364.839 243.342 364.939 243.298C365.427 243.109 365.671 243.52 365.938 243.842C369.566 248.225 373.173 252.597 376.79 256.991C379.054 259.743 379.009 259.732 376.967 262.761C374.249 266.778 371.597 270.817 368.911 274.868C368.634 275.289 368.39 275.744 368.079 276.11C367.624 276.632 367.491 277.764 366.648 277.542C365.96 277.353 366.415 276.354 366.359 275.733ZM366.781 285.165C366.348 283.245 367.047 281.692 368.179 280.083C372.44 273.991 376.557 267.788 380.718 261.607C381.917 259.81 381.939 259.776 380.574 258.134C375.758 252.364 370.931 246.583 366.038 240.868C365.25 239.947 364.473 239.159 364.639 237.827C364.673 237.517 364.551 237.151 364.417 236.873C364.195 236.418 363.863 235.985 363.286 236.052C362.742 236.119 362.331 236.44 362.242 236.995C362.176 237.484 362.143 237.994 362.154 238.493C362.365 244.752 362.553 251.021 362.831 257.302C363.108 263.893 363.474 270.496 363.774 277.087C364.107 283.944 364.406 290.78 364.695 297.637C364.717 297.882 364.75 298.148 364.75 298.392C364.772 298.98 364.806 299.457 364.772 299.801C364.75 300.234 364.684 300.534 364.495 300.756C364.462 300.811 364.406 300.844 364.373 300.878C364.318 300.911 364.273 300.944 364.218 300.978C363.519 301.399 362.353 301.1 362.198 301.066C358.991 301.155 354.186 301.288 348.361 301.366C337.497 301.521 334.512 301.366 319.033 301.31C313.24 301.288 277.055 301.31 275.612 301.31C275.279 301.31 274.935 301.277 274.603 301.31C273.537 301.41 273.293 300.767 273.404 299.912C273.981 295.673 273.648 291.401 273.926 287.14C274.314 281.559 274.591 275.955 274.902 270.373C275.335 262.606 275.79 254.849 276.212 247.104C276.334 244.918 276.356 242.743 276.422 240.579C276.478 238.993 276.334 237.373 277.821 236.241C278.153 235.997 278.331 235.564 278.043 235.12C277.699 234.576 277.21 234.632 276.733 234.898C276.145 235.198 275.513 235.475 274.969 235.852C265.448 242.499 255.916 249.146 246.429 255.848C240.081 260.331 233.768 264.881 227.443 269.408C226.011 270.418 224.602 271.45 223.182 272.493C221.229 273.935 219.209 274.013 217.045 272.981C213.228 271.161 209.966 268.554 206.859 265.746C196.495 256.381 186.652 246.449 176.887 236.452C175.977 235.531 176.033 234.931 176.943 234.066C180.76 230.315 184.533 226.509 188.35 222.759C189.903 221.227 189.937 221.238 191.634 222.459C199.435 228.074 207.247 233.677 215.259 239.037C217.367 240.446 219.686 240.591 221.761 239.059C227.065 235.131 232.247 231.036 237.318 226.809C245.164 220.284 253.264 214.07 261.32 207.812C264.949 205.004 268.666 202.297 272.35 199.545C275.124 197.47 278.264 196.493 281.582 195.85C286.676 194.895 291.758 193.874 296.851 192.976C298.915 192.609 301.001 192.487 303.076 192.177C303.986 192.032 304.685 192.487 305.451 192.754C315.338 196.116 325.358 197.148 335.522 194.307C337.908 193.641 340.183 193.308 342.624 193.763C347.784 194.74 353.044 195.295 358.104 196.804C360.944 197.636 363.164 199.19 364.961 201.564C371.508 210.153 378.654 218.264 384.779 227.153C387.52 231.125 390.394 235.042 392.558 239.414C393.557 241.423 393.379 243.065 392.336 245.029C385.024 258.866 376.857 272.204 369.067 285.764C368.523 286.685 368.09 287.706 367.247 288.416C366.359 287.44 367.025 286.253 366.781 285.165Z" fill="#080909"/>
<path d="M124.49 34.4515C124.578 35.55 123.535 36.7706 122.426 36.8372C121.449 36.9038 120.295 35.9273 120.162 34.9397C120.018 33.941 121.116 32.7204 122.27 32.5872C123.324 32.443 124.39 33.3529 124.49 34.4515Z" fill="white"/>
<path d="M107.934 34.7622C107.956 35.7719 106.891 36.8372 105.836 36.8594C104.771 36.8816 103.895 36.0383 103.895 34.9952C103.872 33.8412 104.771 32.9534 105.914 32.9534C106.957 32.9534 107.9 33.8079 107.934 34.7622Z" fill="white"/>
<path d="M91.9326 34.5624C91.9326 35.661 91.1447 36.5154 90.135 36.5376C89.0919 36.5598 88.0266 35.5833 87.9379 34.5513C87.8713 33.5082 88.8256 32.5428 89.9574 32.5095C91.1114 32.4652 91.9548 33.3418 91.9326 34.5624Z" fill="white"/>
<path d="M75.3656 67.7519C75.2768 69.028 74.3558 69.7937 72.9909 69.7604C71.737 69.7271 70.8937 68.8505 71.0047 67.7408C71.1045 66.5868 72.1698 65.5548 73.3127 65.5437C74.611 65.5104 75.4654 66.4314 75.3656 67.7519Z" fill="white"/>
<path d="M60.7959 67.0195C60.8846 68.2956 59.6751 69.6494 58.4101 69.7271C57.2561 69.7825 56.3018 68.8061 56.2685 67.4967C56.2352 66.1873 57.245 64.9445 58.4323 64.9001C59.4865 64.8446 60.7071 65.9654 60.7959 67.0195Z" fill="white"/>
<path d="M376.967 262.761C374.249 266.778 371.597 270.817 368.911 274.867C368.634 275.289 368.39 275.744 368.079 276.11C367.624 276.632 367.491 277.764 366.648 277.542C365.971 277.353 366.426 276.354 366.37 275.722C366.27 274.646 366.281 273.558 366.215 272.46C366.093 270.14 366.392 267.788 365.827 265.48C365.682 264.481 366.048 263.904 366.992 263.538C367.691 263.272 368.246 262.739 368.7 262.107C370.276 259.965 369.533 257.224 366.992 256.47C365.804 256.126 365.338 255.671 365.316 254.461C365.283 250.955 365.338 247.448 364.85 243.964C364.817 243.742 364.85 243.331 364.95 243.287C365.438 243.098 365.682 243.509 365.949 243.831C369.577 248.214 373.183 252.586 376.801 256.98C379.053 259.743 379.009 259.732 376.967 262.761Z" fill="white"/>
<path d="M334.867 191.866C331.783 192.754 328.642 193.12 325.469 193.264C323.893 193.353 322.306 193.774 320.808 193.331C315.926 193.242 311.265 192.41 306.749 190.767C305.04 190.157 304.985 189.88 305.928 188.415C306.35 187.738 306.694 187.782 307.337 188.049C309.801 189.092 312.308 190.09 314.983 190.39C321.407 191.089 327.821 191.611 334.124 189.602C335.034 189.303 335.4 189.303 335.711 190.335C336.033 191.344 335.833 191.588 334.867 191.866Z" fill="white"/>
<path d="M185.742 222.326C182.258 225.799 178.785 229.283 175.533 233.001C175.267 233.3 174.923 233.555 174.579 233.877C174.279 233.566 174.002 233.245 173.725 232.956C171.261 230.448 171.283 230.459 173.725 227.841C176.721 224.601 179.728 221.338 182.968 218.32C183.789 217.554 184.311 217.199 185.431 218.043C188.083 220.007 188.15 219.94 185.742 222.326Z" fill="white"/>
<path d="M180.405 218.087C177.775 220.761 175.123 223.446 172.537 226.165C171.783 226.964 171.417 226.753 170.895 225.954C168.332 222.148 165.158 219.063 160.953 217.022C158.478 215.823 156.259 214.148 154.861 211.618C154.406 210.785 154.062 209.964 154.106 209.088C154.106 208.2 154.295 207.889 155.293 208.045C156.725 208.255 157.113 207.578 156.414 206.347C156.137 205.836 155.737 205.404 155.493 204.882C154.972 203.717 155.526 202.874 156.803 202.94C157.291 202.973 157.757 203.184 158.245 203.284C158.667 203.384 159.1 203.462 159.31 202.973C159.488 202.518 159.288 202.152 158.966 201.853C158.334 201.309 157.646 200.821 157.047 200.244C156.614 199.811 156.459 199.123 156.769 198.624C157.202 197.958 157.801 198.435 158.29 198.712C158.656 198.923 158.989 199.167 159.321 199.411C159.754 199.711 160.198 200 160.609 199.445C161.008 198.934 160.642 198.557 160.309 198.135C159.732 197.403 158.567 196.693 159.277 195.661C159.91 194.74 160.953 195.483 161.807 195.716C162.207 195.838 162.684 195.96 163.006 195.65C163.46 195.217 163.094 194.695 162.861 194.307C161.363 191.799 159.51 189.525 157.535 187.361C156.625 186.384 155.704 185.408 155.038 184.243C154.672 183.566 154.306 182.745 154.85 182.134C155.56 181.346 156.503 181.923 157.102 182.378C158.378 183.322 159.577 184.387 160.664 185.541C163.139 188.137 165.447 190.912 167.955 193.475C171.428 197.037 173.647 201.276 175.212 205.914C175.722 207.412 176.288 208.899 176.743 210.419C177.442 212.772 178.541 214.902 180.249 216.678C180.749 217.177 180.993 217.499 180.405 218.087Z" fill="white"/>
<path d="M334.745 176.952C334.801 175.954 335.389 174.689 334.779 174.078C334.135 173.435 332.981 174.356 332.038 174.444C331.117 174.533 330.207 174.655 329.297 174.744C322.717 175.41 317.346 171.448 315.782 165.046C315.149 162.494 315.016 159.93 314.628 157.389C314.539 156.834 314.417 156.324 313.718 156.779C313.074 157.201 312.375 157.789 311.776 156.956C311.221 156.169 312.075 155.592 312.442 155.003C312.808 154.449 313.274 153.96 313.684 153.439C314.683 152.074 315.537 150.643 316.126 149.078C316.547 148.013 316.581 146.947 316.347 145.882C316.003 144.262 315.005 143.863 313.607 144.728C312.819 145.216 312.12 145.827 311.376 146.348C311.032 146.615 310.577 146.692 310.211 146.415C309.867 146.137 309.812 145.682 309.912 145.261C310.222 143.863 311.032 142.675 312.264 142.176C313.784 141.566 314.15 140.589 314.039 139.158C314.006 138.581 314.106 137.993 314.184 137.416C314.45 135.152 314.128 134.619 311.876 134.12C310.744 133.876 309.568 133.754 308.402 133.654C306.327 133.476 304.23 133.388 302.155 133.199C298.859 132.888 298.837 132.855 297.916 135.995C295.897 142.886 294.51 149.921 293.766 157.067C293.4 160.43 293.677 163.714 294.465 166.954C295.408 170.849 298.216 173.046 302.211 173.235C304.474 173.335 306.716 173.135 308.891 172.414C309.523 172.203 310.178 172.048 310.844 172.014C311.387 171.981 312.098 171.959 312.275 172.691C312.419 173.268 311.909 173.579 311.487 173.856C310.81 174.278 310.122 174.533 309.989 175.599C309.59 178.406 308.735 181.125 307.77 183.799C307.137 185.574 307.193 185.53 308.835 186.262C313.407 188.271 318.256 188.282 323.527 188.57C325.602 188.715 328.099 188.448 330.606 188.237C331.405 188.149 332.227 187.849 333.014 187.572C335.001 186.873 335.034 186.806 334.912 184.731C334.801 182.134 334.623 179.549 334.745 176.952ZM301.811 166.499C301.423 166.644 301.012 166.655 300.779 166.688C298.915 166.633 296.807 164.868 296.385 163.204C296.263 162.682 296.23 162.127 296.685 161.806C297.195 161.473 297.694 161.839 297.972 162.261C298.882 163.703 300.224 164.447 301.822 164.824C302.211 164.924 302.732 165.035 302.765 165.501C302.821 166.1 302.277 166.344 301.811 166.499ZM301.023 145.727C300.047 145.749 299.081 144.784 299.081 143.785C299.081 142.842 300.058 141.688 300.879 141.643C301.767 141.588 302.943 142.598 302.976 143.474C303.01 144.462 301.944 145.682 301.023 145.727Z" fill="white"/>
<path d="M274.414 17.2852C274.347 15.421 273.77 14.4888 272.062 13.7787C263.129 10.0835 254.23 6.25526 245.319 2.43808C244.276 1.98312 243.344 2.00532 242.245 2.46028C237.03 4.65738 231.759 6.76571 226.522 8.92952C222.349 10.6384 218.177 12.3139 214.138 14.3224C212.984 14.8994 212.429 15.4431 212.462 16.9079C212.584 23.4326 212.485 29.9573 212.518 36.482C212.54 39.467 212.396 42.3077 212.34 43.5616C212.185 46.8794 212.34 50.1751 212.074 53.4707C211.93 55.2018 211.774 56.489 212.529 57.8871C212.995 58.7637 213.972 59.3852 215.913 60.6391C220.208 63.391 224.447 66.2206 228.663 69.0502C233.091 72.0351 237.529 75.0312 241.924 78.0827C242.967 78.8151 243.721 78.7152 244.786 77.9828C253.841 71.6689 263.051 65.6103 272.417 59.7846C274.303 58.5973 274.924 57.3212 274.891 55.1574C274.625 42.5518 274.891 29.9129 274.414 17.2852ZM260.621 36.2379C260.432 42.5851 260.277 48.9434 260.31 55.3017C260.31 55.5791 260.488 56.4002 260 56.9772C259.534 57.521 258.69 57.532 258.346 57.5542C256.737 57.5542 250.823 57.5542 242.789 57.4655C238.029 57.4655 233.246 57.4988 228.486 57.4655C226.621 57.4433 226.544 57.3212 226.533 55.4459C226.477 49.0987 225.945 42.7405 226.144 36.3822C226.167 35.8052 226.111 35.217 226.167 34.64C226.311 32.5317 226.588 32.2654 228.697 32.0767C230.272 31.9325 231.87 32.2654 233.424 31.8548C233.124 30.3568 233.368 28.8366 233.579 27.3718C234.067 23.9208 235.721 21.069 238.572 18.994C241.369 16.9523 244.831 16.808 247.749 18.6278C251.744 21.0913 253.264 24.9417 253.63 29.3914C253.819 31.7993 253.752 31.8215 256.282 31.8326C260.41 31.8548 260.754 32.0767 260.621 36.2379Z" fill="white"/>
<path d="M224.835 69.2721C220.751 66.5202 216.735 63.6573 212.618 60.9165C211.009 59.8512 210.243 58.6306 210.332 56.6111C210.509 53.0158 210.354 49.4095 210.387 45.8142C210.41 44.7711 210.088 44.2607 208.978 44.3273C207.979 44.3939 206.97 44.3828 205.982 44.3828C186.386 44.3273 166.812 43.9167 147.226 43.95C141.534 43.95 135.852 44.0055 130.16 43.95C119.208 43.8279 108.233 44.0721 97.2699 43.7946C93.4306 43.6948 89.5801 43.8501 85.7407 43.9167C83.477 43.95 83.477 43.9833 83.4548 46.3801V47.634C83.4548 69.4053 83.5103 91.1655 83.3994 112.937C83.3106 131.257 83.2995 149.555 83.0887 167.875C82.7891 193.996 82.9888 220.129 82.9666 246.239C82.9666 250.355 84.5867 252.031 88.7035 252.031C103.584 252.086 118.486 252.053 133.367 252.12C151.687 252.208 170.018 251.842 188.339 252.552C188.649 252.575 189.071 252.73 189.226 252.408C189.448 251.898 188.916 251.698 188.649 251.432C184.954 247.681 181.17 243.986 177.553 240.147C176.399 238.926 175.245 238.582 173.647 238.56C161.352 238.493 149.046 238.338 136.751 238.194C130.16 238.105 123.546 238.016 116.933 237.916C116.178 237.894 115.435 237.827 114.702 237.694C114.425 237.628 114.159 237.306 114.159 236.929C114.137 236.529 114.458 236.318 114.736 236.218C115.535 235.886 116.389 236.041 117.232 236.041C131.292 235.897 145.34 236.218 159.399 236.341C163.738 236.374 168.11 236.44 172.449 236.496C172.759 236.518 173.247 236.551 173.392 236.374C173.702 235.941 173.236 235.619 172.97 235.342C172.016 234.299 170.962 233.322 170.041 232.257C169.308 231.403 168.665 230.426 169.708 229.383C170.507 228.584 170.129 227.918 169.641 227.186C168.964 226.232 168.265 225.3 167.477 224.434C166.068 222.792 164.426 222.215 162.206 222.237C149.734 222.359 137.262 222.292 124.789 222.27C122.115 222.27 119.43 222.292 116.766 222.126C115.879 222.07 114.214 222.514 114.214 221.371C114.236 219.785 115.923 220.495 116.844 220.495C129.494 220.439 142.122 220.439 154.772 220.439C156.78 220.439 158.789 220.417 160.786 220.406C161.008 220.406 161.33 220.384 161.297 220.062C161.297 219.94 161.141 219.785 160.997 219.696C160.231 219.208 159.443 218.742 158.656 218.253C156.348 216.789 154.506 214.902 153.207 212.494C152.286 210.785 151.92 209.01 152.808 207.223C153.207 206.436 153.196 206.214 152.342 206.214C151.754 206.214 151.154 206.191 150.577 206.191C139.692 206.036 128.817 205.881 117.932 205.703C114.358 205.648 113.327 204.66 113.094 201.12C113.071 200.876 113.071 200.61 113.071 200.366C113.138 192.099 113.193 183.843 113.26 175.576C113.293 173.379 114.303 172.159 116.434 171.737C117.343 171.559 118.264 171.526 119.185 171.526C133.156 171.493 147.115 171.715 161.086 171.948C171.217 172.103 181.337 172.17 191.457 172.292C193.765 172.325 195.241 173.546 195.696 175.743C195.795 176.231 195.795 176.741 195.795 177.241C195.795 184.931 195.773 192.643 195.795 200.344C195.795 201.287 195.607 202.175 195.374 203.062C194.908 204.982 193.82 205.87 191.801 205.892C188.96 205.925 186.108 205.859 183.268 205.836C181.592 205.836 179.916 205.87 178.263 205.892C177.775 205.914 177.109 205.859 177.32 206.602C178.208 209.831 178.995 213.105 181.703 215.446C182.102 215.79 182.458 216.112 182.946 215.535C183.9 214.403 184.899 214.924 185.842 215.535C187.24 216.445 188.638 217.388 189.981 218.375C198.159 224.323 206.481 230.06 214.515 236.241C216.979 238.127 219.209 238.061 221.561 236.174C222.15 235.708 222.716 235.198 223.359 234.809C225.135 233.777 225.612 232.313 225.623 230.26C225.689 212.339 225.467 194.44 225.778 176.531C226.022 162.227 226 147.935 226.044 133.632C226.111 113.048 226.133 92.4748 226.222 71.9131C226.255 70.6148 225.811 69.9379 224.835 69.2721ZM97.3476 79.5031C97.3698 75.7747 98.7791 74.2988 102.496 74.2544C108.688 74.1546 114.88 74.0769 121.061 74.0658C121.582 74.0658 132.457 74.1213 154.206 74.0436C173.392 73.977 179.661 73.7329 195.119 74.0214C199.058 74.088 202.309 74.1768 204.44 74.2323C206.126 74.0214 207.436 74.2988 208.19 74.5097C209.189 74.8093 210.509 75.1866 211.308 76.3406C211.774 77.0175 212.007 77.8941 211.985 79.0481C211.797 87.315 212.207 95.6262 211.708 103.893C211.486 107.577 209.644 109.219 205.849 109.219C198.403 109.242 190.946 109.153 183.501 109.164C171.061 109.164 158.622 109.375 146.183 109.186C131.702 108.964 117.221 108.842 102.729 108.887C99.3117 108.909 97.3698 106.878 97.3587 103.372C97.3254 95.4043 97.3254 87.4482 97.3476 79.5031ZM212.418 132.444C212.296 138.791 212.052 145.15 212.141 151.497C212.196 155.47 210.077 157.389 206.537 157.778C203.696 158.088 200.844 158.044 198.026 158.044C187.728 158.044 177.453 157.988 167.167 157.922C146.838 157.8 126.52 157.656 106.214 157.522C104.194 157.5 102.197 157.367 100.277 156.69C98.546 156.08 97.5695 154.959 97.3143 153.039C96.8927 149.966 97.0147 146.881 96.9481 143.774C96.8594 139.346 96.8039 134.908 96.7928 130.48C96.7928 129.16 96.7373 127.795 97.1035 126.486C97.5917 124.71 98.7236 123.612 100.61 123.401C101.276 123.334 101.93 123.301 102.618 123.301C119.84 123.112 137.073 122.957 147.948 122.835C171.184 122.691 188.072 122.591 204.961 122.491C205.716 122.491 206.459 122.469 207.214 122.524C210.021 122.713 211.608 124.233 212.118 126.974C212.418 128.782 212.429 130.613 212.418 132.444Z" fill="white"/>
<path d="M193.976 279.062C193.976 279.395 193.998 279.728 193.954 280.061C193.743 283.545 192.211 285.032 188.683 285.054C181.98 285.076 175.289 285.154 168.587 285.021C147.581 284.588 126.576 284.832 105.57 284.721C89.4137 284.632 73.2794 284.599 57.1229 284.544C56.5459 284.544 55.9578 284.566 55.3586 284.544C51.9076 284.477 50.5982 283.112 50.6093 279.55C50.6648 270.351 50.7536 261.141 50.7536 251.931C50.7758 227.574 50.7536 203.218 50.7536 178.872C51.031 142.165 51.0976 124.322 51.1198 114.934C51.142 91.8757 51.1198 80.3353 51.1198 80.0579C51.1198 79.381 51.1752 78.693 51.1198 78.0384C51.0199 76.8843 51.3417 76.4294 52.64 76.4627C61.151 76.729 69.7063 76.7068 78.2284 76.5625C78.295 76.5625 78.3838 76.5847 78.4726 76.5847C80.5476 76.618 80.5698 76.618 80.5476 78.6043C80.5143 83.1871 80.4477 87.781 80.4477 92.3861C80.4255 114.468 80.4477 136.572 80.4144 158.676C80.3811 185.63 80.2924 212.583 80.2702 239.525C80.2702 242.699 80.2036 245.872 80.7362 249.035C81.402 252.808 82.8113 254.039 86.5952 254.128C102.152 254.428 117.721 254.428 133.278 254.428C150.444 254.406 167.61 254.406 184.777 254.406C186.696 254.406 188.616 254.383 190.536 254.439C192.555 254.505 193.765 255.748 193.776 257.723C193.876 264.847 193.92 271.938 193.976 279.062Z" fill="white"/>
<path d="M13.7136 302.021C11.8716 302.498 9.9963 302.209 8.14319 302.187C9.9852 301.499 11.8494 301.81 13.7136 302.021Z" fill="#CAFEF4"/>
<path d="M15.7553 302.032C15.1228 302.364 14.4903 302.32 13.8578 302.032C14.5014 301.787 15.1228 301.799 15.7553 302.032Z" fill="#CAFEF4"/>
<path d="M48.1125 142.098C48.2124 142.242 48.2013 142.375 48.0793 142.497C48.0349 142.398 47.9795 142.298 47.9462 142.198C47.9351 142.176 48.046 142.131 48.1125 142.098Z" fill="#CAFEF4"/>
<path d="M48.0681 145.094C48.2123 145.238 48.2123 145.383 48.0792 145.527C48.0238 145.427 47.9572 145.316 47.9129 145.216C47.9018 145.194 48.0127 145.139 48.0681 145.094Z" fill="#CAFEF4"/>
<path d="M154.472 174.278C166.601 174.511 178.718 174.711 190.846 174.733C193.221 174.733 193.743 175.288 193.798 177.707C193.998 185.741 193.254 193.752 193.432 201.786C193.465 203.384 192.933 203.839 191.379 204.039C191.046 204.083 190.713 204.061 190.38 204.061C186.286 203.994 182.191 203.928 178.085 203.85C177.286 203.839 176.454 204.017 176.132 202.851C174.745 197.947 171.605 194.152 168.176 190.568C165.225 187.494 162.373 184.309 158.999 181.679C158.056 180.947 157.091 180.326 155.87 180.237C153.984 180.104 153.019 181.036 153.129 182.9C153.218 184.387 153.973 185.596 154.883 186.706C156.259 188.382 157.679 190.035 159.11 191.677C159.765 192.421 159.865 192.953 158.733 193.242C157.934 193.453 157.435 194.019 157.191 194.762C156.88 195.705 156.691 196.671 155.615 197.115C155.227 197.281 154.971 197.869 155.116 198.191C156.126 200.577 153.573 201.575 153.152 203.384C152.963 204.161 152.297 204.061 151.731 204.061C149.889 204.072 148.047 204.15 146.205 204.039C140.435 203.695 134.665 203.817 128.895 203.872C125.044 203.906 121.216 203.34 117.366 203.695C115.612 203.85 115.135 203.273 115.135 201.498C115.124 193.131 115.113 184.764 115.157 176.397C115.168 173.823 115.657 173.479 118.386 173.535C130.393 173.79 142.432 174.034 154.472 174.278Z" fill="#009245"/>
<path d="M367.702 260.065C367.647 260.941 367.214 261.652 366.337 262.007C366.16 262.073 365.871 262.062 365.793 261.674C365.616 260.675 365.605 259.688 365.671 258.678C365.705 258.289 365.971 258.123 366.504 258.212C367.247 258.489 367.758 259.133 367.702 260.065Z" fill="white"/>
<path d="M212.107 126.952C211.597 124.211 210.01 122.691 207.203 122.502C206.448 122.446 205.705 122.469 204.95 122.469C188.061 122.568 171.172 122.679 147.936 122.813C137.073 122.935 119.829 123.09 102.607 123.279C101.93 123.279 101.265 123.312 100.599 123.378C98.7125 123.589 97.5806 124.688 97.0924 126.463C96.7262 127.773 96.7817 129.138 96.7817 130.458C96.8039 134.886 96.8483 139.324 96.937 143.752C97.0036 146.859 96.8816 149.943 97.3032 153.017C97.5695 154.937 98.546 156.058 100.266 156.668C102.186 157.345 104.172 157.489 106.203 157.5C126.509 157.644 146.838 157.778 167.155 157.9C177.453 157.966 187.728 158.022 198.015 158.022C200.844 158.022 203.685 158.077 206.526 157.755C210.066 157.367 212.174 155.447 212.129 151.475C212.041 145.128 212.285 138.769 212.407 132.422C212.429 130.613 212.418 128.782 212.107 126.952ZM209.888 129.67C209.988 137.027 209.855 144.395 209.555 151.741C209.455 154.082 208.634 154.881 206.049 154.915C200.689 154.981 195.34 155.037 189.981 155.037C167.056 155.015 144.13 154.981 121.194 154.97C115.768 154.97 110.33 154.948 104.882 154.937C104.216 154.937 103.539 154.959 102.874 154.904C100.066 154.715 99.5447 154.016 99.345 151.186C98.8234 144.085 99.1341 136.972 99.0343 129.87C99.0343 129.282 98.9788 128.683 99.0565 128.106C99.2784 126.33 99.9997 125.598 101.808 125.52C104.072 125.431 106.325 125.487 108.599 125.487H154.783C190.125 125.587 202.764 125.454 204.184 125.221C205.25 125.043 205.716 125.165 206.692 125.165C208.701 125.187 209.588 125.931 209.855 127.906C209.943 128.505 209.888 129.093 209.888 129.67Z" fill="#080909"/>
<path d="M209.855 127.906C209.588 125.931 208.701 125.187 206.692 125.165C205.716 125.165 205.25 125.043 204.184 125.221C202.753 125.443 190.125 125.587 154.783 125.487H108.599C106.336 125.487 104.083 125.431 101.808 125.52C99.9886 125.587 99.2784 126.319 99.0565 128.106C98.9899 128.683 99.0343 129.271 99.0343 129.87C99.1341 136.972 98.8234 144.085 99.345 151.186C99.5336 154.016 100.055 154.715 102.874 154.904C103.539 154.959 104.216 154.937 104.882 154.937C110.33 154.959 115.768 154.97 121.194 154.97C144.13 154.992 167.056 155.026 189.981 155.037C195.341 155.037 200.689 154.981 206.049 154.915C208.634 154.881 209.455 154.083 209.555 151.741C209.855 144.395 209.988 137.038 209.888 129.67C209.888 129.093 209.943 128.505 209.855 127.906ZM113.815 143.33C112.05 143.363 110.497 141.754 110.519 139.923C110.541 137.826 111.984 136.262 113.87 136.328C115.945 136.384 117.166 137.615 117.133 139.624C117.088 141.688 115.657 143.297 113.815 143.33ZM129.827 142.542C128.052 142.487 126.875 141.288 126.875 139.546C126.897 137.593 128.273 136.228 130.16 136.306C131.957 136.373 133.3 137.837 133.2 139.568C133.067 141.288 131.602 142.598 129.827 142.542ZM145.95 142.076C144.363 142.132 143.32 140.944 143.331 139.147C143.354 137.649 144.552 136.439 146.006 136.461C147.659 136.483 148.758 137.46 148.78 138.958C148.791 140.756 147.626 142.043 145.95 142.076ZM162.872 142.098C161.341 142.076 160.198 140.966 160.154 139.424C160.12 137.982 161.341 136.472 162.595 136.439C164.237 136.384 165.391 137.571 165.391 139.28C165.369 140.955 164.337 142.109 162.872 142.098ZM178.463 142.054C177.176 141.998 175.988 140.922 175.955 139.713C175.899 138.303 177.353 136.839 178.829 136.816C180.205 136.816 181.259 137.815 181.259 139.124C181.27 140.711 179.928 142.109 178.463 142.054ZM194.919 142.342C193.787 142.287 192.788 141.066 192.777 139.713C192.777 138.303 193.687 137.36 195.085 137.338C196.306 137.316 197.46 138.525 197.438 139.746C197.393 141.1 196.139 142.409 194.919 142.342Z" fill="white"/>
<path d="M211.985 79.0481C212.007 77.8941 211.774 77.0285 211.308 76.3406C210.509 75.1865 209.178 74.8093 208.19 74.5097C207.436 74.2988 206.126 74.0214 204.44 74.2322C202.309 74.1768 199.069 74.088 195.119 74.0214C179.661 73.7218 173.403 73.9659 154.206 74.0436C132.446 74.1102 121.582 74.0658 121.061 74.0658C114.88 74.088 108.688 74.1546 102.496 74.2544C98.779 74.3099 97.3698 75.7747 97.3476 79.5031C97.3254 87.4592 97.3254 95.4154 97.3476 103.372C97.3698 106.878 99.3006 108.898 102.718 108.887C117.21 108.831 131.691 108.953 146.172 109.186C158.611 109.375 171.05 109.164 183.489 109.164C190.935 109.142 198.392 109.231 205.838 109.219C209.644 109.219 211.475 107.577 211.697 103.893C212.207 95.6151 211.785 87.315 211.985 79.0481ZM209.533 102.961C209.511 105.702 209.011 106.223 206.304 106.246C197.338 106.312 188.383 106.312 179.439 106.334C171.061 106.357 162.706 106.401 154.905 106.035C137.594 106.368 120.872 106.301 104.139 106.379C103.562 106.379 102.973 106.401 102.374 106.379C99.7777 106.29 99.3227 105.824 99.3227 103.261C99.3449 95.3932 99.3449 87.5258 99.3449 79.6584C99.3449 76.5181 99.811 75.9744 102.973 76.0521C120.295 76.4737 137.617 76.1741 154.927 76.2407C169.253 76.2962 183.556 76.2185 197.859 76.2629C200.7 76.2629 203.552 76.2851 206.37 76.4848C209.167 76.6957 209.544 77.1506 209.544 79.8914C209.588 87.5702 209.577 95.2711 209.533 102.961Z" fill="#080909"/>
<path d="M256.26 31.8216C253.73 31.7994 253.797 31.7883 253.608 29.3803C253.242 24.9306 251.722 21.0802 247.727 18.6167C244.809 16.7969 241.347 16.9412 238.55 18.9829C235.71 21.058 234.045 23.8987 233.557 27.3608C233.346 28.8255 233.102 30.3457 233.402 31.8437C231.848 32.2654 230.239 31.9325 228.674 32.0657C226.566 32.2543 226.289 32.5206 226.144 34.629C226.089 35.206 226.144 35.7941 226.122 36.3711C225.911 42.7405 226.455 49.0877 226.511 55.4348C226.533 57.3212 226.599 57.4433 228.464 57.4544C233.224 57.4877 238.007 57.4544 242.767 57.4544C250.812 57.5432 256.726 57.5432 258.324 57.5432C258.668 57.521 259.511 57.5099 259.978 56.9661C260.466 56.3891 260.288 55.568 260.288 55.2906C260.255 48.9212 260.41 42.574 260.599 36.2269C260.754 32.0768 260.41 31.8548 256.26 31.8216ZM235.554 30.0794C235.698 27.3386 236.509 24.8308 238.24 22.6781C241.158 19.0273 245.796 19.1161 248.704 22.7446C250.357 24.7864 251.056 27.1277 251.145 29.691C251.167 30.5233 251.289 31.1225 250.901 31.5219C250.601 31.8326 250.19 31.8659 249.536 31.9214C247.594 32.0213 245.885 31.9769 245.519 31.9547C244.964 31.9325 244.121 31.9325 243.089 31.988C241.191 31.988 239.272 31.9658 237.352 31.988C235.465 32.0102 235.443 32.0324 235.554 30.0794ZM258.557 43.2287C258.224 46.7352 258.28 50.2195 258.158 53.726C258.102 54.8023 257.792 55.1574 256.715 55.1352C252.199 55.0797 247.694 55.113 242.101 55.113C238.683 54.9688 234.178 55.2684 229.662 55.335C228.63 55.3572 228.108 55.1796 228.219 53.9923C228.73 48.0557 228.441 42.1302 228.497 36.1935C228.497 34.2073 228.031 33.9965 230.627 34.0076H256.205C258.28 34.0076 258.557 34.2517 258.635 36.4377C258.668 38.7235 258.757 40.9983 258.557 43.2287Z" fill="#080909"/>
<path d="M250.901 31.522C250.601 31.8327 250.19 31.866 249.536 31.9214C247.594 32.0213 245.885 31.9769 245.519 31.9547C244.964 31.9325 244.121 31.9325 243.089 31.988C241.191 31.988 239.271 31.9658 237.352 31.988C235.454 32.0102 235.432 32.0213 235.532 30.0683C235.676 27.3275 236.486 24.8197 238.217 22.667C241.136 19.0163 245.774 19.105 248.681 22.7336C250.335 24.7753 251.034 27.1167 251.123 29.68C251.167 30.5233 251.289 31.1225 250.901 31.522Z" fill="white"/>
<path d="M302.765 165.501C302.821 166.089 302.277 166.333 301.811 166.499C301.423 166.644 301.012 166.655 300.779 166.688C298.915 166.633 296.807 164.868 296.385 163.204C296.263 162.682 296.23 162.127 296.685 161.806C297.195 161.473 297.694 161.839 297.972 162.261C298.882 163.703 300.224 164.447 301.822 164.824C302.211 164.935 302.732 165.035 302.765 165.501Z" fill="#080909"/>
<path d="M302.976 143.474C303.01 144.473 301.944 145.693 301.023 145.727C300.047 145.749 299.081 144.784 299.081 143.785C299.081 142.842 300.058 141.688 300.879 141.643C301.778 141.588 302.943 142.598 302.976 143.474Z" fill="#080909"/>
<path d="M154.927 106.035C137.617 106.368 120.883 106.301 104.15 106.379C103.562 106.379 102.974 106.401 102.397 106.379C99.8 106.301 99.334 105.824 99.334 103.261C99.3451 95.3932 99.3562 87.5258 99.3451 79.6584C99.3451 76.507 99.8111 75.9744 102.974 76.0521C120.295 76.4626 137.617 76.163 154.927 76.2296C169.242 76.2851 183.545 76.2296 197.86 76.2518C200.7 76.2518 203.541 76.2851 206.371 76.4848C209.167 76.6846 209.533 77.1395 209.544 79.8803C209.566 87.5813 209.555 95.2711 209.511 102.972C209.5 105.702 209 106.223 206.282 106.246C197.327 106.312 188.372 106.323 179.428 106.334C171.073 106.345 162.706 106.401 154.927 106.035Z" fill="#009245"/>
<path d="M117.122 139.635C117.088 141.699 115.657 143.297 113.804 143.33C112.039 143.363 110.486 141.754 110.508 139.923C110.53 137.826 111.973 136.262 113.859 136.328C115.945 136.384 117.166 137.626 117.122 139.635Z" fill="#080909"/>
<path d="M133.189 139.568C133.067 141.299 131.602 142.609 129.827 142.553C128.052 142.498 126.875 141.299 126.875 139.557C126.898 137.604 128.274 136.239 130.16 136.317C131.958 136.372 133.3 137.837 133.189 139.568Z" fill="#080909"/>
<path d="M148.769 138.958C148.791 140.756 147.615 142.043 145.939 142.076C144.352 142.132 143.309 140.944 143.32 139.147C143.343 137.649 144.541 136.439 145.995 136.461C147.659 136.472 148.758 137.449 148.769 138.958Z" fill="#080909"/>
<path d="M165.38 139.28C165.358 140.955 164.337 142.109 162.872 142.087C161.341 142.065 160.198 140.955 160.154 139.413C160.12 137.97 161.341 136.461 162.595 136.428C164.226 136.384 165.38 137.571 165.38 139.28Z" fill="#080909"/>
<path d="M181.259 139.124C181.281 140.711 179.939 142.109 178.463 142.054C177.176 141.998 175.988 140.922 175.955 139.713C175.9 138.303 177.353 136.839 178.829 136.816C180.216 136.827 181.259 137.815 181.259 139.124Z" fill="#080909"/>
<path d="M197.427 139.735C197.393 141.1 196.14 142.409 194.919 142.331C193.787 142.276 192.788 141.055 192.777 139.701C192.777 138.292 193.687 137.349 195.085 137.327C196.295 137.316 197.449 138.514 197.427 139.735Z" fill="#080909"/>
<path d="M243.366 38.779C245.929 38.7236 247.328 40.5434 246.185 42.5518C245.286 44.1386 245.031 45.7809 244.742 47.4676C244.62 48.1445 244.531 48.8768 243.666 48.8879C242.878 48.8879 242.545 48.2221 242.379 47.5563C242.256 47.0792 242.212 46.5688 242.234 46.0805C242.29 45.0485 242.201 44.183 241.291 43.4063C240.37 42.6184 240.437 41.4533 240.947 40.3991C241.457 39.3228 242.401 38.8234 243.366 38.779Z" fill="#080909"/>
</svg>
