<svg width="430" height="272" viewBox="0 0 430 272" fill="none" xmlns="http://www.w3.org/2000/svg">
<mask id="mask0_401_2222" style="mask-type:alpha" maskUnits="userSpaceOnUse" x="0" y="0" width="430" height="272">
<path d="M0 0H430V272H0V0Z" fill="#D9D9D9"/>
</mask>
<g mask="url(#mask0_401_2222)">
<mask id="mask1_401_2222" style="mask-type:alpha" maskUnits="userSpaceOnUse" x="0" y="-1" width="430" height="432">
<rect y="-1" width="430" height="431.196" fill="#D9D9D9"/>
</mask>
<g mask="url(#mask1_401_2222)">
<mask id="mask2_401_2222" style="mask-type:luminance" maskUnits="userSpaceOnUse" x="0" y="-335" width="431" height="766">
<path d="M430.036 -334.16H0V430.347H430.036V-334.16Z" fill="white"/>
</mask>
<g mask="url(#mask2_401_2222)">
<path d="M342.35 103.93C342.35 103.93 360.977 120.07 344.924 158.841C306.169 174.874 290.013 156.267 290.013 156.267C281.891 148.145 281.891 134.982 290.013 126.86C294.651 122.221 300.952 120.225 306.974 120.89C306.324 114.853 308.305 108.568 312.959 103.91C321.061 95.8078 334.228 95.8078 342.35 103.93Z" fill="#009245"/>
<path d="M316.036 166.058C297.804 166.058 289.551 156.897 289.435 156.765C281.066 148.4 281.066 134.723 289.471 126.318C293.902 121.887 299.94 119.627 306.137 120.05C305.734 113.833 307.994 107.799 312.421 103.368C320.818 94.9789 334.483 94.9829 342.888 103.384C343.04 103.511 361.702 120.293 345.626 159.124C345.55 159.312 345.399 159.459 345.215 159.535C333.547 164.369 323.871 166.058 316.036 166.058ZM304.67 121.524C299.394 121.524 294.341 123.6 290.547 127.398C282.736 135.209 282.736 147.918 290.547 155.729C290.742 155.952 306.814 173.658 344.343 158.259C359.761 120.715 342.031 104.663 341.852 104.503C334.001 96.6527 321.3 96.6487 313.497 104.452C309.182 108.768 307.077 114.733 307.731 120.811C307.755 121.042 307.675 121.269 307.512 121.428C307.348 121.588 307.121 121.664 306.894 121.648C306.145 121.564 305.404 121.524 304.67 121.524Z" fill="#363A38"/>
<path d="M310.445 159.22C304.383 159.22 298.493 156.49 294.624 151.871C290.642 147.157 288.953 140.737 290.1 134.699C290.18 134.285 290.579 134.006 290.989 134.097C291.4 134.173 291.671 134.572 291.591 134.986C290.527 140.577 292.093 146.523 295.783 150.895C299.434 155.259 305.021 157.797 310.767 157.697C310.771 157.697 310.775 157.697 310.779 157.697C311.194 157.697 311.533 158.028 311.541 158.443C311.549 158.861 311.214 159.208 310.795 159.216C310.684 159.22 310.564 159.22 310.445 159.22Z" fill="#363A38"/>
</g>
<mask id="mask3_401_2222" style="mask-type:luminance" maskUnits="userSpaceOnUse" x="0" y="-335" width="431" height="766">
<path d="M430.036 -334.16H0V430.347H430.036V-334.16Z" fill="white"/>
</mask>
<g mask="url(#mask3_401_2222)">
<path d="M299.589 209.365L301.414 211.19C302.188 211.964 302.168 213.215 301.395 213.988L257.645 257.737C256.872 258.51 255.641 258.51 254.868 257.737L172.092 174.961C171.318 174.188 171.299 172.937 172.072 172.164L173.897 170.338C173.124 171.112 173.124 172.383 173.897 173.156L246.12 245.379L254.852 254.111C255.625 254.884 256.896 254.884 257.669 254.111L299.593 212.187C300.362 211.41 300.362 210.138 299.589 209.365Z" fill="white"/>
<path d="M223.875 133.651L299.589 209.365C300.362 210.138 300.362 211.41 299.589 212.183L257.665 254.107C256.892 254.88 255.621 254.88 254.848 254.107L246.116 245.375L173.893 173.152C173.12 172.379 173.12 171.108 173.893 170.335L215.817 128.41C216.59 127.637 217.861 127.637 218.634 128.41L223.875 133.651ZM287.964 203.531L247.447 163.014L220.978 136.544L182.031 175.491L208.5 201.961L249.017 242.478L287.964 203.531ZM282.369 219.603L281.616 218.85C280.863 218.097 279.651 218.117 278.898 218.87L264.356 233.412C263.603 234.165 263.583 235.376 264.336 236.13L265.089 236.883C265.843 237.636 267.074 237.636 267.827 236.883L282.369 222.341C283.122 221.588 283.122 220.356 282.369 219.603Z" fill="white"/>
<path d="M247.447 163.018L287.965 203.535L249.018 242.482L208.5 201.965L213.601 196.864C221.54 204.798 234.416 204.818 242.35 196.884C250.305 188.929 250.289 176.049 242.35 168.115L247.447 163.018ZM271.02 198.055L268.876 195.911C266.712 193.747 263.181 193.747 261.017 195.911L241.394 215.534C239.23 217.698 239.23 221.229 241.394 223.393L243.538 225.537C245.702 227.701 249.233 227.701 251.397 225.537L271.02 205.914C273.18 203.75 273.18 200.219 271.02 198.055Z" fill="#009245"/>
<path d="M220.978 136.548L247.447 163.018L242.346 168.119C234.412 160.18 221.532 160.164 213.577 168.119C205.643 176.053 205.659 188.933 213.597 196.868L208.496 201.969L182.027 175.499L220.978 136.548Z" fill="#009245"/>
<path d="M268.875 195.911L271.019 198.055C273.183 200.219 273.183 203.75 271.019 205.914L251.396 225.537C249.233 227.701 245.702 227.701 243.538 225.537L241.394 223.393C239.23 221.229 239.23 217.698 241.394 215.534L261.017 195.911C263.181 193.751 266.711 193.751 268.875 195.911Z" fill="white"/>
<path d="M213.577 168.115C221.532 160.16 234.412 160.176 242.346 168.115C250.285 176.049 250.301 188.929 242.346 196.884C234.412 204.818 221.532 204.802 213.597 196.864C205.663 188.929 205.643 176.053 213.577 168.115ZM240.88 176.368L234.093 169.581L227.984 175.691L221.851 169.565L215.064 176.352L221.193 182.481L215.064 188.611L221.851 195.397L227.98 189.268L234.109 195.397L240.896 188.611L234.767 182.481L240.88 176.368Z" fill="white"/>
<path d="M234.093 169.585L240.88 176.368L234.77 182.481L240.899 188.61L234.113 195.397L227.984 189.268L221.85 195.397L215.068 188.61L221.197 182.481L215.068 176.348L221.85 169.565L227.984 175.695L234.093 169.585Z" fill="#009245"/>
<path d="M281.612 218.85L282.365 219.603C283.118 220.356 283.118 221.588 282.365 222.341L267.823 236.883C267.07 237.636 265.839 237.636 265.086 236.883L264.332 236.13C263.579 235.376 263.599 234.165 264.352 233.412L278.894 218.87C279.651 218.117 280.859 218.097 281.612 218.85Z" fill="#009245"/>
<path d="M256.254 259.072C255.557 259.072 254.86 258.805 254.33 258.275L171.554 175.499C171.036 174.981 170.749 174.296 170.741 173.57C170.733 172.833 171.016 172.144 171.534 171.626L173.359 169.8C173.658 169.502 174.136 169.51 174.435 169.804C174.73 170.099 174.73 170.582 174.435 170.88L172.61 172.706C172.383 172.933 172.259 173.236 172.263 173.558C172.267 173.885 172.398 174.192 172.63 174.427L255.406 257.203C255.884 257.681 256.633 257.681 257.107 257.203L300.856 213.454C301.092 213.219 301.219 212.912 301.223 212.585C301.227 212.262 301.104 211.96 300.876 211.732L299.051 209.903C298.756 209.608 298.756 209.126 299.051 208.827C299.35 208.532 299.828 208.532 300.127 208.831L301.952 210.656C302.47 211.175 302.753 211.864 302.745 212.597C302.737 213.323 302.451 214.008 301.933 214.526L258.183 258.275C257.653 258.805 256.952 259.072 256.254 259.072Z" fill="#363A38"/>
<path d="M256.254 255.45C255.549 255.45 254.844 255.183 254.31 254.645L173.359 173.694C172.287 172.622 172.287 170.876 173.359 169.8L215.283 127.876C216.355 126.8 218.104 126.804 219.176 127.876L300.127 208.827C301.199 209.903 301.199 211.649 300.127 212.721L258.203 254.645C257.665 255.183 256.96 255.45 256.254 255.45ZM217.232 128.59C216.917 128.59 216.602 128.709 216.359 128.952L174.435 170.876C173.957 171.355 173.957 172.136 174.435 172.618L255.386 253.569C255.864 254.051 256.645 254.051 257.127 253.569L299.051 211.645C299.533 211.167 299.533 210.381 299.051 209.903L218.1 128.952C217.861 128.709 217.543 128.59 217.232 128.59Z" fill="#363A38"/>
<path d="M249.013 243.239C248.818 243.239 248.623 243.167 248.475 243.016L181.493 176.033C181.198 175.738 181.198 175.252 181.493 174.957L220.44 136.01C220.735 135.715 221.217 135.715 221.516 136.01L288.498 202.993C288.642 203.136 288.722 203.328 288.722 203.531C288.722 203.734 288.642 203.925 288.498 204.069L249.551 243.016C249.404 243.167 249.209 243.239 249.013 243.239ZM209.038 201.427L249.017 241.406L286.892 203.535L220.982 137.624L183.107 175.495L209.038 201.427Z" fill="#363A38"/>
<path d="M183.716 167.465C183.521 167.465 183.326 167.393 183.178 167.242C182.884 166.947 182.884 166.461 183.178 166.166L211.648 137.692C211.943 137.397 212.426 137.397 212.725 137.692C213.019 137.987 213.019 138.473 212.725 138.768L184.254 167.242C184.107 167.393 183.912 167.465 183.716 167.465Z" fill="#363A38"/>
<path d="M266.456 238.21C265.735 238.21 265.058 237.927 264.552 237.421L263.798 236.668C262.758 235.628 262.766 233.926 263.818 232.874L278.36 218.332C278.866 217.826 279.54 217.543 280.249 217.535C280.257 217.535 280.265 217.535 280.277 217.535C280.986 217.535 281.652 217.814 282.154 218.312L282.907 219.065C283.417 219.575 283.696 220.249 283.696 220.97C283.696 221.691 283.417 222.369 282.907 222.879L268.365 237.421C267.851 237.931 267.178 238.21 266.456 238.21ZM280.273 219.053C279.974 219.053 279.671 219.173 279.432 219.408L264.89 233.95C264.424 234.416 264.416 235.137 264.87 235.592L265.624 236.345C266.066 236.791 266.843 236.787 267.285 236.345L281.827 221.803C282.286 221.345 282.286 220.599 281.827 220.141L281.074 219.388C280.851 219.165 280.564 219.053 280.273 219.053Z" fill="#363A38"/>
<path d="M227.992 203.579C222.588 203.579 217.18 201.522 213.059 197.406C209.078 193.421 206.878 188.124 206.874 182.493C206.87 176.858 209.058 171.562 213.039 167.581C221.269 159.355 234.655 159.359 242.884 167.581C251.114 175.81 251.114 189.196 242.884 197.426C238.78 201.526 233.388 203.579 227.992 203.579ZM227.964 162.926C222.95 162.926 217.933 164.835 214.115 168.653C210.421 172.347 208.389 177.261 208.397 182.489C208.401 187.718 210.441 192.632 214.135 196.326C221.771 203.961 234.185 203.969 241.812 196.346C249.448 188.71 249.448 176.288 241.812 168.653C237.994 164.835 232.977 162.926 227.964 162.926Z" fill="#363A38"/>
<path d="M247.467 227.916C245.778 227.916 244.191 227.263 243 226.071L240.856 223.931C239.668 222.744 239.011 221.157 239.011 219.464C239.011 217.774 239.664 216.188 240.856 214.996L260.479 195.373C262.858 192.994 267.03 192.994 269.41 195.377L271.554 197.517C272.741 198.705 273.399 200.291 273.399 201.985C273.399 203.674 272.741 205.261 271.554 206.452L251.931 226.075C250.743 227.263 249.157 227.916 247.467 227.916ZM264.946 195.051C263.663 195.051 262.459 195.549 261.555 196.453L241.932 216.076C241.031 216.977 240.533 218.18 240.533 219.468C240.533 220.755 241.031 221.958 241.932 222.859L244.076 225.003C245.881 226.812 249.053 226.812 250.859 225.003L270.482 205.38C271.382 204.479 271.88 203.276 271.88 201.989C271.88 200.705 271.382 199.498 270.482 198.597L268.338 196.453C267.437 195.549 266.233 195.051 264.946 195.051Z" fill="#363A38"/>
<path d="M234.113 196.158C233.918 196.158 233.722 196.087 233.575 195.935L227.98 190.34L222.385 195.935C222.241 196.079 222.05 196.158 221.846 196.158C221.643 196.158 221.452 196.079 221.308 195.935L214.522 189.148C214.227 188.854 214.227 188.367 214.522 188.072L220.117 182.481L214.522 176.89C214.378 176.747 214.299 176.555 214.299 176.352C214.299 176.149 214.378 175.958 214.522 175.814L221.308 169.031C221.603 168.736 222.086 168.736 222.385 169.031L227.98 174.626L233.555 169.051C233.85 168.756 234.332 168.756 234.631 169.051L241.418 175.838C241.561 175.981 241.641 176.173 241.641 176.376C241.641 176.579 241.561 176.77 241.418 176.914L235.842 182.485L241.438 188.076C241.732 188.371 241.732 188.858 241.438 189.152L234.651 195.939C234.503 196.083 234.308 196.158 234.113 196.158ZM227.984 188.507C228.179 188.507 228.374 188.579 228.522 188.73L234.117 194.325L239.828 188.614L234.232 183.023C234.089 182.88 234.009 182.688 234.009 182.485C234.009 182.282 234.089 182.091 234.232 181.947L239.808 176.376L234.097 170.665L228.522 176.24C228.227 176.535 227.745 176.535 227.446 176.24L221.85 170.645L216.14 176.356L221.735 181.947C222.03 182.242 222.03 182.728 221.735 183.023L216.14 188.614L221.85 194.325L227.446 188.73C227.593 188.579 227.788 188.507 227.984 188.507Z" fill="#363A38"/>
</g>
<mask id="mask4_401_2222" style="mask-type:luminance" maskUnits="userSpaceOnUse" x="0" y="-335" width="431" height="766">
<path d="M430.036 -334.16H0V430.347H430.036V-334.16Z" fill="white"/>
</mask>
<g mask="url(#mask4_401_2222)">
<path d="M303.475 302.586C303.279 302.586 303.084 302.515 302.937 302.363C302.642 302.068 302.642 301.582 302.937 301.287L333.531 270.693C333.826 270.398 334.308 270.398 334.607 270.693C334.906 270.988 334.902 271.474 334.607 271.769L304.013 302.363C303.861 302.515 303.67 302.586 303.475 302.586Z" fill="#363A38"/>
</g>
<mask id="mask5_401_2222" style="mask-type:luminance" maskUnits="userSpaceOnUse" x="0" y="-335" width="431" height="766">
<path d="M430.036 -334.16H0V430.347H430.036V-334.16Z" fill="white"/>
</mask>
<g mask="url(#mask5_401_2222)">
<path d="M387.522 240.139C402 240.139 413.728 251.895 413.728 266.373C413.728 280.879 402 292.608 387.522 292.608C373.016 292.608 361.26 280.879 361.26 266.373C361.26 251.895 373.016 240.139 387.522 240.139ZM403.459 272.072V260.678H393.189V250.436H381.823V260.678H371.553V272.072H381.823V282.342H393.189V272.072H403.459Z" fill="white"/>
<path d="M403.459 260.678V272.072H393.189V282.342H381.827V272.072H371.557V260.678H381.827V250.436H393.189V260.678H403.459Z" fill="#009245"/>
<path d="M387.522 293.369C372.621 293.369 360.499 281.258 360.499 266.373C360.499 251.489 372.621 239.378 387.522 239.378C402.391 239.378 414.49 251.489 414.49 266.373C414.49 281.258 402.391 293.369 387.522 293.369ZM387.522 240.9C373.458 240.9 362.017 252.329 362.017 266.377C362.017 280.425 373.458 291.854 387.522 291.854C401.554 291.854 412.967 280.425 412.967 266.377C412.967 252.329 401.554 240.9 387.522 240.9Z" fill="#363A38"/>
<path d="M393.189 283.103H381.823C381.405 283.103 381.062 282.764 381.062 282.342V272.833H371.553C371.135 272.833 370.792 272.494 370.792 272.072V260.678C370.792 260.26 371.131 259.917 371.553 259.917H381.062V250.436C381.062 250.018 381.401 249.675 381.823 249.675H393.189C393.607 249.675 393.95 250.014 393.95 250.436V259.917H403.459C403.877 259.917 404.22 260.256 404.22 260.678V272.072C404.22 272.49 403.881 272.833 403.459 272.833H393.95V282.342C393.95 282.76 393.611 283.103 393.189 283.103ZM382.584 281.581H392.428V272.072C392.428 271.653 392.766 271.311 393.189 271.311H402.698V261.436H393.189C392.77 261.436 392.428 261.097 392.428 260.674V251.194H382.584V260.674C382.584 261.093 382.246 261.436 381.823 261.436H372.315V271.311H381.823C382.242 271.311 382.584 271.649 382.584 272.072V281.581Z" fill="#363A38"/>
</g>
<mask id="mask6_401_2222" style="mask-type:luminance" maskUnits="userSpaceOnUse" x="0" y="-335" width="431" height="766">
<path d="M430.036 -334.16H0V430.347H430.036V-334.16Z" fill="white"/>
</mask>
<g mask="url(#mask6_401_2222)">
<path d="M345.391 229.231V238.182H337.313V246.264H328.358V238.182H320.28V229.231H328.358V221.149H337.313V229.231H345.391Z" fill="#009245"/>
<path d="M337.313 247.025H328.362C327.944 247.025 327.601 246.686 327.601 246.264V238.943H320.28C319.862 238.943 319.519 238.604 319.519 238.182V229.231C319.519 228.813 319.858 228.47 320.28 228.47H327.601V221.149C327.601 220.731 327.94 220.388 328.362 220.388H337.313C337.731 220.388 338.074 220.727 338.074 221.149V228.47H345.395C345.813 228.47 346.156 228.809 346.156 229.231V238.182C346.156 238.6 345.817 238.943 345.395 238.943H338.074V246.264C338.07 246.682 337.731 247.025 337.313 247.025ZM329.119 245.503H336.552V238.182C336.552 237.764 336.89 237.421 337.313 237.421H344.634V229.989H337.313C336.894 229.989 336.552 229.65 336.552 229.227V221.907H329.119V229.227C329.119 229.646 328.781 229.989 328.358 229.989H321.037V237.421H328.358C328.777 237.421 329.119 237.76 329.119 238.182V245.503Z" fill="#363A38"/>
<path d="M359.466 195.457V201.184H354.329V206.317H348.607V201.184H343.446L343.442 195.457H348.607V190.324H354.329V195.457H359.466Z" fill="#009245"/>
<path d="M354.329 207.078H348.607C348.188 207.078 347.846 206.739 347.846 206.317V201.945H343.442C343.023 201.945 342.681 201.606 342.681 201.184V195.457C342.681 195.039 343.019 194.696 343.442 194.696H347.846V190.324C347.846 189.906 348.184 189.563 348.607 189.563H354.329C354.748 189.563 355.091 189.902 355.091 190.324V194.696H359.466C359.885 194.696 360.227 195.035 360.227 195.457V201.184C360.227 201.602 359.889 201.945 359.466 201.945H355.091V206.317C355.091 206.735 354.752 207.078 354.329 207.078ZM349.368 205.555H353.572V201.184C353.572 200.765 353.911 200.423 354.333 200.423H358.709V196.218H354.333C353.915 196.218 353.572 195.879 353.572 195.457V191.085H349.368V195.457C349.368 195.875 349.029 196.218 348.607 196.218H344.203V200.423H348.607C349.025 200.423 349.368 200.761 349.368 201.184V205.555Z" fill="#363A38"/>
</g>
<mask id="mask7_401_2222" style="mask-type:luminance" maskUnits="userSpaceOnUse" x="0" y="-335" width="431" height="766">
<path d="M430.036 -334.16H0V430.347H430.036V-334.16Z" fill="white"/>
</mask>
<g mask="url(#mask7_401_2222)">
<path d="M75.9692 162.631C75.9692 162.631 118.212 172.73 102.14 188.802C86.0677 204.874 75.9692 162.631 75.9692 162.631Z" fill="#009245"/>
<path d="M45.7338 140.964C45.7338 140.964 82.1024 149.675 68.2739 163.504C54.4453 177.332 45.7338 140.964 45.7338 140.964Z" fill="#009245"/>
<path d="M59.0244 172.749C59.0244 172.749 83.2901 178.564 74.0644 187.79C64.8188 197.035 59.0244 172.749 59.0244 172.749Z" fill="#009245"/>
<path d="M62.0571 167.401C61.4235 167.401 60.7898 167.314 60.1602 167.134C50.6834 164.46 45.2238 142.092 44.9966 141.139C44.9368 140.884 45.0126 140.613 45.1999 140.426C45.3872 140.238 45.6581 140.155 45.9132 140.227C46.8656 140.454 69.2304 145.913 71.9084 155.39C72.7214 158.267 71.6813 161.177 68.8159 164.042C66.5723 166.278 64.3087 167.401 62.0571 167.401ZM46.7939 142.028C48.0811 146.766 53.1343 163.576 60.5706 165.676C62.9059 166.337 65.2532 165.449 67.732 162.97C70.2147 160.491 71.0995 158.148 70.4379 155.809C68.3417 148.368 51.5363 143.311 46.7939 142.028Z" fill="#363A38"/>
<path d="M69.9118 190.651C69.4655 190.651 69.0152 190.587 68.5688 190.46C62.1009 188.63 58.4386 173.566 58.2871 172.925C58.2274 172.666 58.3031 172.399 58.4904 172.211C58.6777 172.028 58.9486 171.94 59.2037 172.012C59.8453 172.164 74.9093 175.842 76.7305 182.306C77.3004 184.318 76.583 186.347 74.6024 188.327C73.0562 189.874 71.486 190.651 69.9118 190.651ZM60.0844 173.81C61.3876 178.552 64.7351 187.797 68.9833 188.997C70.4538 189.411 71.9363 188.842 73.5264 187.248C75.1125 185.665 75.6824 184.183 75.2679 182.716C74.0724 178.472 64.8268 175.117 60.0844 173.81Z" fill="#363A38"/>
<path d="M94.9147 193.209C94.1894 193.209 93.4641 193.106 92.7428 192.903C81.8075 189.814 75.495 163.906 75.232 162.806C75.1722 162.547 75.2479 162.28 75.4352 162.093C75.6225 161.91 75.8895 161.822 76.1485 161.894C77.2484 162.157 103.156 168.469 106.245 179.405C107.177 182.7 105.974 186.044 102.678 189.34C100.103 191.914 97.5011 193.209 94.9147 193.209ZM77.0293 163.687C78.4321 168.904 84.35 188.953 93.1572 191.44C95.8871 192.217 98.7245 191.141 101.606 188.26C104.483 185.382 105.555 182.541 104.782 179.815C102.295 171.012 82.2459 165.09 77.0293 163.687Z" fill="#363A38"/>
<path d="M95.6323 188.423C92.1931 188.423 88.8814 186.223 87.6261 183.047C87.4706 182.657 87.6619 182.214 88.0525 182.063C88.443 181.911 88.8854 182.099 89.0368 182.489C90.0969 185.175 93.0897 187.064 96.0228 186.889C96.4213 186.821 96.7999 187.18 96.8278 187.602C96.8517 188.021 96.5329 188.379 96.1145 188.407C95.955 188.419 95.7917 188.423 95.6323 188.423Z" fill="#363A38"/>
<path d="M62.3758 163.181C59.9887 163.181 57.5936 161.914 56.3662 159.818C56.1549 159.455 56.2745 158.989 56.6372 158.777C56.9998 158.562 57.4661 158.686 57.6773 159.048C58.8968 161.125 61.7223 162.185 63.9739 161.392C64.3724 161.26 64.8028 161.463 64.9423 161.862C65.0817 162.257 64.8706 162.691 64.476 162.83C63.7985 163.069 63.0892 163.181 62.3758 163.181Z" fill="#363A38"/>
</g>
<mask id="mask8_401_2222" style="mask-type:luminance" maskUnits="userSpaceOnUse" x="0" y="-335" width="431" height="766">
<path d="M430.036 -334.16H0V430.347H430.036V-334.16Z" fill="white"/>
</mask>
<g mask="url(#mask8_401_2222)">
<path d="M302.837 260.439L310.999 268.601C314.749 272.351 314.749 278.496 310.999 282.246C309.11 284.135 306.643 285.08 304.16 285.08C301.694 285.064 299.211 284.135 297.338 282.258L289.16 274.08C289.16 274.08 297.31 271.964 302.71 260.563L302.837 260.439Z" fill="white"/>
<path d="M302.821 260.423L302.837 260.439L302.71 260.567C297.31 271.972 289.16 274.084 289.16 274.084L280.982 265.907C277.232 262.157 277.232 256.012 280.998 252.246C282.871 250.373 285.342 249.428 287.821 249.428C290.288 249.444 292.771 250.373 294.644 252.246L302.821 260.423Z" fill="#009245"/>
<path d="M304.164 285.841C301.363 285.825 298.748 284.745 296.804 282.8L288.626 274.622C288.331 274.328 288.331 273.841 288.626 273.546C288.921 273.252 289.403 273.252 289.702 273.546L297.88 281.724C299.541 283.386 301.777 284.306 304.168 284.322C306.543 284.322 308.783 283.398 310.465 281.712C313.932 278.245 313.932 272.606 310.465 269.139L302.303 260.977C302.012 260.682 302 260.2 302.287 259.905C302.574 259.61 303.044 259.586 303.343 259.869L303.359 259.881L311.541 268.063C315.598 272.124 315.598 278.727 311.541 282.784C309.568 284.757 306.946 285.841 304.164 285.841Z" fill="#363A38"/>
<path d="M289.164 274.846C288.969 274.846 288.774 274.774 288.626 274.622L280.448 266.445C278.492 264.488 277.412 261.874 277.416 259.084C277.416 256.291 278.5 253.672 280.464 251.712C282.425 249.751 285.039 248.671 287.825 248.671C290.627 248.687 293.241 249.767 295.186 251.716L303.363 259.889C303.658 260.184 303.658 260.67 303.363 260.965C303.068 261.256 302.586 261.26 302.287 260.965L294.11 252.792C292.448 251.13 290.216 250.205 287.821 250.193C285.446 250.193 283.214 251.114 281.54 252.792C279.863 254.469 278.938 256.705 278.938 259.092C278.938 261.475 279.855 263.711 281.528 265.377L289.706 273.554C290.001 273.849 290.001 274.335 289.706 274.63C289.551 274.77 289.359 274.846 289.164 274.846Z" fill="#363A38"/>
<path d="M283.509 264.879C283.326 264.879 283.139 264.811 282.991 264.675C280.827 262.667 279.934 259.411 280.779 256.57C280.899 256.167 281.317 255.936 281.724 256.056C282.126 256.175 282.357 256.598 282.238 257C281.556 259.299 282.278 261.934 284.027 263.56C284.334 263.847 284.35 264.325 284.067 264.632C283.916 264.799 283.712 264.879 283.509 264.879Z" fill="#363A38"/>
<path d="M289.164 274.846C288.825 274.846 288.518 274.618 288.431 274.276C288.323 273.869 288.566 273.455 288.973 273.351C289.052 273.331 296.863 271.151 302.028 260.244C302.207 259.865 302.658 259.702 303.04 259.881C303.419 260.061 303.582 260.515 303.403 260.894C297.915 272.486 289.706 274.734 289.359 274.826C289.288 274.838 289.224 274.846 289.164 274.846Z" fill="#363A38"/>
<path d="M310.955 279.042C310.827 279.042 310.7 279.01 310.58 278.942C310.218 278.735 310.086 278.273 310.293 277.906C310.305 277.886 311.453 275.802 310.732 273.666C310.242 272.068 309.249 270.617 307.93 269.561C307.603 269.298 307.552 268.82 307.811 268.493C308.074 268.166 308.556 268.119 308.879 268.374C310.433 269.621 311.604 271.335 312.174 273.2C313.111 275.973 311.672 278.552 311.608 278.659C311.473 278.902 311.218 279.042 310.955 279.042Z" fill="#363A38"/>
</g>
<mask id="mask9_401_2222" style="mask-type:luminance" maskUnits="userSpaceOnUse" x="0" y="-335" width="431" height="766">
<path d="M430.036 -334.16H0V430.347H430.036V-334.16Z" fill="white"/>
</mask>
<g mask="url(#mask9_401_2222)">
<path d="M150.253 194.911L255.33 299.988C256.597 301.255 256.573 303.284 255.33 304.523L180.026 379.827C178.783 381.07 176.755 381.094 175.491 379.827L70.4142 274.75C69.1469 273.483 69.1708 271.454 70.4142 270.215L84.0953 256.534L87.2475 262.264L88.5866 260.925L136.433 213.079L137.772 211.74L132.041 208.588L145.722 194.907C146.957 193.668 148.986 193.644 150.253 194.911ZM249.125 302.614L235.97 289.459L152.094 205.583L81.0865 276.591L171.482 366.987L178.121 373.626L249.125 302.614Z" fill="#009245"/>
<path d="M209.226 316.2L213.928 320.902L192.894 341.936L187.499 347.332L176.802 336.636L164.293 349.145L176.802 361.655L171.478 366.979L81.0825 276.583L152.09 205.575L235.966 289.451L230.259 295.158L209.226 316.2ZM181.198 246.101L151.688 216.59L92.0935 276.185L121.604 305.695L181.198 246.101ZM170.478 330.407L157.968 317.897L145.455 330.407L157.964 342.916L170.478 330.407ZM151.684 311.665L139.174 299.155L126.665 311.665L139.174 324.174L151.684 311.665Z" fill="white"/>
<path d="M151.684 216.59L181.194 246.101L121.6 305.695L92.0894 276.185L151.684 216.59ZM147.196 256.366L141.298 250.468L135.998 255.769L130.65 250.42L124.728 256.342L130.076 261.691L124.752 267.015L130.65 272.913L135.974 267.589L141.298 272.913L147.22 266.991L141.896 261.667L147.196 256.366Z" fill="#009245"/>
<path d="M132.037 208.592L137.768 211.744L136.429 213.083L88.5826 260.929L87.2436 262.268L84.0913 256.538L83.1109 254.748C81.3216 251.524 81.8914 247.467 84.5177 244.841L87.5982 241.761C85.9762 240.139 85.1633 237.987 85.1872 235.863C85.1633 233.739 85.9762 231.591 87.5982 229.965L104.695 212.868C107.943 209.62 113.243 209.62 116.491 212.868L120.36 208.999C122.963 206.396 127.024 205.822 130.267 207.592L132.037 208.592ZM112.338 219.551L111.262 218.475C110.186 217.399 108.421 217.399 107.345 218.475L93.9984 231.822C92.8985 232.922 92.8985 234.687 93.9745 235.763L95.0505 236.839C96.1504 237.939 97.9397 237.963 99.0397 236.863L112.386 223.517C113.458 222.441 113.434 220.647 112.338 219.551Z" fill="white"/>
<path d="M141.298 250.472L147.196 256.366L141.896 261.667L147.22 266.991L141.298 272.913L135.974 267.589L130.65 272.913L124.752 267.015L130.076 261.691L124.728 256.342L130.65 250.424L135.998 255.773L141.298 250.472Z" fill="white"/>
<path d="M84.0912 257.295C83.8202 257.295 83.5612 257.151 83.4217 256.9L82.4414 255.111C80.4926 251.604 81.1262 247.157 83.9796 244.303L86.5461 241.737C85.1672 240.099 84.402 237.995 84.426 235.855C84.3981 233.479 85.3585 231.132 87.0602 229.431L104.157 212.334C105.87 210.621 108.154 209.676 110.593 209.676C112.772 209.676 114.829 210.433 116.467 211.82L119.818 208.469C122.648 205.639 127.091 205.005 130.626 206.93L132.403 207.939C132.77 208.146 132.898 208.608 132.69 208.975C132.483 209.341 132.025 209.473 131.654 209.262L129.889 208.261C126.952 206.663 123.25 207.189 120.894 209.545L117.025 213.41C116.738 213.697 116.236 213.697 115.949 213.414C114.522 211.984 112.617 211.198 110.589 211.198C108.56 211.198 106.655 211.983 105.229 213.41L88.1322 230.507C86.7175 231.921 85.9204 233.87 85.9443 235.859C85.9244 237.863 86.7214 239.812 88.1322 241.227C88.4271 241.522 88.4271 242.008 88.1322 242.303L85.0517 245.383C82.6725 247.762 82.1464 251.465 83.7684 254.386L84.7488 256.179C84.948 256.546 84.8125 257.008 84.4459 257.211C84.3383 257.267 84.2148 257.295 84.0912 257.295Z" fill="#363A38"/>
<path d="M177.759 381.529C176.743 381.529 175.726 381.142 174.953 380.369L69.8721 275.288C69.1189 274.535 68.7085 273.535 68.7085 272.47C68.7125 271.414 69.1269 270.422 69.8721 269.677L83.5533 255.996C83.7206 255.828 83.9637 255.741 84.1989 255.781C84.434 255.812 84.6412 255.956 84.7567 256.167L87.4189 261.013L136.512 211.92L131.67 209.254C131.459 209.138 131.319 208.935 131.284 208.696C131.248 208.457 131.327 208.222 131.499 208.05L145.18 194.369C146.726 192.827 149.245 192.827 150.791 194.369L255.872 299.45C257.418 300.996 257.418 303.515 255.872 305.061L180.564 380.369C179.791 381.142 178.775 381.529 177.759 381.529ZM83.9119 257.789L70.9482 270.757C69.9957 271.709 69.9957 273.264 70.9482 274.216L176.029 379.297C176.986 380.249 178.536 380.249 179.492 379.297L254.8 303.989C255.753 303.037 255.753 301.483 254.8 300.53L149.719 195.449C148.767 194.497 147.212 194.497 146.256 195.449L133.292 208.413L138.134 211.079C138.345 211.195 138.485 211.398 138.521 211.637C138.553 211.876 138.477 212.111 138.306 212.282L87.7815 262.806C87.6102 262.974 87.3711 263.058 87.1359 263.022C86.9008 262.99 86.6936 262.846 86.578 262.635L83.9119 257.789Z" fill="#363A38"/>
<path d="M178.117 374.383C177.922 374.383 177.727 374.311 177.579 374.16L80.5483 277.125C80.2534 276.83 80.2534 276.344 80.5483 276.049L151.556 205.041C151.851 204.746 152.333 204.746 152.632 205.041L236.508 288.917L249.663 302.072C249.958 302.367 249.958 302.853 249.663 303.148L178.655 374.156C178.504 374.311 178.313 374.383 178.117 374.383ZM82.1584 276.591L178.117 372.55L248.049 302.618L152.09 206.659L82.1584 276.591Z" fill="#363A38"/>
<path d="M121.6 306.456C121.396 306.456 121.205 306.376 121.062 306.233L91.5515 276.723C91.2566 276.428 91.2566 275.941 91.5515 275.647L151.146 216.052C151.441 215.757 151.923 215.757 152.222 216.052L181.732 245.563C181.875 245.706 181.955 245.897 181.955 246.101C181.955 246.304 181.875 246.495 181.732 246.639L122.138 306.233C121.994 306.376 121.803 306.456 121.6 306.456ZM93.1655 276.185L121.6 304.623L180.122 246.105L151.684 217.666L93.1655 276.185Z" fill="#363A38"/>
<path d="M141.298 273.674C141.103 273.674 140.908 273.602 140.76 273.451L135.974 268.665L131.188 273.451C130.893 273.746 130.411 273.746 130.112 273.451L124.214 267.553C124.07 267.409 123.991 267.218 123.991 267.015C123.991 266.811 124.07 266.62 124.214 266.477L129 261.691L124.19 256.88C124.047 256.737 123.967 256.546 123.967 256.342C123.967 256.139 124.047 255.948 124.19 255.804L130.112 249.882C130.407 249.588 130.889 249.588 131.188 249.882L135.998 254.693L140.76 249.93C141.055 249.635 141.537 249.635 141.836 249.93L147.734 255.828C147.878 255.972 147.958 256.163 147.958 256.366C147.958 256.57 147.878 256.761 147.734 256.904L142.972 261.667L147.758 266.453C147.902 266.596 147.981 266.788 147.981 266.991C147.981 267.194 147.902 267.385 147.758 267.529L141.836 273.451C141.689 273.598 141.494 273.674 141.298 273.674ZM135.974 266.831C136.169 266.831 136.365 266.903 136.512 267.055L141.298 271.841L146.144 266.995L141.358 262.209C141.215 262.065 141.135 261.874 141.135 261.671C141.135 261.467 141.215 261.276 141.358 261.133L146.12 256.37L141.298 251.548L136.536 256.311C136.241 256.605 135.759 256.605 135.46 256.311L130.65 251.5L125.804 256.346L130.614 261.157C130.758 261.3 130.837 261.491 130.837 261.695C130.837 261.898 130.758 262.089 130.614 262.233L125.828 267.019L130.65 271.841L135.436 267.055C135.588 266.903 135.779 266.831 135.974 266.831Z" fill="#363A38"/>
<path d="M97.067 238.433C96.1465 238.433 95.218 238.082 94.5126 237.377L93.4366 236.301C92.771 235.635 92.4084 234.747 92.4124 233.798C92.4164 232.85 92.787 231.957 93.4605 231.284L106.807 217.937C108.134 216.61 110.469 216.61 111.796 217.941L112.872 219.013C114.275 220.416 114.295 222.676 112.92 224.055L99.5737 237.401C98.8843 238.086 97.9796 238.433 97.067 238.433ZM109.306 218.432C108.764 218.432 108.261 218.639 107.883 219.013L94.5365 232.36C94.1499 232.746 93.9347 233.26 93.9307 233.806C93.9267 234.344 94.134 234.85 94.5126 235.225L95.5886 236.301C95.9791 236.692 96.4972 236.911 97.0511 236.915C97.0551 236.915 97.0631 236.915 97.067 236.915C97.613 236.915 98.1192 236.708 98.5017 236.325L111.848 222.979C112.223 222.608 112.422 222.102 112.418 221.552C112.41 220.998 112.191 220.48 111.8 220.089L110.724 219.013C110.35 218.635 109.844 218.432 109.306 218.432Z" fill="#363A38"/>
<path d="M87.2196 256.506C87.0243 256.506 86.8291 256.434 86.6816 256.283C86.3867 255.988 86.3867 255.502 86.6816 255.207L129.49 212.398C129.785 212.103 130.267 212.103 130.566 212.398C130.861 212.693 130.861 213.179 130.566 213.474L87.7576 256.283C87.6102 256.434 87.4149 256.506 87.2196 256.506Z" fill="#363A38"/>
<path d="M145.909 295.712C145.714 295.712 145.519 295.64 145.371 295.489C145.076 295.194 145.076 294.708 145.371 294.413L187.439 252.341C187.734 252.046 188.216 252.046 188.515 252.341C188.81 252.636 188.81 253.122 188.515 253.417L146.447 295.489C146.296 295.64 146.105 295.712 145.909 295.712Z" fill="#363A38"/>
<path d="M150.899 300.701C150.703 300.701 150.508 300.63 150.361 300.478C150.066 300.183 150.066 299.697 150.361 299.402L192.428 257.335C192.723 257.04 193.205 257.04 193.504 257.335C193.799 257.63 193.799 258.116 193.504 258.411L151.437 300.478C151.285 300.626 151.094 300.701 150.899 300.701Z" fill="#363A38"/>
<path d="M163.862 313.669C163.667 313.669 163.472 313.597 163.324 313.446C163.03 313.151 163.03 312.665 163.324 312.37L205.392 270.299C205.687 270.004 206.169 270.004 206.468 270.299C206.763 270.593 206.763 271.08 206.468 271.374L164.4 313.446C164.253 313.593 164.058 313.669 163.862 313.669Z" fill="#363A38"/>
</g>
<mask id="mask10_401_2222" style="mask-type:luminance" maskUnits="userSpaceOnUse" x="0" y="-335" width="431" height="766">
<path d="M430.036 -334.16H0V430.347H430.036V-334.16Z" fill="white"/>
</mask>
<g mask="url(#mask10_401_2222)">
<path d="M47.7583 192.899L64.8627 210.003C66.7676 211.908 66.7477 215.024 64.8428 216.929L21.4881 260.284C19.5832 262.189 16.4668 262.209 14.5619 260.304L-65.4364 180.305C-67.3413 178.4 -67.3413 175.264 -65.4364 173.359L-22.0818 130.005C-20.1769 128.1 -17.0405 128.1 -15.1356 130.005L47.7583 192.899ZM-9.93897 147.778C-13.5097 144.208 -19.2842 144.188 -22.8549 147.759C-26.4256 151.329 -26.4455 157.144 -22.8748 160.714C-19.3041 164.285 -13.4897 164.265 -9.91903 160.694C-6.34831 157.124 -6.36826 151.349 -9.93897 147.778ZM9.78369 167.501C6.21297 163.93 0.438448 163.91 -3.13227 167.481C-6.70298 171.052 -6.72293 176.866 -3.15221 180.437C0.418502 184.008 6.23287 183.988 9.80359 180.417C13.3743 176.846 13.3544 171.072 9.78369 167.501ZM29.0878 186.805C25.5171 183.235 19.7625 183.235 16.1918 186.805C12.6211 190.376 12.5813 196.17 16.152 199.741C19.7227 203.312 25.557 203.312 29.1277 199.741C32.6984 196.17 32.6586 190.376 29.0878 186.805ZM47.0849 204.802C43.5142 201.232 37.7396 201.212 34.1689 204.782C30.5982 208.353 30.5783 214.167 34.149 217.738C37.7197 221.309 43.5341 221.289 47.1048 217.718C50.6755 214.147 50.6556 208.373 47.0849 204.802ZM-34.7427 172.578C-38.3134 169.007 -44.0879 168.988 -47.6785 172.578C-51.2492 176.149 -51.2492 181.943 -47.6785 185.514C-44.1078 189.085 -38.3134 189.085 -34.7427 185.514C-31.152 181.923 -31.172 176.153 -34.7427 172.578ZM-15.2592 192.066C-18.8299 188.495 -24.6044 188.475 -28.195 192.066C-31.7657 195.636 -31.7657 201.431 -28.195 205.002C-24.6243 208.572 -18.8299 208.572 -15.2592 205.002C-11.6685 201.411 -11.6885 195.636 -15.2592 192.066ZM4.04902 211.37C0.478307 207.799 -5.29624 207.779 -8.88688 211.37C-12.4576 214.941 -12.4576 220.735 -8.88688 224.306C-5.31617 227.876 0.478307 227.876 4.04902 224.306C7.63966 220.715 7.61973 214.941 4.04902 211.37ZM22.2812 229.602C18.7105 226.031 12.9359 226.011 9.34528 229.602C5.77457 233.173 5.77457 238.967 9.34528 242.538C12.916 246.109 18.7105 246.109 22.2812 242.538C25.8718 238.947 25.8519 233.177 22.2812 229.602Z" fill="white"/>
<path d="M-3.13631 167.481C0.434402 163.91 6.20893 163.93 9.77964 167.501C13.3504 171.072 13.3703 176.846 9.79954 180.417C6.22883 183.988 0.414456 184.008 -3.15626 180.437C-6.72697 176.866 -6.70703 171.052 -3.13631 167.481Z" fill="#009245"/>
<path d="M16.1917 186.805C19.7624 183.234 25.517 183.234 29.0877 186.805C32.6584 190.376 32.6983 196.17 29.1276 199.741C25.5569 203.312 19.7226 203.312 16.1519 199.741C12.5812 196.17 12.617 190.376 16.1917 186.805Z" fill="#009245"/>
<path d="M34.1648 204.782C37.7355 201.212 43.5101 201.232 47.0808 204.802C50.6515 208.373 50.6714 214.147 47.1007 217.718C43.53 221.289 37.7156 221.309 34.1449 217.738C30.5742 214.167 30.5941 208.353 34.1648 204.782Z" fill="#009245"/>
<path d="M-2.41899 226.984C2.63219 226.984 6.72701 222.889 6.72701 217.838C6.72701 212.787 2.63219 208.692 -2.41899 208.692C-7.47017 208.692 -11.5649 212.787 -11.5649 217.838C-11.5649 222.889 -7.47017 226.984 -2.41899 226.984Z" fill="#009245"/>
<path d="M15.8132 245.216C20.8644 245.216 24.9592 241.121 24.9592 236.07C24.9592 231.019 20.8644 226.924 15.8132 226.924C10.762 226.924 6.66724 231.019 6.66724 236.07C6.66724 241.121 10.762 245.216 15.8132 245.216Z" fill="#009245"/>
<path d="M18.005 262.476C16.4986 262.476 15.0839 261.894 14.0238 260.834L-65.9745 180.839C-67.0386 179.771 -67.6244 178.349 -67.6244 176.826C-67.6244 175.308 -67.0386 173.881 -65.9745 172.817L-22.6238 129.463C-20.412 127.255 -16.8134 127.255 -14.6057 129.463L65.3927 209.461C66.4567 210.529 67.0386 211.948 67.0346 213.466C67.0306 214.976 66.4408 216.399 65.3728 217.463L22.0221 260.814C20.958 261.878 19.5393 262.468 18.0249 262.476C18.021 262.476 18.013 262.476 18.005 262.476ZM-18.6107 129.323C-19.6748 129.323 -20.7349 129.726 -21.5438 130.535L-64.8945 173.889C-65.6716 174.666 -66.102 175.706 -66.102 176.822C-66.102 177.938 -65.6716 178.978 -64.8945 179.759L15.1038 259.754C15.8769 260.527 16.9051 260.949 18.009 260.949C18.013 260.949 18.021 260.949 18.0249 260.949C19.1328 260.945 20.1729 260.515 20.954 259.734L64.3047 216.379C65.0858 215.602 65.5162 214.562 65.5202 213.454C65.5242 212.346 65.0978 211.31 64.3247 210.533L47.2203 193.433L-15.6776 130.535C-16.4866 129.73 -17.5467 129.323 -18.6107 129.323Z" fill="#363A38"/>
<path d="M37.1817 233.4C36.9864 233.4 36.7911 233.328 36.6437 233.177L-38.3174 158.216C-38.6123 157.921 -38.6123 157.434 -38.3174 157.14C-38.0225 156.845 -37.5403 156.845 -37.2414 157.14L37.7197 232.101C38.0146 232.396 38.0146 232.882 37.7197 233.177C37.5722 233.324 37.377 233.4 37.1817 233.4Z" fill="#363A38"/>
<path d="M-2.41903 227.741C-4.95758 227.741 -7.49214 226.776 -9.42494 224.844C-13.2866 220.982 -13.2866 214.693 -9.42494 210.832C-7.54793 208.951 -5.0054 207.867 -2.41105 207.923C0.227132 207.927 2.7139 208.959 4.58693 210.832V210.836C8.44856 214.697 8.44856 220.986 4.58693 224.844C2.65412 226.772 0.11554 227.741 -2.41903 227.741ZM-2.42297 209.441C-4.65865 209.441 -6.76282 210.318 -8.35291 211.904C-11.6207 215.176 -11.6207 220.496 -8.35291 223.768C-5.08507 227.032 0.239081 227.036 3.51091 223.764C6.77875 220.496 6.77875 215.172 3.51091 211.904C1.92481 210.318 -0.179359 209.441 -2.41504 209.437C-2.41903 209.441 -2.41898 209.441 -2.42297 209.441Z" fill="#363A38"/>
<path d="M15.8131 245.977C13.167 245.977 10.6803 244.945 8.80722 243.076C6.93419 241.207 5.90601 238.716 5.90601 236.07C5.90601 233.424 6.93419 230.933 8.80722 229.064C10.6842 227.187 13.171 226.155 15.8092 226.155C15.8132 226.155 15.8171 226.155 15.8211 226.155C18.4593 226.159 20.9461 227.191 22.8191 229.064C24.6921 230.937 25.7243 233.424 25.7282 236.062C25.7322 238.704 24.7001 241.199 22.8191 243.076C20.9501 244.949 18.4593 245.977 15.8131 245.977ZM15.8092 227.677C13.5735 227.677 11.4693 228.554 9.87926 230.144C8.29715 231.726 7.42438 233.834 7.42438 236.074C7.42438 238.314 8.29715 240.422 9.87926 242.004C11.4654 243.59 13.5695 244.463 15.8092 244.463C18.0489 244.463 20.157 243.59 21.7391 242.008C23.3292 240.418 24.2059 238.31 24.2019 236.07C24.198 233.834 23.3252 231.73 21.7391 230.148C20.153 228.562 18.0488 227.689 15.8131 227.685C15.8171 227.677 15.8132 227.677 15.8092 227.677Z" fill="#363A38"/>
<path d="M40.6049 221.169C37.9587 221.169 35.476 220.141 33.6109 218.276C31.7419 216.407 30.7137 213.916 30.7177 211.262C30.7216 208.612 31.7578 206.117 33.6269 204.248C37.4765 200.395 43.7532 200.407 47.6188 204.264C51.4804 208.126 51.4924 214.407 47.6387 218.256C45.7657 220.125 43.2789 221.161 40.6248 221.165C40.6208 221.169 40.6129 221.169 40.6049 221.169ZM40.6049 202.881C38.4649 202.881 36.3288 203.694 34.7028 205.32C33.1167 206.906 32.24 209.015 32.236 211.262C32.2321 213.51 33.1008 215.618 34.6829 217.2C36.2611 218.778 38.3612 219.647 40.6049 219.647C40.6129 219.647 40.6168 219.647 40.6248 219.647C42.8724 219.643 44.9806 218.766 46.5667 217.18C49.8266 213.92 49.8186 208.608 46.5468 205.336C44.9049 203.702 42.7569 202.881 40.6049 202.881Z" fill="#363A38"/>
<path d="M15.8131 241.633C15.3947 241.633 15.052 241.294 15.052 240.872V231.232C15.052 230.813 15.3907 230.471 15.8131 230.471C16.2316 230.471 16.5743 230.809 16.5743 231.232V240.872C16.5743 241.29 16.2316 241.633 15.8131 241.633Z" fill="#363A38"/>
<path d="M40.6169 216.833C40.1985 216.833 39.8557 216.495 39.8557 216.072V206.428C39.8557 206.01 40.1945 205.667 40.6169 205.667C41.0353 205.667 41.378 206.006 41.378 206.428V216.072C41.374 216.491 41.0353 216.833 40.6169 216.833Z" fill="#363A38"/>
<path d="M22.6397 203.184C20.0932 203.184 17.5507 202.216 15.6139 200.279C11.7642 196.425 11.7802 190.141 15.6538 186.267C17.5228 184.394 20.0055 183.362 22.6397 183.362C25.2739 183.362 27.7527 184.394 29.6257 186.263C33.4993 190.137 33.5153 196.421 29.6656 200.271C27.7288 202.216 25.1823 203.184 22.6397 203.184ZM22.6397 184.884C20.412 184.884 18.3118 185.757 16.7297 187.339C13.4499 190.623 13.43 195.943 16.6899 199.203C19.9697 202.479 25.3098 202.483 28.5936 199.203C31.8535 195.947 31.8335 190.623 28.5538 187.343C26.9677 185.757 24.8674 184.884 22.6397 184.884Z" fill="#363A38"/>
<path d="M22.835 198.657C22.4166 198.657 22.0739 198.318 22.0739 197.896V188.256C22.0739 187.837 22.4126 187.495 22.835 187.495C23.2575 187.495 23.5962 187.833 23.5962 188.256V197.896C23.5962 198.314 23.2575 198.657 22.835 198.657Z" fill="#363A38"/>
<path d="M58.2751 210.087C58.0798 210.087 57.8846 210.015 57.7371 209.863L-4.78224 147.344C-5.07714 147.049 -5.07714 146.563 -4.78224 146.268C-4.48734 145.973 -4.00515 145.973 -3.70626 146.268L58.8131 208.787C59.108 209.082 59.108 209.568 58.8131 209.863C58.6617 210.011 58.4664 210.087 58.2751 210.087Z" fill="#363A38"/>
<path d="M3.30377 183.864C0.769198 183.864 -1.76539 182.9 -3.69422 180.975C-7.55585 177.113 -7.54786 170.817 -3.67427 166.943C-1.80921 165.078 0.665584 164.05 3.30377 164.05C3.31174 164.05 3.31569 164.05 3.32366 164.05C5.96185 164.054 8.44463 165.09 10.3177 166.959V166.963C14.1793 170.825 14.1872 177.101 10.3376 180.951C8.39678 182.896 5.85029 183.864 3.30377 183.864ZM3.30377 165.572C1.07606 165.572 -1.02017 166.441 -2.5983 168.019C-5.87809 171.303 -5.88608 176.631 -2.61824 179.903C0.653585 183.171 5.98577 183.163 9.26557 179.883C12.5254 176.627 12.5135 171.311 9.24562 168.043C7.65953 166.457 5.55536 165.58 3.32366 165.576C3.31569 165.572 3.30775 165.572 3.30377 165.572Z" fill="#363A38"/>
<path d="M3.53083 179.349C3.11239 179.349 2.76965 179.01 2.76965 178.588V168.948C2.76965 168.529 3.10841 168.186 3.53083 168.186C3.95326 168.186 4.29202 168.525 4.29202 168.948V178.588C4.29202 179.01 3.94928 179.349 3.53083 179.349Z" fill="#363A38"/>
</g>
<mask id="mask11_401_2222" style="mask-type:luminance" maskUnits="userSpaceOnUse" x="0" y="-335" width="431" height="766">
<path d="M430.036 -334.16H0V430.347H430.036V-334.16Z" fill="white"/>
</mask>
<g mask="url(#mask11_401_2222)">
<path d="M435.567 122.891L426.716 114.04L419.595 121.161L412.533 114.1L435.332 91.3006C437.157 89.4754 440.115 89.4555 441.94 91.2807L499.617 148.958C501.422 150.763 501.422 153.74 499.597 155.565L424.576 230.586C422.771 232.392 419.814 232.372 418.009 230.566L360.331 172.889C358.506 171.064 358.506 168.127 360.311 166.321L383.131 143.502L390.192 150.564L383.071 157.686L391.922 166.537L435.567 122.891ZM488.941 152.298L451.899 115.255L423.11 144.044L384.282 182.872L421.324 219.914L450.133 191.105L488.941 152.298Z" fill="white"/>
<path d="M451.898 115.251L488.941 152.298L450.133 191.105L445.67 186.642L455.688 176.619L446.642 167.573L455.668 158.546L445.67 148.548L436.639 157.574L427.613 148.548L423.11 144.04L451.898 115.251Z" fill="#009245"/>
<path d="M412.533 114.1L419.599 121.165L390.192 150.568L383.13 143.506L380.548 140.928L409.955 111.521L412.533 114.1Z" fill="#009245"/>
<path d="M445.67 148.548L455.669 158.546L446.642 167.573L455.689 176.619L445.67 186.642L436.62 177.591L427.593 186.622L417.594 176.619L426.621 167.593L417.594 158.566L427.613 148.548L436.639 157.574L445.67 148.548Z" fill="white"/>
<path d="M423.11 144.04L427.613 148.548L417.594 158.566L426.621 167.593L417.594 176.619L427.593 186.622L436.62 177.591L445.67 186.642L450.133 191.105L421.324 219.914L384.278 182.872L423.11 144.04Z" fill="#009245"/>
<path d="M391.918 167.302C391.723 167.302 391.527 167.23 391.38 167.079L382.529 158.228C382.234 157.933 382.234 157.446 382.529 157.152L389.65 150.03C389.945 149.735 390.427 149.735 390.726 150.03C391.021 150.325 391.021 150.811 390.726 151.106L384.143 157.69L392.456 166.003C392.751 166.298 392.751 166.784 392.456 167.079C392.308 167.23 392.113 167.302 391.918 167.302Z" fill="#363A38"/>
<path d="M435.567 123.652C435.372 123.652 435.177 123.58 435.029 123.429L426.716 115.116L420.129 121.703C419.834 121.998 419.352 121.998 419.053 121.703C418.754 121.409 418.758 120.922 419.053 120.627L426.178 113.506C426.473 113.211 426.955 113.211 427.254 113.506L436.105 122.353C436.4 122.648 436.4 123.134 436.105 123.429C435.958 123.576 435.763 123.652 435.567 123.652Z" fill="#363A38"/>
<path d="M421.312 232.698C419.926 232.698 418.535 232.168 417.475 231.108L359.797 173.431C357.685 171.319 357.677 167.892 359.777 165.787L382.597 142.968C382.891 142.673 383.374 142.673 383.673 142.968C383.971 143.263 383.967 143.749 383.673 144.044L360.853 166.859C359.343 168.366 359.355 170.833 360.873 172.351L418.551 230.028C420.073 231.551 422.536 231.559 424.042 230.048L499.059 155.027C499.8 154.286 500.211 153.298 500.211 152.246C500.211 151.202 499.808 150.225 499.079 149.5L441.402 91.8227C439.883 90.3003 437.397 90.3083 435.87 91.8426L413.071 114.642C412.776 114.937 412.294 114.937 411.995 114.642C411.696 114.347 411.7 113.861 411.995 113.566L434.794 90.7666C436.918 88.6465 440.366 88.6385 442.478 90.7466L500.155 148.424C501.171 149.44 501.729 150.795 501.729 152.246C501.729 153.704 501.159 155.075 500.131 156.103L425.114 231.124C424.066 232.176 422.691 232.698 421.312 232.698Z" fill="#363A38"/>
<path d="M382.533 176.687C382.338 176.687 382.142 176.615 381.995 176.464C381.7 176.169 381.7 175.683 381.995 175.388L444.415 112.968C444.709 112.673 445.192 112.673 445.491 112.968C445.789 113.263 445.785 113.749 445.491 114.044L383.071 176.464C382.923 176.615 382.728 176.687 382.533 176.687Z" fill="#363A38"/>
<path d="M390.192 151.329C389.997 151.329 389.802 151.257 389.654 151.106L382.593 144.044V144.04L380.014 141.458C379.719 141.163 379.719 140.681 380.014 140.382L409.417 110.979C409.56 110.836 409.751 110.756 409.955 110.756C410.158 110.756 410.349 110.836 410.493 110.979L420.137 120.619C420.432 120.914 420.432 121.401 420.137 121.695L390.734 151.098C390.583 151.257 390.388 151.329 390.192 151.329ZM383.665 142.968L390.192 149.496L418.523 121.165L409.955 112.597L381.624 140.928L383.665 142.968Z" fill="#363A38"/>
<path d="M421.324 220.675C421.121 220.675 420.93 220.595 420.786 220.452L383.744 183.41C383.449 183.115 383.449 182.629 383.744 182.334L422.576 143.502L451.365 114.713C451.659 114.418 452.142 114.418 452.441 114.713L489.487 151.756C489.63 151.899 489.71 152.09 489.71 152.294C489.71 152.497 489.63 152.688 489.487 152.832L421.866 220.452C421.719 220.595 421.524 220.675 421.324 220.675ZM385.354 182.872L421.324 218.842L487.869 152.298L451.899 116.327L385.354 182.872Z" fill="#363A38"/>
<path d="M445.67 187.403C445.467 187.403 445.275 187.323 445.132 187.18L436.624 178.667L428.131 187.16C427.836 187.455 427.354 187.455 427.055 187.16L417.056 177.161C416.761 176.866 416.761 176.38 417.056 176.085L425.549 167.597L417.056 159.108C416.761 158.813 416.761 158.327 417.056 158.032L427.075 148.014C427.37 147.719 427.852 147.719 428.151 148.014L436.643 156.506L445.132 148.014C445.419 147.727 445.921 147.727 446.208 148.014L456.207 158.012C456.506 158.307 456.506 158.793 456.207 159.088L447.718 167.577L456.227 176.085C456.522 176.38 456.522 176.866 456.227 177.161L446.208 187.18C446.064 187.323 445.869 187.403 445.67 187.403ZM436.62 176.834C436.823 176.834 437.014 176.914 437.158 177.057L445.666 185.57L454.613 176.623L446.104 168.115C445.809 167.82 445.809 167.334 446.104 167.039L454.593 158.55L445.666 149.623L437.178 158.116C436.891 158.403 436.388 158.403 436.102 158.116L427.609 149.623L418.662 158.57L427.155 167.059C427.45 167.354 427.45 167.84 427.155 168.135L418.662 176.623L427.589 185.55L436.082 177.057C436.225 176.914 436.42 176.834 436.62 176.834Z" fill="#363A38"/>
<path d="M422.038 213.809C421.843 213.809 421.647 213.737 421.5 213.586L392.097 184.183C391.802 183.888 391.802 183.402 392.097 183.107C392.392 182.812 392.874 182.812 393.173 183.107L422.576 212.51C422.875 212.804 422.875 213.291 422.576 213.586C422.428 213.737 422.233 213.809 422.038 213.809Z" fill="#363A38"/>
<path d="M424.397 210.098C424.202 210.098 424.006 210.027 423.859 209.875L416.598 202.614C416.303 202.319 416.303 201.833 416.598 201.538C416.893 201.247 417.375 201.243 417.674 201.538L424.935 208.799C425.23 209.094 425.23 209.58 424.935 209.875C424.787 210.023 424.592 210.098 424.397 210.098Z" fill="#363A38"/>
</g>
<mask id="mask12_401_2222" style="mask-type:luminance" maskUnits="userSpaceOnUse" x="0" y="-335" width="431" height="766">
<path d="M430.036 -334.16H0V430.347H430.036V-334.16Z" fill="white"/>
</mask>
<g mask="url(#mask12_401_2222)">
<path d="M261.854 55.1909L292.428 85.7652C293.301 86.6379 294.034 87.6103 294.592 88.6823L289.969 91.3604L277.352 78.7433L272.45 81.501C271.478 78.2292 269.712 75.1526 267.154 72.5942C258.921 64.3608 245.546 64.3608 237.313 72.5942C229.08 80.8275 229.08 94.2018 237.313 102.435C238.345 103.467 239.437 104.36 240.605 105.133L238.6 109.162L235.269 112.494L219.91 97.1349C217.192 94.417 215.446 90.8861 214.948 87.0962L214.55 84.2389C214.291 82.3539 213.717 80.5087 212.884 78.8031C212.031 77.1173 210.919 75.5671 209.572 74.2201L238.939 44.8534C240.29 46.2044 241.836 47.3122 243.542 48.1451C245.228 48.998 247.073 49.5718 248.978 49.8109L251.835 50.2095C255.601 50.7236 259.136 52.4691 261.854 55.1909Z" fill="white"/>
<path d="M238.6 109.158L240.605 105.129C248.798 110.545 259.949 109.632 267.154 102.431C272.809 96.7762 274.594 88.6823 272.45 81.497L277.352 78.7393L289.969 91.3564L294.592 88.6783C295.544 90.4637 296.058 92.4483 296.058 94.5126C296.058 96.1784 295.72 97.7844 295.126 99.2549C294.512 100.741 293.58 102.112 292.428 103.264L268.003 127.689C266.831 128.861 265.484 129.773 263.994 130.387C262.507 131.001 260.897 131.34 259.231 131.34C255.959 131.32 252.803 130.028 250.48 127.709L235.26 112.49L238.6 109.158Z" fill="white"/>
<path d="M229.928 26.2785L235.484 31.8338L230.941 36.3769L225.744 41.5736L216.04 31.8697L221.635 26.2745C223.915 23.999 227.625 23.9791 229.928 26.2785Z" fill="#009245"/>
<path d="M235.723 37.6681L240.919 42.8688L238.935 44.8534L209.572 74.2161L207.647 76.1409L202.447 70.9443L204.136 69.2546L233.977 39.4136L235.723 37.6681Z" fill="white"/>
<path d="M230.941 36.3809L233.977 39.4136L204.136 69.2546L201.1 66.2219L206.316 61.0013L216.06 51.2616L225.74 41.5776L230.941 36.3809Z" fill="white"/>
<path d="M267.15 72.5902C269.709 75.1486 271.474 78.2252 272.446 81.497C274.59 88.6783 272.805 96.7762 267.15 102.431C259.949 109.632 248.798 110.545 240.601 105.129C239.429 104.356 238.337 103.463 237.309 102.431C229.076 94.1978 229.076 80.8235 237.309 72.5902C245.542 64.3568 258.917 64.3568 267.15 72.5902ZM264.552 81.6564L258.084 75.1885L252.23 81.0427L246.395 75.2084L239.927 81.6763L245.762 87.5106L239.927 93.3449L246.395 99.8129L252.23 93.9786L258.084 99.8328L264.552 93.3649L258.697 87.5106L264.552 81.6564Z" fill="white"/>
<path d="M216.031 31.8786L206.348 41.561L216.05 51.2631L225.733 41.5807L216.031 31.8786Z" fill="#009245"/>
<path d="M258.084 75.1885L264.552 81.6565L258.697 87.5107L264.552 93.3649L258.084 99.8328L252.229 93.9786L246.395 99.8129L239.927 93.345L245.761 87.5107L239.927 81.6764L246.395 75.2084L252.229 81.0427L258.084 75.1885Z" fill="#009245"/>
<path d="M206.349 41.5589L196.608 51.3004L206.31 61.0025L216.052 51.261L206.349 41.5589Z" fill="#009245"/>
<path d="M196.616 51.3014L206.32 61.0053L201.104 66.2218L196.561 70.7649L191.005 65.2096C188.702 62.9062 188.722 59.196 191.025 56.8966L196.616 51.3014Z" fill="#009245"/>
<path d="M252.19 109.361C248.021 109.361 243.837 108.182 240.182 105.763C238.959 104.954 237.843 104.041 236.771 102.969C232.646 98.8445 230.371 93.3529 230.371 87.5106C230.371 81.6684 232.642 76.1768 236.771 72.0522C240.896 67.9275 246.387 65.656 252.23 65.656C258.072 65.656 263.563 67.9315 267.688 72.0522C270.246 74.6107 272.143 77.8028 273.176 81.2818C275.471 88.9772 273.367 97.2863 267.688 102.969C263.476 107.185 257.849 109.361 252.19 109.361ZM252.23 67.1743C246.794 67.1743 241.685 69.2905 237.847 73.1282C234.009 76.9659 231.893 82.0749 231.893 87.5106C231.893 92.9464 234.009 98.0554 237.847 101.893C238.847 102.889 239.883 103.742 241.023 104.495C249.045 109.796 259.805 108.704 266.612 101.893C271.896 96.6088 273.857 88.8736 271.717 81.7162C270.757 78.4763 268.991 75.5073 266.612 73.1282C262.774 69.2905 257.665 67.1743 252.23 67.1743Z" fill="#363A38"/>
<path d="M258.084 100.59C257.888 100.59 257.693 100.518 257.546 100.367L252.229 95.0506L246.933 100.347C246.638 100.642 246.156 100.642 245.857 100.347L239.389 93.879C239.094 93.5841 239.094 93.0979 239.389 92.803L244.685 87.5067L239.389 82.2144C239.246 82.0709 239.166 81.8796 239.166 81.6764C239.166 81.4731 239.246 81.2818 239.389 81.1384L245.857 74.6704C246.144 74.3835 246.646 74.3835 246.933 74.6704L252.229 79.9668L257.546 74.6505C257.833 74.3636 258.335 74.3636 258.622 74.6505L265.09 81.1185C265.233 81.2619 265.313 81.4532 265.313 81.6565C265.313 81.8597 265.233 82.051 265.09 82.1945L259.773 87.5067L265.09 92.8229C265.384 93.1178 265.384 93.604 265.09 93.8989L258.622 100.367C258.47 100.518 258.279 100.59 258.084 100.59ZM252.229 93.2214C252.425 93.2214 252.62 93.2931 252.767 93.4446L258.084 98.7608L263.476 93.3689L258.159 88.0526C258.016 87.9092 257.936 87.7179 257.936 87.5146C257.936 87.3114 258.016 87.1201 258.159 86.9767L263.476 81.6644L258.084 76.2685L252.767 81.5847C252.48 81.8716 251.978 81.8716 251.691 81.5847L246.395 76.2884L241.003 81.6843L246.299 86.9767C246.443 87.1201 246.523 87.3114 246.523 87.5146C246.523 87.7179 246.443 87.9092 246.299 88.0526L241.003 93.3489L246.395 98.7409L251.691 93.4446C251.843 93.2931 252.034 93.2214 252.229 93.2214Z" fill="#363A38"/>
<path d="M196.557 71.5221C196.361 71.5221 196.166 71.4504 196.019 71.299L190.463 65.7436C189.208 64.4883 188.518 62.8185 188.526 61.0451C188.53 59.2797 189.228 57.6099 190.483 56.3546L221.097 25.7405C223.68 23.1581 227.884 23.1581 230.466 25.7405L236.022 31.2958C236.317 31.5907 236.317 32.0769 236.022 32.3718L231.479 36.9189C231.184 37.2098 230.702 37.2138 230.403 36.9189C230.108 36.624 230.108 36.1378 230.403 35.8429L234.408 31.8338L229.39 26.8165C227.398 24.8239 224.162 24.8239 222.169 26.8165L191.555 57.4306C190.583 58.399 190.045 59.6862 190.041 61.0531C190.037 62.416 190.567 63.6993 191.535 64.6676L196.553 69.685L200.558 65.6799C200.857 65.385 201.335 65.385 201.634 65.6839C201.929 65.9788 201.929 66.461 201.634 66.7599L197.091 71.3029C196.943 71.4504 196.748 71.5221 196.557 71.5221Z" fill="#363A38"/>
<path d="M207.647 76.9021C207.452 76.9021 207.257 76.8304 207.109 76.6789L201.913 71.4823C201.618 71.1874 201.618 70.7052 201.913 70.4063L203.598 68.7166C203.893 68.4217 204.375 68.4177 204.674 68.7126C204.969 69.0075 204.969 69.4897 204.674 69.7886L203.527 70.9403L207.651 75.0609L209.038 73.6741C209.333 73.3792 209.815 73.3792 210.114 73.6741C210.409 73.969 210.409 74.4512 210.114 74.7501L208.189 76.675C208.034 76.8264 207.839 76.9021 207.647 76.9021Z" fill="#363A38"/>
<path d="M238.935 45.6106C238.74 45.6106 238.544 45.5389 238.397 45.3874C238.102 45.0925 238.102 44.6103 238.397 44.3114L239.843 42.8608L235.719 38.7402L234.511 39.9477C234.212 40.2426 233.734 40.2426 233.435 39.9437C233.14 39.6488 233.14 39.1666 233.435 38.8677L235.181 37.1222C235.48 36.8273 235.958 36.8273 236.257 37.1222L241.453 42.3189C241.748 42.6138 241.748 43.096 241.453 43.3949L239.469 45.3795C239.325 45.5349 239.13 45.6106 238.935 45.6106Z" fill="#363A38"/>
<path d="M259.235 132.101C255.709 132.081 252.413 130.71 249.946 128.247L219.372 97.6728C216.546 94.8473 214.709 91.1252 214.195 87.1958L213.8 84.3424C213.557 82.5531 213.019 80.8036 212.202 79.1338C211.381 77.5078 210.313 76.0333 209.034 74.7541C208.891 74.6106 208.811 74.4193 208.811 74.2161C208.811 74.0129 208.891 73.8216 209.034 73.6781L238.401 44.3114C238.696 44.0165 239.178 44.0165 239.477 44.3114C240.772 45.6066 242.251 46.6666 243.877 47.4597C245.53 48.2965 247.276 48.8306 249.073 49.0537L251.943 49.4522C255.868 49.9863 259.578 51.8314 262.396 54.6449L292.97 85.2192C293.922 86.1716 294.695 87.2157 295.269 88.3236C296.298 90.2524 296.824 92.3367 296.824 94.5046C296.824 96.2262 296.493 97.9159 295.835 99.5299C295.19 101.088 294.201 102.559 292.97 103.79L268.545 128.215C267.297 129.463 265.867 130.427 264.289 131.081C262.667 131.758 260.965 132.101 259.235 132.101ZM210.636 74.2281C211.796 75.4874 212.78 76.9061 213.565 78.4563C214.454 80.2776 215.04 82.1865 215.307 84.1312L215.705 86.9886C216.176 90.5952 217.861 94.0065 220.452 96.5968L251.026 127.167C253.206 129.347 256.123 130.558 259.243 130.578C260.77 130.578 262.276 130.28 263.711 129.686C265.102 129.112 266.365 128.259 267.473 127.151L291.898 102.726C292.99 101.634 293.867 100.335 294.432 98.964C295.01 97.5333 295.305 96.0389 295.305 94.5126C295.305 92.5957 294.843 90.7506 293.926 89.037C293.42 88.0606 292.739 87.14 291.898 86.2992L261.324 55.7249C258.741 53.1425 255.338 51.4528 251.739 50.9587L248.878 50.5601C246.917 50.317 245.004 49.7312 243.203 48.8186C241.661 48.0654 240.234 47.0851 238.955 45.9094L210.636 74.2281Z" fill="#363A38"/>
<path d="M206.316 61.7625C206.121 61.7625 205.926 61.6907 205.778 61.5393L196.074 51.8354C195.78 51.5405 195.78 51.0543 196.074 50.7594C196.369 50.4645 196.852 50.4645 197.15 50.7594L206.854 60.4633C207.149 60.7582 207.149 61.2444 206.854 61.5393C206.707 61.6907 206.512 61.7625 206.316 61.7625Z" fill="#363A38"/>
<path d="M216.06 52.0187C215.865 52.0187 215.669 51.947 215.522 51.7956L205.818 42.0957C205.523 41.8008 205.523 41.3146 205.818 41.0197C206.113 40.7248 206.595 40.7248 206.894 41.0197L216.598 50.7196C216.893 51.0145 216.893 51.5007 216.598 51.7956C216.447 51.947 216.255 52.0187 216.06 52.0187Z" fill="#363A38"/>
<path d="M225.74 42.3387C225.545 42.3387 225.349 42.267 225.202 42.1156L215.498 32.4117C215.203 32.1168 215.203 31.6306 215.498 31.3357C215.793 31.0408 216.275 31.0408 216.574 31.3357L226.278 41.0396C226.573 41.3345 226.573 41.8207 226.278 42.1156C226.13 42.267 225.935 42.3387 225.74 42.3387Z" fill="#363A38"/>
<path d="M204.136 70.0158C203.941 70.0158 203.746 69.944 203.598 69.7926L200.562 66.7599C200.418 66.6164 200.338 66.4251 200.338 66.2219C200.338 66.0186 200.418 65.8274 200.562 65.6839L230.403 35.8429C230.546 35.6995 230.737 35.6198 230.941 35.6198C231.144 35.6198 231.335 35.6995 231.479 35.8429L234.515 38.8796C234.81 39.1745 234.81 39.6567 234.515 39.9556L204.674 69.7966C204.523 69.944 204.328 70.0158 204.136 70.0158ZM202.172 66.2219L204.132 68.1826L232.897 39.4176L230.937 37.4569L202.172 66.2219Z" fill="#363A38"/>
<path d="M225.644 97.8363C225.473 97.8363 225.302 97.7804 225.158 97.6609C220.081 93.4565 217.674 86.3311 219.168 79.9388C219.264 79.5284 219.671 79.2733 220.081 79.369C220.491 79.4646 220.743 79.8751 220.647 80.2816C219.28 86.1278 221.48 92.6436 226.127 96.4893C226.449 96.7603 226.493 97.2385 226.226 97.5613C226.079 97.7406 225.859 97.8363 225.644 97.8363Z" fill="#363A38"/>
<path d="M253.122 124.441C252.927 124.441 252.731 124.369 252.584 124.218L238.058 109.692C237.763 109.397 237.763 108.911 238.058 108.616C238.353 108.321 238.835 108.321 239.134 108.616L253.66 123.142C253.955 123.437 253.955 123.923 253.66 124.218C253.513 124.365 253.317 124.441 253.122 124.441Z" fill="#363A38"/>
<path d="M289.969 92.1175C289.774 92.1175 289.579 92.0458 289.431 91.8943L276.81 79.2773C276.515 78.9824 276.515 78.4962 276.81 78.2013C277.105 77.9064 277.587 77.9064 277.886 78.2013L290.507 90.8183C290.802 91.1132 290.802 91.5994 290.507 91.8943C290.356 92.0458 290.164 92.1175 289.969 92.1175Z" fill="#363A38"/>
</g>
<mask id="mask13_401_2222" style="mask-type:luminance" maskUnits="userSpaceOnUse" x="0" y="-335" width="431" height="766">
<path d="M430.036 -334.16H0V430.347H430.036V-334.16Z" fill="white"/>
</mask>
<g mask="url(#mask13_401_2222)">
<path d="M128.478 144.965L133.519 139.924L137.743 135.699C138.955 134.488 140.561 133.874 142.147 133.874C143.733 133.874 145.323 134.468 146.531 135.679L137.899 144.311L132.897 149.313L127.896 154.314L119.264 162.946C116.845 160.527 116.845 156.598 119.284 154.155L123.508 149.93L128.478 144.965Z" fill="white"/>
<path d="M149.073 155.478L157.705 146.846C160.124 149.265 160.144 153.214 157.705 155.657L139.254 174.069C138.022 175.3 136.456 175.914 134.87 175.914C133.284 175.914 131.654 175.32 130.447 174.108L139.078 165.477L144.1 160.455L149.073 155.478Z" fill="white"/>
<path d="M79.3129 75.5193L138.616 134.827L137.744 135.699L133.519 139.924L116.096 122.504L118.479 120.121L114.51 116.156L79.3129 80.9551L64.5478 95.7161L99.7489 130.917L103.718 134.882L106.097 132.503L123.516 149.922L119.292 154.151L118.419 155.023L59.1121 95.7161L60.483 94.3492L77.8225 77.0057L79.3129 75.5193Z" fill="white"/>
<path d="M72.7055 71.8888L77.8225 77.0057L60.483 94.3492L55.3621 89.2283L60.5029 84.0914L60.5228 84.1113L66.9111 77.7231L66.8911 77.7031L72.7055 71.8888Z" fill="white"/>
<path d="M114.51 116.156L118.479 120.121L116.096 122.504L110.999 127.562L106.077 132.483L106.097 132.503L103.718 134.882L99.7488 130.917L114.51 116.156Z" fill="white"/>
<path d="M79.3043 80.9569L64.5413 95.72L99.7398 130.919L114.503 116.155L79.3043 80.9569Z" fill="#009245"/>
<path d="M132.901 149.309L137.903 144.307L149.073 155.478L144.092 160.459L139.075 165.481L127.904 154.31L132.901 149.309Z" fill="white"/>
<path d="M116.096 122.504L133.519 139.924L128.478 144.965L111.019 127.582L116.096 122.504Z" fill="white"/>
<path d="M116.096 122.504L111.019 127.582L110.999 127.562L116.096 122.504Z" fill="white"/>
<path d="M66.8821 77.7037L60.4939 84.0918L60.5136 84.1116L66.9018 77.7234L66.8821 77.7037Z" fill="white"/>
<path d="M59.4708 70.2828L66.8911 77.7032L60.5029 84.0914L53.0825 76.671L56.2746 73.4749L59.4708 70.2828Z" fill="white"/>
<path d="M111.019 127.582L128.478 144.965L123.516 149.922L106.097 132.503L111.019 127.582Z" fill="white"/>
<path d="M110.992 127.565L106.072 132.485L106.091 132.504L111.012 127.584L110.992 127.565Z" fill="white"/>
<path d="M118.419 155.781C118.224 155.781 118.029 155.709 117.881 155.557L58.574 96.2501C58.4305 96.1067 58.3508 95.9154 58.3508 95.7121C58.3508 95.5089 58.4305 95.3176 58.574 95.1741L59.9409 93.8072C60.2398 93.5123 60.718 93.5123 61.0169 93.8072C61.3118 94.1021 61.3118 94.5843 61.0169 94.8832L60.184 95.7121L118.415 153.943L118.75 153.609C119.045 153.314 119.527 153.314 119.826 153.609C120.121 153.904 120.121 154.39 119.826 154.685L118.953 155.557C118.806 155.709 118.615 155.781 118.419 155.781Z" fill="#363A38"/>
<path d="M137.744 136.457C137.548 136.457 137.353 136.385 137.206 136.233C136.911 135.938 136.911 135.452 137.206 135.157L137.54 134.823L79.3089 76.5913L78.3565 77.5437C78.0616 77.8386 77.5794 77.8386 77.2805 77.5437C76.9856 77.2488 76.9856 76.7627 77.2805 76.4678L78.767 74.9813C79.0619 74.6864 79.5441 74.6864 79.8429 74.9813L139.15 134.289C139.445 134.584 139.445 135.07 139.15 135.365L138.278 136.237C138.134 136.385 137.939 136.457 137.744 136.457Z" fill="#363A38"/>
<path d="M137.903 145.069C137.708 145.069 137.512 144.997 137.365 144.845C137.07 144.55 137.07 144.064 137.365 143.769L145.419 135.715C143.367 134.169 140.151 134.368 138.281 136.237L134.057 140.466C133.762 140.757 133.28 140.761 132.981 140.466C132.686 140.171 132.686 139.685 132.981 139.39L137.206 135.161C138.509 133.858 140.31 133.113 142.147 133.113C144.012 133.113 145.762 133.834 147.069 135.141C147.212 135.285 147.292 135.476 147.292 135.679C147.292 135.883 147.212 136.074 147.069 136.217L138.437 144.849C138.289 144.997 138.098 145.069 137.903 145.069Z" fill="#363A38"/>
<path d="M119.272 163.699C119.069 163.699 118.878 163.619 118.734 163.476C116.02 160.762 116.028 156.335 118.754 153.609L122.979 149.384C123.277 149.086 123.756 149.09 124.055 149.388C124.349 149.683 124.349 150.165 124.055 150.464L119.83 154.689C117.881 156.637 117.706 159.694 119.312 161.83L127.366 153.772C127.661 153.481 128.143 153.477 128.442 153.772C128.737 154.067 128.737 154.553 128.442 154.848L119.81 163.48C119.667 163.619 119.476 163.699 119.272 163.699Z" fill="#363A38"/>
<path d="M103.718 135.644C103.523 135.644 103.328 135.572 103.18 135.42L99.2109 131.451C98.916 131.156 98.916 130.67 99.2109 130.375C99.5058 130.08 99.9881 130.076 100.287 130.371L103.718 133.802L117.403 120.117L113.972 116.686C113.677 116.391 113.677 115.905 113.972 115.61C114.267 115.315 114.749 115.315 115.048 115.61L119.017 119.579C119.312 119.874 119.312 120.36 119.017 120.655L104.256 135.416C104.105 135.572 103.913 135.644 103.718 135.644Z" fill="#363A38"/>
<path d="M123.516 150.684C123.313 150.684 123.122 150.604 122.978 150.46L105.559 133.037C105.264 132.742 105.244 132.236 105.539 131.941L115.562 121.958C115.861 121.668 116.339 121.668 116.634 121.962L134.053 139.386C134.197 139.529 134.276 139.72 134.276 139.924C134.276 140.127 134.197 140.318 134.053 140.462L124.054 150.46C123.911 150.604 123.72 150.684 123.516 150.684ZM107.153 132.483L123.52 148.85L132.447 139.924L116.1 123.576L107.153 132.483Z" fill="#363A38"/>
<path d="M139.075 166.238C138.879 166.238 138.684 166.166 138.537 166.015L127.366 154.844C127.223 154.701 127.143 154.509 127.143 154.306C127.143 154.103 127.223 153.912 127.366 153.768L137.365 143.769C137.652 143.482 138.154 143.482 138.441 143.769L149.611 154.94C149.906 155.235 149.906 155.721 149.611 156.016C149.317 156.311 148.834 156.311 148.535 156.016L137.903 145.379L128.976 154.306L139.609 164.939C139.904 165.233 139.904 165.72 139.609 166.015C139.461 166.166 139.27 166.238 139.075 166.238Z" fill="#363A38"/>
<path d="M134.866 176.675C133.001 176.675 131.192 175.938 129.905 174.646C129.61 174.352 129.61 173.869 129.905 173.57L157.167 146.308C157.462 146.013 157.944 146.013 158.243 146.308C159.558 147.623 160.283 149.376 160.287 151.242C160.291 153.111 159.562 154.872 158.243 156.191L139.788 174.603C138.457 175.942 136.707 176.675 134.866 176.675ZM131.558 174.073C133.611 175.599 136.795 175.459 138.716 173.535L157.171 155.123C159.12 153.174 159.287 150.106 157.669 147.966L149.611 156.024L131.558 174.073Z" fill="#363A38"/>
<path d="M99.749 131.674C99.5537 131.674 99.3584 131.603 99.2109 131.451L64.0139 96.2541C63.719 95.9592 63.719 95.473 64.0139 95.1781L78.775 80.4171C79.0699 80.1222 79.5521 80.1222 79.851 80.4171L115.048 115.614C115.191 115.758 115.271 115.949 115.271 116.152C115.271 116.355 115.191 116.547 115.048 116.69L100.287 131.451C100.136 131.603 99.9442 131.674 99.749 131.674ZM65.6239 95.7161L99.749 129.841L113.438 116.156L79.313 82.031L65.6239 95.7161Z" fill="#363A38"/>
<path d="M60.483 95.1104C60.2797 95.1104 60.0884 95.0307 59.945 94.8872L54.828 89.7663C54.5331 89.4714 54.5331 88.9852 54.828 88.6903L72.1675 71.3508C72.4624 71.0559 72.9446 71.0559 73.2435 71.3508L78.3604 76.4678C78.5039 76.6112 78.5836 76.8025 78.5836 77.0057C78.5836 77.209 78.5039 77.4003 78.3604 77.5437L61.021 94.8872C60.8775 95.0307 60.6822 95.1104 60.483 95.1104ZM56.438 89.2283L60.483 93.2732L76.7504 77.0057L72.7055 72.9608L56.438 89.2283Z" fill="#363A38"/>
<path d="M60.5228 84.8685C60.3355 84.8685 60.1442 84.8007 59.9967 84.6573L52.5444 77.205C52.401 77.0616 52.3213 76.8703 52.3213 76.667C52.3213 76.4638 52.401 76.2725 52.5444 76.1291L58.9327 69.7408C59.2196 69.4499 59.7217 69.4539 60.0087 69.7368L67.449 77.1772C67.7439 77.4721 67.7439 77.9582 67.449 78.2531L61.0607 84.6414C60.9093 84.7968 60.718 84.8685 60.5228 84.8685ZM54.1545 76.671L60.5188 83.0353L65.835 77.7231L59.4707 71.3548L54.1545 76.671Z" fill="#363A38"/>
<path d="M56.2746 74.236C56.0793 74.236 55.8841 74.1643 55.7366 74.0128L25.1424 43.4187C24.8475 43.1238 24.8475 42.6376 25.1424 42.3427C25.4373 42.0478 25.9196 42.0478 26.2185 42.3427L56.8126 72.9369C57.1075 73.2318 57.1075 73.7179 56.8126 74.0128C56.6651 74.1643 56.4699 74.236 56.2746 74.236Z" fill="#363A38"/>
<path d="M127.98 145.543L110.481 128.124L111.533 127.024L129.016 144.423L127.98 145.543Z" fill="#363A38"/>
<path d="M144.052 161.181C143.857 161.181 143.666 161.109 143.514 160.957L132.364 149.847C132.065 149.552 132.065 149.07 132.364 148.771C132.658 148.476 133.141 148.472 133.44 148.767L144.59 159.877C144.889 160.172 144.889 160.655 144.594 160.953C144.443 161.105 144.247 161.181 144.052 161.181Z" fill="#363A38"/>
<path d="M109.154 115.961C108.959 115.961 108.763 115.889 108.616 115.738L78.3564 85.4782C78.0615 85.1833 78.0615 84.6971 78.3564 84.4022C78.6513 84.1073 79.1335 84.1073 79.4324 84.4022L109.692 114.662C109.987 114.957 109.987 115.443 109.692 115.738C109.54 115.889 109.349 115.961 109.154 115.961Z" fill="#363A38"/>
<path d="M106.691 118.384C106.496 118.384 106.301 118.312 106.153 118.161L97.6208 109.628C97.3259 109.333 97.3259 108.847 97.6208 108.552C97.9157 108.257 98.398 108.257 98.6969 108.552L107.229 117.085C107.524 117.38 107.524 117.866 107.229 118.161C107.082 118.308 106.886 118.384 106.691 118.384Z" fill="#363A38"/>
</g>
<mask id="mask14_401_2222" style="mask-type:luminance" maskUnits="userSpaceOnUse" x="0" y="-335" width="431" height="766">
<path d="M430.036 -334.16H0V430.347H430.036V-334.16Z" fill="white"/>
</mask>
<g mask="url(#mask14_401_2222)">
<path d="M177.025 109.31V118.26H168.944V126.338H159.993V118.26H151.911V109.31H159.993V101.228H168.944V109.31H177.025Z" fill="#009245"/>
<path d="M168.943 127.099H159.993C159.574 127.099 159.232 126.761 159.232 126.338V119.017H151.911C151.492 119.017 151.15 118.679 151.15 118.256V109.306C151.15 108.887 151.488 108.544 151.911 108.544H159.232V101.224C159.232 100.805 159.57 100.462 159.993 100.462H168.943C169.362 100.462 169.705 100.801 169.705 101.224V108.544H177.025C177.444 108.544 177.787 108.883 177.787 109.306V118.256C177.787 118.675 177.448 119.017 177.025 119.017H169.705V126.338C169.705 126.761 169.362 127.099 168.943 127.099ZM160.754 125.581H168.186V118.26C168.186 117.842 168.525 117.499 168.947 117.499H176.268V110.067H168.947C168.529 110.067 168.186 109.728 168.186 109.306V101.985H160.758V109.306C160.758 109.724 160.419 110.067 159.997 110.067H152.676V117.499H159.997C160.415 117.499 160.758 117.838 160.758 118.26V125.581H160.754Z" fill="#363A38"/>
<path d="M192.647 81.0108V86.7375H187.514V91.8704H181.788V86.7375H176.627V81.0108H181.788V75.8779H187.514V81.0108H192.647Z" fill="#009245"/>
<path d="M187.514 92.6316H181.792C181.373 92.6316 181.03 92.2929 181.03 91.8704V87.4987H176.627C176.208 87.4987 175.866 87.16 175.866 86.7375V81.0108C175.866 80.5924 176.204 80.2497 176.627 80.2497H181.03V75.8779C181.03 75.4595 181.369 75.1168 181.792 75.1168H187.514C187.933 75.1168 188.276 75.4555 188.276 75.8779V80.2497H192.651C193.07 80.2497 193.412 80.5884 193.412 81.0108V86.7375C193.412 87.156 193.074 87.4987 192.651 87.4987H188.276V91.8704C188.272 92.2889 187.933 92.6316 187.514 92.6316ZM182.549 91.1093H186.753V86.7375C186.753 86.3191 187.092 85.9764 187.514 85.9764H191.89V81.772H187.514C187.096 81.772 186.753 81.4333 186.753 81.0108V76.6391H182.549V81.0108C182.549 81.4293 182.21 81.772 181.788 81.772H177.384V85.9764H181.788C182.206 85.9764 182.549 86.3151 182.549 86.7375V91.1093Z" fill="#363A38"/>
<path d="M205.252 105.368V111.091H200.116V116.228H194.393V111.091H189.228V105.368H194.393V100.231H200.116V105.368H205.252Z" fill="#009245"/>
<path d="M200.115 116.989H194.393C193.974 116.989 193.632 116.65 193.632 116.228V111.852H189.228C188.809 111.852 188.467 111.513 188.467 111.091V105.368C188.467 104.95 188.806 104.607 189.228 104.607H193.632V100.231C193.632 99.8129 193.97 99.4701 194.393 99.4701H200.115C200.534 99.4701 200.877 99.8089 200.877 100.231V104.607H205.252C205.671 104.607 206.013 104.946 206.013 105.368V111.091C206.013 111.509 205.675 111.852 205.252 111.852H200.877V116.228C200.877 116.646 200.534 116.989 200.115 116.989ZM195.15 115.467H199.354V111.091C199.354 110.672 199.693 110.33 200.115 110.33H204.491V106.125H200.115C199.697 106.125 199.354 105.787 199.354 105.364V100.989H195.15V105.364C195.15 105.783 194.811 106.125 194.389 106.125H189.985V110.33H194.389C194.807 110.33 195.15 110.668 195.15 111.091V115.467Z" fill="#363A38"/>
</g>
</g>
</g>
</svg>
