<svg width="430" height="407" viewBox="0 0 430 407" fill="none" xmlns="http://www.w3.org/2000/svg">
<g filter="url(#filter0_d_15_7628)">
<path d="M312.496 35.9225H116.366C108.985 35.9225 103.002 41.9056 103.002 49.2861V277.493C103.002 284.874 108.985 290.857 116.366 290.857H312.496C319.877 290.857 325.86 284.874 325.86 277.493V49.308C325.86 41.9274 319.877 35.9225 312.496 35.9225Z" fill="#FFBB38"/>
<path d="M308.325 62.6716H120.515V276.183H308.325V62.6716Z" fill="white"/>
<path d="M259.675 82.2802H169.187C164.885 82.2802 161.391 78.7865 161.391 74.4848V48.6311C161.391 44.3294 164.885 40.8357 169.187 40.8357H259.675C263.977 40.8357 267.47 44.3294 267.47 48.6311V74.4848C267.47 78.7865 263.977 82.2802 259.675 82.2802Z" stroke="#6AAFFC" stroke-width="2.2908" stroke-miterlimit="10"/>
<path d="M248.866 58.217H179.996C176.24 58.217 173.205 55.1818 173.205 51.4261V30.2452C173.205 26.4894 176.24 23.4542 179.996 23.4542H248.866C252.622 23.4542 255.657 26.4894 255.657 30.2452V51.4261C255.657 55.1818 252.622 58.217 248.866 58.217Z" fill="#FF885F"/>
<path d="M161.391 104.575H135.974V129.992H161.391V104.575Z" stroke="#222222" stroke-width="2.2908" stroke-miterlimit="10"/>
<path d="M178.707 107.239H282.188" stroke="#222222" stroke-width="2.2908" stroke-miterlimit="10"/>
<path d="M178.707 124.642H247.862" stroke="#5A76C7" stroke-width="2.2908" stroke-miterlimit="10"/>
<path d="M141.543 114.597L148.683 121.738L168.619 101.78" stroke="#5A76C7" stroke-width="2.2908" stroke-miterlimit="10"/>
<path d="M161.391 156.588H135.974V182.005H161.391V156.588Z" stroke="#222222" stroke-width="2.2908" stroke-miterlimit="10"/>
<path d="M178.707 159.252H282.188" stroke="#222222" stroke-width="2.2908" stroke-miterlimit="10"/>
<path d="M178.707 176.633H247.862" stroke="#5A76C7" stroke-width="2.2908" stroke-miterlimit="10"/>
<path d="M141.543 166.611L148.683 173.729L168.619 153.793" stroke="#5A76C7" stroke-width="2.2908" stroke-miterlimit="10"/>
<path d="M161.391 208.579H135.974V233.996H161.391V208.579Z" stroke="#222222" stroke-width="2.2908" stroke-miterlimit="10"/>
<path d="M178.707 211.265H282.188" stroke="#222222" stroke-width="2.2908" stroke-miterlimit="10"/>
<path d="M178.707 228.646H247.862" stroke="#5A76C7" stroke-width="2.2908" stroke-miterlimit="10"/>
<path d="M141.543 218.602L148.683 225.742L168.619 205.784" stroke="#5A76C7" stroke-width="2.2908" stroke-miterlimit="10"/>
<path opacity="0.4" d="M245.962 27.6904H182.9C179.646 27.6904 177.004 30.3326 177.004 33.5861C177.004 36.8397 179.646 39.4818 182.9 39.4818H245.962C249.216 39.4818 251.858 36.8397 251.858 33.5861C251.88 30.3326 249.216 27.6904 245.962 27.6904Z" fill="white"/>
<path d="M22.6678 179.144L68.6543 152.461L132.328 262.186C135.996 268.519 133.856 276.62 127.524 280.288L104.465 293.674C98.1328 297.342 90.0317 295.202 86.3632 288.87L22.6678 179.144Z" fill="white"/>
<path d="M10.0247 163.117L61.0116 133.529C63.9813 131.804 67.7808 132.809 69.5058 135.778L73.4145 142.504C75.1395 145.473 74.135 149.273 71.1653 150.998L20.1785 180.586C17.2088 182.311 13.4093 181.306 11.6843 178.336L7.77564 171.611C6.0506 168.641 7.05505 164.842 10.0247 163.117Z" fill="white"/>
<path d="M-13.9074 121.869L37.0795 92.281C40.0492 90.556 43.8487 91.5605 45.5737 94.5301L49.4823 101.256C51.2074 104.225 50.2029 108.025 47.2332 109.75L-3.75367 139.337C-6.72336 141.062 -10.5228 140.058 -12.2478 137.088L-16.1565 130.363C-17.8815 127.393 -16.877 123.594 -13.9074 121.869Z" fill="white"/>
<path d="M18.1309 158.452L52.9376 138.254L39.1397 114.477L4.33298 134.675L18.1309 158.452Z" fill="#6AAFFC"/>
<path d="M39.132 114.445L12.0773 148.028L4.32561 134.643L39.132 114.445Z" fill="#222222"/>
<path opacity="0.4" d="M27.859 152.803L43.1944 143.904L29.3964 120.126L14.0611 129.025L27.859 152.803Z" fill="white"/>
<path d="M30.223 121.541L18.3225 136.324L14.0645 128.987L29.3933 120.1L30.223 121.541Z" fill="#222222"/>
<path d="M55.2045 222.346L90.0112 202.148L63.0838 155.745L28.2771 175.944L55.2045 222.346Z" fill="#5A76C7"/>
<path d="M57.5663 220.973L87.6326 203.525L60.7053 157.123L30.6389 174.57L57.5663 220.973Z" fill="#6AAFFC"/>
<path d="M108.308 291.425L123.637 282.537L129.707 292.997C130.406 294.176 129.991 295.704 128.812 296.381L117.785 302.779C116.606 303.478 115.077 303.063 114.379 301.884L108.308 291.425Z" fill="#6AAFFC"/>
<path d="M120.493 301.207L126.083 297.975L163.4 362.282C164.296 363.833 163.772 365.798 162.221 366.693C160.671 367.588 158.706 367.064 157.81 365.514L120.493 301.207Z" fill="white"/>
<path d="M62.4966 234.913L97.303 214.715L127.306 266.422C128.463 268.41 127.786 270.943 125.799 272.078L98.1764 288.127C96.1894 289.285 93.6564 288.608 92.5209 286.621L62.4966 234.913Z" fill="#FFBB38"/>
<path opacity="0.4" d="M64.9341 216.694L80.2694 207.794L53.3421 161.392L38.0067 170.291L64.9341 216.694Z" fill="white"/>
<path d="M55.1814 222.314L89.9879 202.116L97.3029 214.715L87.4112 227.009C85.0748 229.913 81.7557 231.834 78.0873 232.424L62.5183 234.913L55.1814 222.314Z" fill="#222222"/>
<path d="M68.6543 152.461L32.9307 196.81L22.6678 179.144L68.6543 152.461Z" fill="#222222"/>
<path d="M102.288 263.368L116.244 255.269L113.669 250.831L99.7122 258.93L102.288 263.368Z" fill="white"/>
<path d="M102.782 251.52L111.224 246.621L108.649 242.183L100.207 247.081L102.782 251.52Z" fill="white"/>
<path d="M92.222 246.046L106.179 237.947L103.603 233.509L89.6465 241.608L92.222 246.046Z" fill="white"/>
<path d="M92.7001 234.194L101.142 229.295L98.5666 224.856L90.1246 229.755L92.7001 234.194Z" fill="white"/>
<path d="M82.1723 228.722L96.129 220.623L93.5535 216.185L79.5969 224.284L82.1723 228.722Z" fill="white"/>
<path d="M82.6596 216.845L91.1016 211.946L88.5261 207.508L80.0841 212.407L82.6596 216.845Z" fill="white"/>
<path d="M72.1102 211.391L86.0669 203.292L83.4914 198.853L69.5347 206.952L72.1102 211.391Z" fill="white"/>
<path d="M72.594 199.523L81.036 194.624L78.4605 190.186L70.0185 195.085L72.594 199.523Z" fill="white"/>
<path d="M354.923 27.8433V32.5817C354.923 45.9889 365.775 56.8414 379.183 56.8414C392.59 56.8414 403.442 45.9889 403.442 32.5817V27.8433H354.923Z" fill="#222222"/>
<path d="M383.088 51.7799C396.314 49.6335 405.295 37.1722 403.149 23.9468C401.002 10.7213 388.541 1.74002 375.316 3.88643C362.09 6.03283 353.109 18.4942 355.255 31.7196C357.402 44.945 369.863 53.9263 383.088 51.7799Z" fill="#6AAFFC"/>
<path d="M378.943 7.25198C380.078 10.6802 380.668 14.1085 381.104 17.5367C381.497 20.965 381.694 24.3932 381.694 27.8214C381.694 31.2497 381.519 34.6779 381.104 38.1061C380.668 41.5344 380.1 44.9626 378.943 48.3909C377.785 44.9626 377.218 41.5344 376.781 38.1061C376.388 34.6779 376.191 31.2497 376.191 27.8214C376.191 24.3932 376.388 20.965 376.781 17.5367C377.218 14.1085 377.785 10.6802 378.943 7.25198Z" fill="#5A76C7"/>
<path d="M-2.53087 290.922V295.661C-2.53087 309.068 8.32159 319.921 21.7288 319.921C35.1361 319.921 45.9885 309.068 45.9885 295.661V290.922H-2.53087Z" fill="#222222"/>
<path d="M44.1652 300.207C49.2927 287.828 43.4145 273.637 31.0358 268.509C18.6572 263.382 4.46563 269.26 -0.661885 281.638C-5.7894 294.017 0.0887806 308.209 12.4674 313.336C24.8461 318.464 39.0377 312.585 44.1652 300.207Z" fill="#FFBB38"/>
<path d="M6.92413 276.358C10.1558 277.974 12.9945 280.004 15.724 282.123C18.4317 284.262 20.9865 286.555 23.4321 288.979C25.8559 291.403 28.1487 293.958 30.2886 296.665C32.4067 299.395 34.4374 302.233 36.0314 305.465C32.7997 303.849 29.961 301.84 27.2315 299.722C24.5239 297.582 21.9691 295.29 19.5453 292.866C17.1215 290.442 14.8287 287.887 12.6888 285.158C10.5707 282.428 8.53999 279.59 6.92413 276.358Z" fill="#FF885F"/>
<path d="M411.238 313.785L386.782 338.241C378.681 346.342 378.681 359.487 386.782 367.588C394.883 375.689 408.028 375.689 416.129 367.588L440.585 343.132C448.687 335.031 448.687 321.886 440.585 313.785C432.484 305.683 419.361 305.683 411.238 313.785Z" fill="#6AAFFC"/>
<path d="M411.238 313.785L399.01 326.013L428.357 355.36L440.585 343.132C448.687 335.031 448.687 321.886 440.585 313.785C432.484 305.684 419.361 305.684 411.238 313.785Z" fill="#FF885F"/>
<path opacity="0.4" d="M417.199 314.68L387.699 344.18C385.843 346.036 385.843 349.028 387.699 350.862C389.555 352.718 392.546 352.718 394.38 350.862L423.881 321.362C425.737 319.506 425.737 316.514 423.881 314.68C422.047 312.846 419.033 312.846 417.199 314.68Z" fill="white"/>
<path d="M414.251 116.868L357.784 104.465L331.472 224.301C328.043 239.892 337.913 255.308 353.504 258.736C369.095 262.165 384.511 252.295 387.939 236.704L414.251 116.868Z" fill="white"/>
<path d="M396.564 159.841L380.078 234.957C377.611 246.181 366.474 253.321 355.229 250.853C344.005 248.386 336.865 237.25 339.332 226.004L355.819 150.889L396.564 159.841Z" fill="#FF885F"/>
<path d="M416.937 102.107L361.561 89.9446C357.522 89.0494 353.526 91.6042 352.63 95.6656C351.735 99.7053 354.29 103.701 358.352 104.597L413.727 116.759C417.767 117.654 421.763 115.1 422.658 111.038C423.532 106.998 420.977 103.002 416.937 102.107Z" fill="white"/>
<path d="M357.784 104.465L409.491 138.573L414.251 116.868L357.784 104.465Z" fill="#222222"/>
<path opacity="0.4" d="M361.823 203.339L374.335 146.347C375.121 142.788 372.872 139.25 369.291 138.486C365.732 137.7 362.195 139.949 361.43 143.53L348.918 200.522C348.132 204.081 350.381 207.618 353.963 208.383C357.522 209.169 361.037 206.92 361.823 203.339Z" fill="white"/>
<path d="M413.465 266.881L324.593 178.009C320.466 173.882 313.784 173.882 309.657 178.009L194.102 293.565C189.975 297.691 189.975 304.373 194.102 308.5L282.974 397.372C287.101 401.499 293.782 401.499 297.909 397.372L413.465 281.817C417.592 277.69 417.592 271.008 413.465 266.881Z" fill="white"/>
<path opacity="0.2" d="M340.883 215.195L327.737 202.05C321.995 196.307 312.671 196.307 306.928 202.05C301.185 207.793 301.185 217.117 306.928 222.86L320.073 236.005C325.816 241.748 335.14 241.748 340.883 236.005C346.625 230.262 346.625 220.938 340.883 215.195Z" fill="#222222"/>
<path d="M337.782 218.493L324.44 205.151C320.029 200.74 312.867 200.74 308.434 205.151C304.023 209.562 304.023 216.724 308.434 221.157L321.776 234.498C326.187 238.909 333.349 238.909 337.782 234.498C342.193 230.066 342.193 222.903 337.782 218.493Z" fill="#222222"/>
<path d="M339.638 216.615L326.296 203.273C321.885 198.862 314.723 198.862 310.29 203.273C305.88 207.684 305.88 214.846 310.29 219.279L323.632 232.62C328.043 237.031 335.205 237.031 339.638 232.62C344.071 228.21 344.071 221.047 339.638 216.615Z" fill="#6AAFFC"/>
<path d="M339.638 216.615L332.978 209.955L316.972 225.961L323.632 232.62C328.043 237.031 335.205 237.031 339.638 232.62C344.071 228.21 344.071 221.047 339.638 216.615Z" fill="#FF885F"/>
<path opacity="0.4" d="M339.158 219.868L323.065 203.775C322.06 202.771 320.422 202.771 319.418 203.775C318.413 204.78 318.413 206.417 319.418 207.422L335.511 223.515C336.515 224.519 338.153 224.519 339.158 223.515C340.162 222.51 340.162 220.873 339.158 219.868Z" fill="white"/>
<path opacity="0.2" d="M389.424 263.737L376.279 250.591C370.536 244.849 361.212 244.849 355.469 250.591C349.726 256.334 349.726 265.658 355.469 271.401L368.614 284.546C374.357 290.289 383.681 290.289 389.424 284.546C395.167 278.803 395.167 269.479 389.424 263.737Z" fill="#222222"/>
<path d="M386.323 267.034L372.981 253.692C368.57 249.281 361.408 249.281 356.975 253.692C352.565 258.103 352.565 265.265 356.975 269.698L370.317 283.04C374.728 287.451 381.89 287.451 386.323 283.04C390.734 278.607 390.734 271.445 386.323 267.034Z" fill="#222222"/>
<path d="M388.179 265.156L374.837 251.814C370.427 247.403 363.264 247.403 358.832 251.814C354.421 256.225 354.421 263.387 358.832 267.82L372.173 281.162C376.584 285.573 383.746 285.573 388.179 281.162C392.59 276.751 392.59 269.567 388.179 265.156Z" fill="#6AAFFC"/>
<path d="M388.179 265.156L381.519 258.496L365.513 274.502L372.173 281.162C376.584 285.573 383.746 285.573 388.179 281.162C392.59 276.751 392.59 269.567 388.179 265.156Z" fill="#FF885F"/>
<path opacity="0.4" d="M387.699 268.41L371.606 252.317C370.601 251.312 368.964 251.312 367.959 252.317C366.955 253.321 366.955 254.959 367.959 255.963L384.052 272.056C385.057 273.061 386.694 273.061 387.699 272.056C388.703 271.052 388.703 269.414 387.699 268.41Z" fill="white"/>
<path opacity="0.2" d="M311.295 244.805L298.15 231.66C292.407 225.917 283.083 225.917 277.34 231.66C271.597 237.403 271.597 246.727 277.34 252.469L290.485 265.615C296.228 271.357 305.552 271.357 311.295 265.615C317.038 259.85 317.038 250.548 311.295 244.805Z" fill="#222222"/>
<path d="M308.172 248.102L294.831 234.76C290.42 230.35 283.258 230.35 278.825 234.76C274.414 239.171 274.414 246.333 278.825 250.766L292.167 264.108C296.578 268.519 303.74 268.519 308.172 264.108C312.605 259.675 312.605 252.513 308.172 248.102Z" fill="#222222"/>
<path d="M310.05 246.224L296.709 232.883C292.298 228.472 285.136 228.472 280.703 232.883C276.292 237.293 276.292 244.456 280.703 248.888L294.045 262.23C298.455 266.641 305.618 266.641 310.05 262.23C314.461 257.797 314.461 250.635 310.05 246.224Z" fill="#6AAFFC"/>
<path d="M310.05 246.224L303.39 239.564L287.385 255.57L294.045 262.23C298.455 266.641 305.618 266.641 310.05 262.23C314.461 257.797 314.461 250.635 310.05 246.224Z" fill="#FF885F"/>
<path opacity="0.4" d="M309.548 249.478L293.455 233.385C292.45 232.38 290.813 232.38 289.808 233.385C288.804 234.389 288.804 236.027 289.808 237.031L305.901 253.124C306.906 254.129 308.544 254.129 309.548 253.124C310.552 252.098 310.552 250.482 309.548 249.478Z" fill="white"/>
<path opacity="0.2" d="M359.814 293.346L346.669 280.201C340.926 274.458 331.602 274.458 325.86 280.201C320.117 285.944 320.117 295.268 325.86 301.011L339.005 314.156C344.748 319.899 354.072 319.899 359.814 314.156C365.579 308.391 365.579 299.089 359.814 293.346Z" fill="#222222"/>
<path d="M356.714 296.622L343.372 283.28C338.961 278.869 331.799 278.869 327.366 283.28C322.955 287.691 322.955 294.853 327.366 299.286L340.708 312.627C345.119 317.038 352.281 317.038 356.714 312.627C361.124 308.216 361.124 301.054 356.714 296.622Z" fill="#222222"/>
<path d="M358.57 294.766L345.228 281.424C340.817 277.013 333.655 277.013 329.222 281.424C324.811 285.835 324.811 292.997 329.222 297.43L342.564 310.771C346.975 315.182 354.137 315.182 358.57 310.771C363.002 306.339 363.002 299.176 358.57 294.766Z" fill="#6AAFFC"/>
<path d="M358.57 294.766L351.91 288.106L335.904 304.111L342.564 310.771C346.975 315.182 354.137 315.182 358.57 310.771C363.002 306.339 363.002 299.176 358.57 294.766Z" fill="#FF885F"/>
<path opacity="0.4" d="M358.09 297.997L341.996 281.904C340.992 280.9 339.354 280.9 338.35 281.904C337.345 282.909 337.345 284.546 338.35 285.551L354.443 301.644C355.447 302.648 357.085 302.648 358.09 301.644C359.094 300.639 359.094 299.002 358.09 297.997Z" fill="white"/>
<path opacity="0.2" d="M281.685 274.393L268.54 261.247C262.797 255.505 253.473 255.505 247.731 261.247C241.988 266.99 241.988 276.314 247.731 282.057L260.876 295.202C266.619 300.945 275.943 300.945 281.685 295.202C287.428 289.459 287.428 280.157 281.685 274.393Z" fill="#222222"/>
<path d="M278.585 277.69L265.243 264.348C260.832 259.937 253.67 259.937 249.237 264.348C244.826 268.759 244.826 275.921 249.237 280.354L262.579 293.696C266.99 298.106 274.152 298.106 278.585 293.696C282.995 289.285 282.995 282.101 278.585 277.69Z" fill="#222222"/>
<path d="M280.441 275.834L267.099 262.492C262.688 258.081 255.526 258.081 251.093 262.492C246.682 266.903 246.682 274.065 251.093 278.498L264.435 291.84C268.846 296.25 276.008 296.25 280.441 291.84C284.873 287.407 284.873 280.245 280.441 275.834Z" fill="#6AAFFC"/>
<path d="M280.441 275.834L273.781 269.174L257.775 285.18L264.435 291.84C268.846 296.25 276.008 296.25 280.441 291.84C284.873 287.407 284.873 280.245 280.441 275.834Z" fill="#FF885F"/>
<path opacity="0.4" d="M279.96 279.066L263.867 262.972C262.863 261.968 261.225 261.968 260.221 262.972C259.216 263.977 259.216 265.615 260.221 266.619L276.314 282.712C277.318 283.717 278.956 283.717 279.96 282.712C280.965 281.708 280.965 280.07 279.96 279.066Z" fill="white"/>
<path opacity="0.2" d="M330.227 322.934L317.06 309.789C311.317 304.046 301.993 304.046 296.25 309.789C290.507 315.532 290.507 324.855 296.25 330.598L309.395 343.744C315.138 349.486 324.462 349.486 330.205 343.744C335.97 338.001 335.97 328.677 330.227 322.934Z" fill="#222222"/>
<path d="M327.104 326.231L313.762 312.889C309.351 308.478 302.189 308.478 297.757 312.889C293.346 317.3 293.346 324.462 297.757 328.895L311.098 342.237C315.509 346.648 322.671 346.648 327.104 342.237C331.537 337.804 331.537 330.642 327.104 326.231Z" fill="#222222"/>
<path d="M328.982 324.353L315.64 311.011C311.229 306.601 304.067 306.601 299.634 311.011C295.224 315.422 295.224 322.584 299.634 327.017L312.976 340.359C317.387 344.77 324.549 344.77 328.982 340.359C333.393 335.948 333.393 328.786 328.982 324.353Z" fill="#6AAFFC"/>
<path d="M328.982 324.353L322.322 317.693L306.316 333.699L312.976 340.359C317.387 344.77 324.549 344.77 328.982 340.359C333.393 335.948 333.393 328.786 328.982 324.353Z" fill="#FF885F"/>
<path opacity="0.4" d="M328.48 327.607L312.387 311.514C311.382 310.509 309.745 310.509 308.74 311.514C307.736 312.518 307.736 314.156 308.74 315.16L324.833 331.253C325.838 332.258 327.475 332.258 328.48 331.253C329.506 330.249 329.506 328.611 328.48 327.607Z" fill="white"/>
<path opacity="0.2" d="M252.098 304.002L238.952 290.857C233.21 285.114 223.886 285.114 218.143 290.857C212.4 296.6 212.4 305.924 218.143 311.667L231.288 324.812C237.031 330.555 246.355 330.555 252.098 324.812C257.841 319.069 257.841 309.745 252.098 304.002Z" fill="#222222"/>
<path d="M248.975 307.299L235.633 293.958C231.223 289.547 224.06 289.547 219.628 293.958C215.217 298.368 215.217 305.531 219.628 309.963L232.969 323.305C237.38 327.716 244.542 327.716 248.975 323.305C253.386 318.872 253.386 311.71 248.975 307.299Z" fill="#222222"/>
<path d="M250.853 305.421L237.511 292.08C233.1 287.669 225.938 287.669 221.506 292.08C217.095 296.491 217.095 303.653 221.506 308.085L234.847 321.427C239.258 325.838 246.42 325.838 250.853 321.427C255.264 317.016 255.264 309.854 250.853 305.421Z" fill="#6AAFFC"/>
<path d="M250.853 305.421L244.193 298.761L228.187 314.767L234.847 321.427C239.258 325.838 246.42 325.838 250.853 321.427C255.264 317.016 255.264 309.854 250.853 305.421Z" fill="#FF885F"/>
<path opacity="0.4" d="M250.351 308.675L234.258 292.582C233.253 291.578 231.616 291.578 230.611 292.582C229.607 293.586 229.607 295.224 230.611 296.229L246.704 312.322C247.709 313.326 249.346 313.326 250.351 312.322C251.355 311.317 251.355 309.679 250.351 308.675Z" fill="white"/>
<path opacity="0.2" d="M300.617 352.543L287.472 339.398C281.729 333.655 272.405 333.655 266.662 339.398C260.919 345.141 260.919 354.465 266.662 360.208L279.829 373.353C285.572 379.096 294.896 379.096 300.639 373.353C306.36 367.588 306.36 358.286 300.617 352.543Z" fill="#222222"/>
<path d="M297.516 355.819L284.175 342.477C279.764 338.066 272.602 338.066 268.169 342.477C263.758 346.888 263.758 354.05 268.169 358.483L281.511 371.824C285.922 376.235 293.084 376.235 297.516 371.824C301.927 367.414 301.927 360.251 297.516 355.819Z" fill="#222222"/>
<path d="M299.373 353.963L286.031 340.621C281.62 336.21 274.458 336.21 270.025 340.621C265.614 345.032 265.614 352.194 270.025 356.627L283.367 369.968C287.778 374.379 294.94 374.379 299.373 369.968C303.805 365.536 303.805 358.374 299.373 353.963Z" fill="#6AAFFC"/>
<path d="M299.373 353.963L292.713 347.303L276.707 363.308L283.367 369.968C287.778 374.379 294.94 374.379 299.373 369.968C303.805 365.536 303.805 358.374 299.373 353.963Z" fill="#FF885F"/>
<path opacity="0.4" d="M298.892 357.216L282.799 341.123C281.795 340.119 280.157 340.119 279.152 341.123C278.148 342.128 278.148 343.765 279.152 344.77L295.245 360.863C296.25 361.867 297.888 361.867 298.892 360.863C299.897 359.837 299.897 358.221 298.892 357.216Z" fill="white"/>
<path opacity="0.2" d="M320.663 188.315C322.497 186.481 322.497 183.49 320.663 181.655C318.828 179.821 315.837 179.821 314.003 181.655C312.168 183.49 312.168 186.481 314.003 188.315C315.837 190.15 318.828 190.15 320.663 188.315Z" fill="#222222"/>
<path opacity="0.2" d="M409.819 277.471C411.653 275.637 411.653 272.646 409.819 270.812C407.984 268.977 404.993 268.977 403.159 270.812C401.324 272.646 401.324 275.637 403.159 277.471C404.993 279.306 407.984 279.306 409.819 277.471Z" fill="#222222"/>
<path opacity="0.2" d="M204.408 304.592C206.242 302.757 206.242 299.766 204.408 297.932C202.574 296.097 199.582 296.097 197.748 297.932C195.914 299.766 195.914 302.757 197.748 304.592C199.561 306.426 202.552 306.426 204.408 304.592Z" fill="#222222"/>
<path opacity="0.2" d="M290.223 395.123C292.828 395.123 294.94 393.012 294.94 390.407C294.94 387.802 292.828 385.69 290.223 385.69C287.618 385.69 285.507 387.802 285.507 390.407C285.507 393.012 287.618 395.123 290.223 395.123Z" fill="#222222"/>
</g>
<defs>
<filter id="filter0_d_15_7628" x="-21" y="1.56946" width="471.661" height="404.898" filterUnits="userSpaceOnUse" color-interpolation-filters="sRGB">
<feFlood flood-opacity="0" result="BackgroundImageFix"/>
<feColorMatrix in="SourceAlpha" type="matrix" values="0 0 0 0 0 0 0 0 0 0 0 0 0 0 0 0 0 0 127 0" result="hardAlpha"/>
<feOffset dy="2"/>
<feGaussianBlur stdDeviation="2"/>
<feComposite in2="hardAlpha" operator="out"/>
<feColorMatrix type="matrix" values="0 0 0 0 0 0 0 0 0 0 0 0 0 0 0 0 0 0 0.25 0"/>
<feBlend mode="normal" in2="BackgroundImageFix" result="effect1_dropShadow_15_7628"/>
<feBlend mode="normal" in="SourceGraphic" in2="effect1_dropShadow_15_7628" result="shape"/>
</filter>
</defs>
</svg>
