<svg width="430" height="386" viewBox="0 0 430 386" fill="none" xmlns="http://www.w3.org/2000/svg">
<mask id="mask0_401_554" style="mask-type:alpha" maskUnits="userSpaceOnUse" x="0" y="0" width="430" height="386">
<rect width="430" height="386" fill="#D9D9D9"/>
</mask>
<g mask="url(#mask0_401_554)">
<g filter="url(#filter0_d_401_554)">
<path d="M425.507 139.185L348.639 108.529C345.077 107.106 341.102 109.065 339.777 112.891L302.661 220.286C301.336 224.112 303.16 228.382 306.722 229.805L383.59 260.461C387.152 261.884 391.127 259.925 392.452 256.099L429.568 148.705C430.893 144.863 429.069 140.608 425.507 139.185Z" fill="white"/>
<path opacity="0.2" d="M368.415 127.461L357.031 122.916C352.059 120.942 346.545 123.651 344.693 128.992C342.855 134.333 345.377 140.256 350.349 142.246L361.733 146.791C366.706 148.766 372.22 146.057 374.072 140.715C375.91 135.374 373.388 129.436 368.415 127.461Z" fill="#222222"/>
<path d="M367.461 130.461L355.92 125.854C352.102 124.324 347.856 126.421 346.431 130.522C345.006 134.624 346.958 139.185 350.776 140.715L362.317 145.322C366.136 146.853 370.382 144.756 371.806 140.654C373.231 136.553 371.279 131.992 367.461 130.461Z" fill="#222222"/>
<path d="M368.059 128.732L356.518 124.125C352.7 122.595 348.454 124.691 347.029 128.793C345.605 132.895 347.557 137.456 351.375 138.986L362.916 143.593C366.734 145.123 370.98 143.027 372.405 138.925C373.83 134.808 371.878 130.247 368.059 128.732Z" fill="#6AAFFC"/>
<path d="M368.059 128.732L362.289 126.436L357.145 141.297L362.916 143.593C366.734 145.123 370.98 143.027 372.405 138.925C373.83 134.808 371.878 130.247 368.059 128.732Z" fill="#FF885F"/>
<path opacity="0.4" d="M368.658 130.936L354.737 125.38C353.868 125.028 352.899 125.502 352.572 126.451C352.244 127.385 352.686 128.426 353.569 128.778L367.489 134.333C368.359 134.685 369.327 134.211 369.655 133.262C369.968 132.328 369.527 131.288 368.658 130.936Z" fill="white"/>
<path opacity="0.2" d="M410.404 144.205L399.02 139.659C394.048 137.685 388.534 140.394 386.681 145.735C384.829 151.077 387.365 157 392.338 158.989L403.722 163.535C408.694 165.509 414.208 162.8 416.061 157.459C417.898 152.118 415.362 146.179 410.404 144.205Z" fill="#222222"/>
<path d="M409.45 147.205L397.909 142.598C394.09 141.067 389.844 143.164 388.42 147.266C386.995 151.368 388.947 155.929 392.765 157.459L404.306 162.066C408.124 163.596 412.37 161.499 413.795 157.398C415.22 153.296 413.268 148.735 409.45 147.205Z" fill="#222222"/>
<path d="M410.048 145.475L398.507 140.869C394.689 139.338 390.443 141.435 389.018 145.537C387.593 149.638 389.545 154.199 393.364 155.73L404.904 160.336C408.723 161.867 412.969 159.77 414.394 155.668C415.818 151.567 413.866 146.991 410.048 145.475Z" fill="#6AAFFC"/>
<path d="M410.048 145.475L404.278 143.18L399.134 158.041L404.904 160.336C408.723 161.867 412.969 159.77 414.394 155.668C415.818 151.567 413.866 146.99 410.048 145.475Z" fill="#FF885F"/>
<path opacity="0.4" d="M410.646 147.679L396.726 142.124C395.857 141.772 394.888 142.246 394.56 143.195C394.233 144.128 394.674 145.169 395.558 145.521L409.478 151.077C410.347 151.429 411.316 150.954 411.644 150.006C411.957 149.072 411.515 148.031 410.646 147.679Z" fill="white"/>
<path opacity="0.2" d="M358.912 154.964L347.528 150.419C342.556 148.444 337.042 151.153 335.189 156.495C333.351 161.836 335.873 167.759 340.846 169.749L352.23 174.294C357.202 176.269 362.716 173.56 364.569 168.218C366.407 162.877 363.87 156.939 358.912 154.964Z" fill="#222222"/>
<path d="M357.958 157.964L346.417 153.357C342.598 151.827 338.352 153.924 336.928 158.025C335.503 162.127 337.455 166.688 341.273 168.218L352.814 172.825C356.633 174.356 360.878 172.259 362.303 168.157C363.728 164.055 361.776 159.495 357.958 157.964Z" fill="#222222"/>
<path d="M358.556 156.235L347.015 151.628C343.197 150.097 338.951 152.194 337.526 156.296C336.101 160.398 338.053 164.958 341.872 166.489L353.412 171.096C357.231 172.626 361.477 170.529 362.902 166.428C364.326 162.326 362.374 157.75 358.556 156.235Z" fill="#6AAFFC"/>
<path d="M358.556 156.235L352.786 153.939L347.642 168.8L353.412 171.096C357.231 172.626 361.477 170.529 362.902 166.428C364.326 162.326 362.374 157.75 358.556 156.235Z" fill="#FF885F"/>
<path opacity="0.4" d="M359.14 158.439L345.22 152.883C344.351 152.531 343.382 153.005 343.054 153.954C342.726 154.888 343.168 155.929 344.052 156.281L357.972 161.836C358.841 162.188 359.81 161.714 360.137 160.765C360.465 159.831 360.024 158.791 359.14 158.439Z" fill="white"/>
<path opacity="0.2" d="M400.887 171.708L389.502 167.162C384.53 165.188 379.016 167.897 377.164 173.238C375.311 178.58 377.848 184.503 382.82 186.492L394.204 191.038C399.177 193.012 404.691 190.303 406.543 184.962C408.395 179.62 405.859 173.698 400.887 171.708Z" fill="#222222"/>
<path d="M399.946 174.708L388.405 170.101C384.587 168.57 380.341 170.667 378.916 174.769C377.491 178.871 379.443 183.431 383.262 184.962L394.803 189.569C398.621 191.099 402.867 189.002 404.292 184.901C405.717 180.799 403.765 176.238 399.946 174.708Z" fill="#222222"/>
<path d="M400.545 172.978L389.004 168.371C385.185 166.841 380.939 168.938 379.515 173.039C378.09 177.141 380.042 181.702 383.86 183.232L395.401 187.839C399.219 189.37 403.465 187.273 404.89 183.171C406.315 179.069 404.363 174.509 400.545 172.978Z" fill="#6AAFFC"/>
<path d="M400.545 172.978L394.774 170.682L389.631 185.543L395.401 187.839C399.219 189.37 403.465 187.273 404.89 183.171C406.315 179.069 404.363 174.509 400.545 172.978Z" fill="#FF885F"/>
<path opacity="0.4" d="M401.129 175.182L387.208 169.626C386.339 169.274 385.371 169.749 385.043 170.698C384.715 171.631 385.157 172.672 386.04 173.024L399.96 178.58C400.83 178.932 401.798 178.457 402.126 177.508C402.454 176.575 401.998 175.534 401.129 175.182Z" fill="white"/>
<path opacity="0.2" d="M349.395 182.467L338.01 177.922C333.038 175.947 327.524 178.656 325.672 183.998C323.834 189.339 326.356 195.262 331.328 197.252L342.712 201.797C347.685 203.772 353.199 201.063 355.051 195.721C356.903 190.38 354.367 184.457 349.395 182.467Z" fill="#222222"/>
<path d="M348.44 185.467L336.899 180.86C333.081 179.33 328.835 181.426 327.41 185.528C325.985 189.63 327.937 194.191 331.756 195.721L343.296 200.328C347.115 201.858 351.361 199.762 352.786 195.66C354.21 191.558 352.273 186.997 348.44 185.467Z" fill="#222222"/>
<path d="M349.053 183.737L337.512 179.131C333.693 177.6 329.447 179.697 328.023 183.799C326.598 187.9 328.55 192.461 332.368 193.992L343.909 198.599C347.727 200.129 351.973 198.032 353.398 193.931C354.823 189.829 352.871 185.268 349.053 183.737Z" fill="#6AAFFC"/>
<path d="M349.053 183.737L343.282 181.442L338.139 196.303L343.909 198.599C347.728 200.129 351.973 198.032 353.398 193.931C354.823 189.829 352.871 185.268 349.053 183.737Z" fill="#FF885F"/>
<path opacity="0.4" d="M349.637 185.941L335.717 180.386C334.847 180.034 333.879 180.508 333.551 181.457C333.223 182.391 333.665 183.431 334.548 183.783L348.468 189.339C349.337 189.691 350.306 189.217 350.634 188.268C350.948 187.334 350.506 186.293 349.637 185.941Z" fill="white"/>
<path opacity="0.2" d="M391.383 199.211L379.999 194.665C375.026 192.691 369.513 195.4 367.66 200.741C365.808 206.083 368.344 212.006 373.317 213.995L384.701 218.541C389.673 220.515 395.187 217.806 397.04 212.465C398.878 207.123 396.356 201.2 391.383 199.211Z" fill="#222222"/>
<path d="M390.428 202.226L378.888 197.619C375.069 196.089 370.823 198.185 369.399 202.287C367.974 206.389 369.926 210.95 373.744 212.48L385.285 217.087C389.103 218.617 393.349 216.521 394.774 212.419C396.199 208.302 394.261 203.741 390.428 202.226Z" fill="#222222"/>
<path d="M391.027 200.481L379.486 195.874C375.668 194.344 371.422 196.441 369.997 200.542C368.572 204.644 370.524 209.205 374.343 210.735L385.883 215.342C389.702 216.873 393.948 214.776 395.373 210.674C396.797 206.572 394.86 202.011 391.027 200.481Z" fill="#6AAFFC"/>
<path d="M391.027 200.481L385.257 198.185L380.113 213.046L385.883 215.342C389.702 216.873 393.948 214.776 395.373 210.674C396.797 206.572 394.86 202.012 391.027 200.481Z" fill="#FF885F"/>
<path opacity="0.4" d="M391.625 202.7L377.705 197.145C376.836 196.793 375.867 197.267 375.539 198.216C375.212 199.15 375.653 200.19 376.537 200.542L390.457 206.098C391.326 206.45 392.295 205.975 392.623 205.027C392.936 204.078 392.494 203.037 391.625 202.7Z" fill="white"/>
<path opacity="0.2" d="M339.891 209.97L328.507 205.425C323.535 203.45 318.021 206.159 316.168 211.501C314.33 216.842 316.852 222.765 321.825 224.755L333.209 229.3C338.181 231.274 343.695 228.565 345.548 223.224C347.386 217.883 344.864 211.96 339.891 209.97Z" fill="#222222"/>
<path d="M338.936 212.985L327.396 208.378C323.577 206.848 319.331 208.945 317.907 213.046C316.482 217.148 318.434 221.709 322.252 223.239L333.793 227.846C337.611 229.377 341.857 227.28 343.282 223.178C344.707 219.061 342.755 214.5 338.936 212.985Z" fill="#222222"/>
<path d="M339.535 211.24L327.994 206.634C324.176 205.103 319.93 207.2 318.505 211.302C317.08 215.403 319.032 219.964 322.851 221.495L334.391 226.101C338.21 227.632 342.456 225.535 343.881 221.433C345.305 217.332 343.353 212.771 339.535 211.24Z" fill="#6AAFFC"/>
<path d="M339.535 211.24L333.765 208.945L328.621 223.806L334.391 226.101C338.21 227.632 342.456 225.535 343.881 221.433C345.305 217.332 343.353 212.771 339.535 211.24Z" fill="#FF885F"/>
<path opacity="0.4" d="M340.133 213.46L326.213 207.904C325.344 207.552 324.375 208.026 324.048 208.975C323.72 209.909 324.161 210.95 325.045 211.302L338.965 216.857C339.834 217.209 340.803 216.735 341.131 215.786C341.444 214.837 341.003 213.796 340.133 213.46Z" fill="white"/>
<path opacity="0.2" d="M381.88 226.714L370.496 222.168C365.523 220.194 360.009 222.903 358.157 228.244C356.305 233.585 358.841 239.508 363.813 241.498L375.197 246.044C380.17 248.018 385.684 245.309 387.536 239.968C389.374 234.642 386.838 228.703 381.88 226.714Z" fill="#222222"/>
<path d="M380.925 229.729L369.384 225.122C365.566 223.591 361.32 225.688 359.895 229.79C358.47 233.892 360.422 238.452 364.241 239.983L375.782 244.59C379.6 246.12 383.846 244.023 385.271 239.922C386.695 235.82 384.744 231.244 380.925 229.729Z" fill="#222222"/>
<path d="M381.523 227.984L369.983 223.377C366.164 221.847 361.918 223.943 360.494 228.045C359.069 232.147 361.021 236.708 364.839 238.238L376.38 242.845C380.198 244.375 384.444 242.279 385.869 238.177C387.294 234.075 385.342 229.514 381.523 227.984Z" fill="#6AAFFC"/>
<path d="M381.523 227.984L375.753 225.688L370.61 240.549L376.38 242.845C380.198 244.375 384.444 242.279 385.869 238.177C387.294 234.075 385.342 229.514 381.523 227.984Z" fill="#FF885F"/>
<path opacity="0.4" d="M382.122 230.203L368.202 224.647C367.333 224.295 366.364 224.77 366.036 225.719C365.708 226.652 366.15 227.693 367.033 228.045L380.954 233.601C381.823 233.953 382.792 233.478 383.119 232.529C383.433 231.581 382.991 230.555 382.122 230.203Z" fill="white"/>
<path opacity="0.2" d="M349.11 116.228C349.708 114.514 348.896 112.616 347.3 111.973C345.704 111.33 343.938 112.203 343.339 113.917C342.741 115.631 343.553 117.529 345.149 118.171C346.744 118.814 348.511 117.942 349.11 116.228Z" fill="#222222"/>
<path opacity="0.2" d="M426.234 146.99C426.832 145.276 426.02 143.379 424.424 142.736C422.828 142.093 421.062 142.965 420.463 144.679C419.879 146.394 420.677 148.291 422.273 148.934C423.868 149.577 425.649 148.705 426.234 146.99Z" fill="#222222"/>
<path opacity="0.2" d="M311.766 224.28C312.35 222.566 311.552 220.668 309.956 220.025C308.361 219.383 306.594 220.255 305.995 221.969C305.397 223.683 306.209 225.581 307.805 226.224C309.401 226.851 311.167 225.979 311.766 224.28Z" fill="#222222"/>
<path opacity="0.2" d="M388.89 255.043C389.488 253.329 388.676 251.431 387.08 250.788C385.485 250.161 383.718 251.018 383.119 252.732C382.521 254.446 383.333 256.344 384.929 256.987C386.525 257.614 388.291 256.742 388.89 255.043Z" fill="#222222"/>
<path d="M105.413 73.4812H306.95C314.06 73.4812 319.83 79.6796 319.83 87.3168V239.478H92.5473V87.3015C92.5331 79.6643 98.3035 73.4812 105.413 73.4812Z" fill="white"/>
<path d="M92.6749 250.887L319.829 250.887V239.469L92.6749 239.469V250.887Z" fill="#222222"/>
<path d="M121.086 137.609C129.561 137.609 136.431 130.229 136.431 121.125C136.431 112.022 129.561 104.642 121.086 104.642C112.611 104.642 105.741 112.022 105.741 121.125C105.741 130.229 112.611 137.609 121.086 137.609Z" fill="#222222"/>
<path d="M108.491 191.283C103.646 183.814 105.37 173.529 112.323 168.341C119.276 163.152 128.851 164.989 133.681 172.458C138.525 179.927 136.801 190.211 129.848 195.4C122.895 200.603 113.335 198.767 108.491 191.283Z" fill="#222222"/>
<path d="M157.09 88.1739H296.492C301.208 88.1739 305.027 92.2756 305.027 97.3415V205.241C305.027 210.307 301.208 214.408 296.492 214.408H157.09C152.374 214.408 148.556 210.307 148.556 205.241V97.3415C148.556 92.2756 152.374 88.1739 157.09 88.1739Z" fill="#222222"/>
<path d="M305.012 95.9487H148.556" stroke="#5A76C7" stroke-width="0.6339" stroke-miterlimit="10"/>
<path d="M305.012 118.08H148.556" stroke="#5A76C7" stroke-width="0.6339" stroke-miterlimit="10"/>
<path d="M305.012 140.226H148.556" stroke="#5A76C7" stroke-width="0.6339" stroke-miterlimit="10"/>
<path d="M305.012 162.357H148.556" stroke="#5A76C7" stroke-width="0.6339" stroke-miterlimit="10"/>
<path d="M305.012 184.487H148.556" stroke="#5A76C7" stroke-width="0.6339" stroke-miterlimit="10"/>
<path d="M305.012 206.618H148.556" stroke="#5A76C7" stroke-width="0.6339" stroke-miterlimit="10"/>
<path d="M195.887 88.1739V214.393" stroke="#5A76C7" stroke-width="0.317" stroke-miterlimit="10"/>
<path d="M216.49 88.1739V214.393" stroke="#5A76C7" stroke-width="0.317" stroke-miterlimit="10"/>
<path d="M154.668 89.0309V213.965" stroke="#5A76C7" stroke-width="0.317" stroke-miterlimit="10"/>
<path d="M175.271 88.1739V214.393" stroke="#5A76C7" stroke-width="0.317" stroke-miterlimit="10"/>
<path d="M237.092 88.1739V214.393" stroke="#5A76C7" stroke-width="0.317" stroke-miterlimit="10"/>
<path d="M257.695 88.1739V214.393" stroke="#5A76C7" stroke-width="0.317" stroke-miterlimit="10"/>
<path d="M278.297 88.1739V214.393" stroke="#5A76C7" stroke-width="0.317" stroke-miterlimit="10"/>
<path d="M298.9 89.0309V213.965" stroke="#5A76C7" stroke-width="0.317" stroke-miterlimit="10"/>
<path d="M305.012 153.357H270.575L262.838 129.145L254.803 179.988L232.576 111.162L222.545 187.594L206.189 125.701L199.108 170.652L188.792 142.644L183.976 153.357H148.556" stroke="#6AAFFC" stroke-width="1.9018" stroke-miterlimit="10"/>
<path d="M251.898 111.167H295.041V99.7497H251.898V111.167Z" fill="#6AAFFC"/>
<path d="M156.285 200.912H199.428V195.204H156.285V200.912Z" fill="#6AAFFC"/>
<path d="M127.024 133.275C134.844 129.769 138.538 120.116 135.273 111.715C132.009 103.314 123.023 99.3469 115.202 102.854C107.382 106.36 103.688 116.013 106.953 124.414C110.217 132.815 119.203 136.782 127.024 133.275Z" fill="#FFBB38"/>
<path d="M121.086 103.249L124.676 109.937H117.481L121.086 103.249Z" fill="#222222"/>
<path d="M108.491 188.252C103.646 180.784 105.37 170.499 112.323 165.31C119.276 160.122 128.851 161.959 133.681 169.427C138.525 176.896 136.801 187.181 129.848 192.369C122.895 197.558 113.335 195.721 108.491 188.252Z" fill="#FFBB38"/>
<path d="M113.193 166.657L119.704 169.948L113.805 174.356L113.193 166.657Z" fill="#222222"/>
<path d="M103.164 222.53H138.256V208.694H103.164V222.53Z" fill="#222222"/>
<path opacity="0.4" d="M234.827 105.468C234.827 98.9791 239.728 93.7142 245.769 93.7142H281.845C287.886 93.7142 292.788 98.9791 292.788 105.468C292.788 111.958 287.886 117.223 281.845 117.223H245.769C239.728 117.223 234.827 111.958 234.827 105.468Z" fill="white"/>
<path opacity="0.4" d="M157.489 200.741C157.489 196.762 160.496 193.517 164.214 193.517H186.356C190.06 193.517 193.081 196.747 193.081 200.741C193.081 204.736 190.074 207.965 186.356 207.965H164.214C160.496 207.95 157.489 204.72 157.489 200.741Z" fill="white"/>
<path d="M366.435 181.029L242.151 148.291C237.477 147.052 232.747 150.128 231.593 155.163L196.13 310.523C194.976 315.543 197.839 320.624 202.527 321.864L326.812 354.601C331.485 355.841 336.215 352.765 337.369 347.729L372.832 192.369C373.972 187.334 371.108 182.268 366.435 181.029Z" fill="#FFBB38"/>
<path d="M359.678 198.551L240.661 167.208L207.49 312.549L326.506 343.892L359.678 198.551Z" fill="white"/>
<path d="M325.757 203.772L268.409 188.666C265.674 187.946 264.007 184.992 264.676 182.054L268.694 164.453C269.364 161.515 272.114 159.724 274.849 160.443L332.197 175.549C334.933 176.269 336.6 179.223 335.93 182.161L331.912 199.762C331.243 202.7 328.493 204.491 325.757 203.772Z" stroke="#6AAFFC" stroke-width="2.2908" stroke-miterlimit="10"/>
<path d="M322.651 185.574L279.01 174.08C276.63 173.453 275.177 170.881 275.761 168.325L279.053 153.908C279.637 151.352 282.03 149.791 284.41 150.419L328.051 161.913C330.431 162.54 331.884 165.111 331.3 167.667L328.008 182.085C327.424 184.64 325.031 186.202 322.651 185.574Z" fill="#FF885F"/>
<path d="M260.052 202.544L243.945 198.302L239.997 215.604L256.104 219.846L260.052 202.544Z" stroke="#222222" stroke-width="2.2908" stroke-miterlimit="10"/>
<path d="M270.561 207.246L336.144 224.525" stroke="#222222" stroke-width="2.2908" stroke-miterlimit="10"/>
<path d="M267.868 219.076L311.695 230.632" stroke="#5A76C7" stroke-width="2.2908" stroke-miterlimit="10"/>
<path d="M245.883 206.052L249.289 212.097L265.033 201.858" stroke="#5A76C7" stroke-width="2.2908" stroke-miterlimit="10"/>
<path d="M251.975 237.943L235.868 233.702L231.919 251.003L248.026 255.245L251.975 237.943Z" stroke="#222222" stroke-width="2.2908" stroke-miterlimit="10"/>
<path d="M262.482 242.646L328.065 259.925" stroke="#222222" stroke-width="2.2908" stroke-miterlimit="10"/>
<path d="M259.789 254.477L303.616 266.032" stroke="#5A76C7" stroke-width="2.2908" stroke-miterlimit="10"/>
<path d="M237.805 241.452L241.21 247.498L256.954 237.259" stroke="#5A76C7" stroke-width="2.2908" stroke-miterlimit="10"/>
<path d="M243.896 273.334L227.789 269.092L223.841 286.394L239.948 290.636L243.896 273.334Z" stroke="#222222" stroke-width="2.2908" stroke-miterlimit="10"/>
<path d="M254.404 278.046L319.987 295.325" stroke="#222222" stroke-width="2.2908" stroke-miterlimit="10"/>
<path d="M251.711 289.892L295.537 301.432" stroke="#5A76C7" stroke-width="2.2908" stroke-miterlimit="10"/>
<path d="M229.726 276.852L233.132 282.898L248.875 272.659" stroke="#5A76C7" stroke-width="2.2908" stroke-miterlimit="10"/>
<path opacity="0.4" d="M325.558 164.316L285.592 153.786C283.526 153.235 281.432 154.597 280.933 156.816C280.42 159.035 281.688 161.285 283.754 161.821L323.72 172.351C325.786 172.902 327.88 171.539 328.379 169.32C328.892 167.101 327.624 164.851 325.558 164.316Z" fill="white"/>
<path d="M59.5919 200.052L89.598 181.35L131.145 258.257C133.539 262.695 132.142 268.373 128.01 270.945L112.965 280.327C108.833 282.898 103.547 281.398 101.153 276.959L59.5919 200.052Z" fill="white"/>
<path d="M51.3281 188.819L84.5971 168.081C86.5348 166.872 89.0139 167.576 90.1395 169.657L92.6899 174.371C93.8155 176.452 93.16 179.115 91.2223 180.325L57.9535 201.063C56.0157 202.272 53.5366 201.568 52.411 199.486L49.8606 194.772C48.7351 192.691 49.4047 190.028 51.3281 188.819Z" fill="white"/>
<path d="M35.7124 159.908L68.9813 139.17C70.919 137.961 73.3982 138.665 74.5238 140.746L77.0741 145.46C78.1997 147.541 77.5443 150.205 75.6066 151.414L42.3377 172.152C40.3999 173.361 37.9208 172.657 36.7952 170.575L34.2449 165.861C33.1193 163.78 33.7747 161.117 35.7124 159.908Z" fill="white"/>
<path d="M56.5646 185.519L79.2759 171.362L70.2727 154.696L47.5614 168.853L56.5646 185.519Z" fill="#6AAFFC"/>
<path d="M70.3206 154.704L52.6674 178.243L47.6094 168.861L70.3206 154.704Z" fill="#222222"/>
<path opacity="0.4" d="M62.9203 181.551L72.9266 175.314L63.9235 158.648L53.9172 164.886L62.9203 181.551Z" fill="white"/>
<path d="M64.5217 159.694L56.7423 170.055L53.9641 164.912L63.966 158.668L64.5217 159.694Z" fill="#222222"/>
<path d="M80.7525 230.301L103.464 216.144L85.8938 183.62L63.1825 197.777L80.7525 230.301Z" fill="#5A76C7"/>
<path d="M82.3057 229.333L101.924 217.104L84.3539 184.581L64.7356 196.81L82.3057 229.333Z" fill="#6AAFFC"/>
<path d="M115.472 278.765L125.474 272.536L129.435 279.867C129.891 280.694 129.62 281.765 128.851 282.24L121.656 286.724C120.886 287.214 119.889 286.923 119.447 286.096L115.472 278.765Z" fill="#6AAFFC"/>
<path d="M123.423 285.607L127.07 283.342L151.42 328.414C152.004 329.501 151.662 330.879 150.65 331.506C149.639 332.134 148.356 331.766 147.772 330.68L123.423 285.607Z" fill="white"/>
<path d="M85.5801 239.141L108.291 224.984L127.868 261.226C128.623 262.619 128.181 264.394 126.885 265.19L108.847 276.439C107.55 277.25 105.898 276.776 105.157 275.383L85.5801 239.141Z" fill="#FFBB38"/>
<path opacity="0.4" d="M87.1139 226.34L97.1202 220.103L79.5502 187.579L69.5439 193.816L87.1139 226.34Z" fill="white"/>
<path d="M80.8071 230.31L103.518 216.153L108.291 224.984L101.837 233.601C100.312 235.636 98.1468 236.983 95.7531 237.396L85.5943 239.141L80.8071 230.31Z" fill="#222222"/>
<path d="M89.5838 181.35L66.2741 212.434L59.5919 200.052L89.5838 181.35Z" fill="#222222"/>
<path d="M111.468 259.051L120.574 253.375L118.894 250.264L109.787 255.941L111.468 259.051Z" fill="white"/>
<path d="M111.791 250.74L117.299 247.306L115.619 244.196L110.11 247.629L111.791 250.74Z" fill="white"/>
<path d="M104.927 246.918L114.033 241.241L112.353 238.131L103.246 243.807L104.927 246.918Z" fill="white"/>
<path d="M105.236 238.591L110.744 235.157L109.064 232.046L103.555 235.48L105.236 238.591Z" fill="white"/>
<path d="M98.3448 234.761L107.452 229.085L105.771 225.974L96.6643 231.65L98.3448 234.761Z" fill="white"/>
<path d="M98.6681 226.45L104.177 223.016L102.496 219.905L96.9876 223.339L98.6681 226.45Z" fill="white"/>
<path d="M91.7948 222.618L100.902 216.941L99.2211 213.831L90.1143 219.507L91.7948 222.618Z" fill="white"/>
<path d="M92.113 214.301L97.6214 210.867L95.9409 207.756L90.4325 211.19L92.113 214.301Z" fill="white"/>
<path d="M310.099 300.391V303.712C310.099 313.11 317.18 320.716 325.928 320.716C334.676 320.716 341.758 313.11 341.758 303.712V300.391H310.099Z" fill="#222222"/>
<path d="M325.928 317.395C334.671 317.395 341.758 309.782 341.758 300.391C341.758 291 334.671 283.388 325.928 283.388C317.186 283.388 310.099 291 310.099 300.391C310.099 309.782 317.186 317.395 325.928 317.395Z" fill="#6AAFFC"/>
<path d="M325.771 285.959C326.512 288.362 326.897 290.764 327.182 293.167C327.438 295.57 327.567 297.973 327.567 300.376C327.567 302.779 327.453 305.182 327.182 307.585C326.897 309.987 326.527 312.39 325.771 314.793C325.016 312.39 324.646 309.987 324.361 307.585C324.104 305.182 323.976 302.779 323.976 300.376C323.976 297.973 324.104 295.57 324.361 293.167C324.66 290.764 325.031 288.362 325.771 285.959Z" fill="#5A76C7"/>
<path d="M339.677 47.0037V50.3249C339.677 59.7221 346.759 67.3286 355.507 67.3286C364.255 67.3286 371.336 59.7221 371.336 50.3249V47.0037H339.677Z" fill="#222222"/>
<path d="M355.507 64.0074C364.249 64.0074 371.336 56.3946 371.336 47.0037C371.336 37.6128 364.249 30 355.507 30C346.765 30 339.677 37.6128 339.677 47.0037C339.677 56.3946 346.765 64.0074 355.507 64.0074Z" fill="#FFBB38"/>
<path d="M345.847 36.7953C347.956 37.9279 349.808 39.3513 351.589 40.8358C353.355 42.3357 355.022 43.9427 356.618 45.6416C358.2 47.3404 359.696 49.1311 361.092 51.0289C362.474 52.942 363.799 54.9316 364.839 57.1967C362.731 56.0642 360.878 54.6561 359.097 53.1716C357.331 51.6717 355.664 50.0647 354.082 48.3658C352.501 46.667 351.005 44.8763 349.608 42.9632C348.226 41.0501 346.901 39.0758 345.847 36.7953Z" fill="#FF885F"/>
<path d="M52.3683 55.6509L36.4106 72.7924C31.1246 78.4705 31.1246 87.6841 36.4106 93.3622C41.6966 99.0403 50.2738 99.0403 55.5598 93.3622L71.5174 76.2207C76.8034 70.5426 76.8034 61.3291 71.5174 55.6509C66.2314 49.9728 57.6543 49.9728 52.3683 55.6509Z" fill="#6AAFFC"/>
<path d="M52.3682 55.6509L44.3893 64.2217L63.5386 84.7914L71.5174 76.2207C76.8033 70.5426 76.8033 61.3291 71.5174 55.6509C66.2314 49.9728 57.6542 49.9728 52.3682 55.6509Z" fill="#FF885F"/>
<path opacity="0.4" d="M56.2578 56.2785L37.0089 76.9554C35.7978 78.2563 35.7978 80.353 37.0089 81.6386C38.22 82.9396 40.1719 82.9396 41.3688 81.6386L60.6177 60.9618C61.8288 59.6608 61.8288 57.5641 60.6177 56.2785C59.4066 54.9776 57.4547 54.9776 56.2578 56.2785Z" fill="white"/>
<path d="M199.72 270.088L162.875 261.394L145.706 345.388C143.469 356.315 149.91 367.12 160.083 369.523C170.256 371.926 180.315 365.008 182.552 354.081L199.72 270.088Z" fill="white"/>
<path d="M188.179 300.208L177.422 352.856C175.812 360.723 168.546 365.728 161.208 363.998C153.87 362.269 149.226 354.463 150.836 346.581L161.593 293.933L188.179 300.208Z" fill="#FF885F"/>
<path d="M201.458 259.742L165.326 251.217C162.69 250.589 160.082 252.38 159.498 255.227C158.914 258.058 160.581 260.859 163.231 261.486L199.364 270.011C202 270.639 204.607 268.848 205.191 266.001C205.761 263.17 204.094 260.369 201.458 259.742Z" fill="white"/>
<path d="M162.861 261.394L196.614 285.301L199.72 270.088L162.861 261.394Z" fill="#222222"/>
<path opacity="0.4" d="M165.497 330.695L173.661 290.749C174.174 288.254 172.706 285.775 170.369 285.239C168.047 284.688 165.739 286.265 165.24 288.775L157.076 328.721C156.563 331.215 158.031 333.695 160.367 334.23C162.69 334.781 164.998 333.205 165.497 330.695Z" fill="white"/>
<path d="M88.9996 301.448L76.9601 300.392C74.4382 300.178 72.0589 298.984 70.2636 297.071L4.97965 226.944C-1.65988 219.812 -1.65988 208.257 4.97965 201.124C11.6192 193.992 22.3764 193.992 29.0159 201.124L94.2999 271.251C96.0951 273.18 97.1922 275.72 97.3916 278.445L98.3748 291.377L109.346 303.162C111.939 305.948 111.939 310.462 109.346 313.248C106.753 316.033 102.549 316.033 99.9563 313.248L88.9996 301.448Z" fill="white"/>
<path opacity="0.2" d="M99.9848 313.232L94.6561 307.508L104.045 297.422L109.374 303.146C111.967 305.932 111.967 310.447 109.374 313.232C106.767 316.018 102.578 316.018 99.9848 313.232Z" fill="#222222"/>
<path d="M17.5035 240.381L4.97965 226.928C-1.65988 219.796 -1.65988 208.241 4.97965 201.109C11.6192 193.976 22.3763 193.976 29.0159 201.109L41.5398 214.562L17.5035 240.381Z" fill="#6AAFFC"/>
<path d="M22.6613 220.087C19.6834 223.285 14.8534 223.285 11.8756 220.087C8.89776 216.888 8.89776 211.699 11.8756 208.501C14.8534 205.302 19.6834 205.302 22.6613 208.501C25.6391 211.699 25.6391 216.888 22.6613 220.087Z" fill="white"/>
<path opacity="0.2" d="M88.228 280.166L40.2723 228.653L30.6308 239.01L78.5865 290.523L88.228 280.166Z" fill="#222222"/>
<path opacity="0.2" d="M32.8058 239.003L79.6672 289.341L78.5701 290.52L30.6259 239.003L40.2575 228.642L41.3546 229.82L32.8058 239.003Z" fill="#222222"/>
</g>
</g>
<defs>
<filter id="filter0_d_401_554" x="-4" y="28" width="438" height="348" filterUnits="userSpaceOnUse" color-interpolation-filters="sRGB">
<feFlood flood-opacity="0" result="BackgroundImageFix"/>
<feColorMatrix in="SourceAlpha" type="matrix" values="0 0 0 0 0 0 0 0 0 0 0 0 0 0 0 0 0 0 127 0" result="hardAlpha"/>
<feOffset dy="2"/>
<feGaussianBlur stdDeviation="2"/>
<feComposite in2="hardAlpha" operator="out"/>
<feColorMatrix type="matrix" values="0 0 0 0 0 0 0 0 0 0 0 0 0 0 0 0 0 0 0.25 0"/>
<feBlend mode="normal" in2="BackgroundImageFix" result="effect1_dropShadow_401_554"/>
<feBlend mode="normal" in="SourceGraphic" in2="effect1_dropShadow_401_554" result="shape"/>
</filter>
</defs>
</svg>
