<svg width="26" height="26" viewBox="0 0 26 26" fill="none" xmlns="http://www.w3.org/2000/svg">
<path d="M13.0001 24.9681C19.6099 24.9681 24.9682 19.6098 24.9682 13C24.9682 6.39019 19.6099 1.03188 13.0001 1.03188C6.39029 1.03188 1.03198 6.39019 1.03198 13C1.03198 19.6098 6.39029 24.9681 13.0001 24.9681Z" fill="#D00401"/>
<path d="M16.3956 17.2728L12.9961 13.8122L9.59725 17.2717C9.38156 17.4913 9.02688 17.4879 8.81508 17.265C8.61495 17.0537 8.61661 16.723 8.81841 16.5134L12.2101 12.9989L8.82119 9.52441C8.61773 9.31594 8.6155 8.98406 8.81563 8.77281C9.02688 8.54989 9.38044 8.54711 9.59558 8.76614L12.9956 12.2267L16.3961 8.72889C16.6113 8.50764 16.9659 8.50875 17.18 8.73001C17.3845 8.94181 17.384 9.27814 17.1788 9.48994L13.7677 12.9989L17.1783 16.5067C17.3845 16.7185 17.3851 17.056 17.1794 17.2683C16.9659 17.4907 16.6113 17.4924 16.3956 17.2728Z" fill="white"/>
</svg>
