<svg width="32" height="43" viewBox="0 0 32 43" fill="none" xmlns="http://www.w3.org/2000/svg">
<path d="M21.7004 20.0154H22.8059C21.9031 19.3385 20.8376 18.9119 19.7172 18.7786H17.855V19.389L19.6757 19.386C20.3819 19.477 21.0671 19.6899 21.7004 20.0154Z" fill="#3A556A"/>
<path d="M10.0219 20.0154C10.7345 19.5524 11.5276 19.2273 12.3601 19.057L13.1042 18.9237L12.9968 18.3231L12.2581 18.4549C11.0741 18.7202 9.96725 19.2549 9.02344 20.0173L10.0219 20.0154Z" fill="#3A556A"/>
<path d="M12.3062 14.2863H19.6846V22.7516H12.3062V14.2863Z" fill="#F7BE56"/>
<path d="M20.5272 20.0242L18.9394 20.2273L16.0001 21.862L13.1522 20.2454L11.6576 19.9646L10.2891 20.4075V40.5503H21.0321V20.1878L20.5272 20.0242Z" fill="#D15241"/>
<path d="M32 42.0082H0L1.18352 25.0659C1.22102 24.5485 1.41202 24.054 1.7321 23.6457C2.05217 23.2374 2.48677 22.9339 2.98029 22.774L9.85096 20.5486L11.5911 19.9871C11.822 22.4015 13.029 33.4741 16 39.0523C18.952 33.5117 20.1687 22.5524 20.4089 20.0393L20.5271 20.0252L22.149 20.5486L29.0197 22.774C29.5132 22.9339 29.9478 23.2374 30.2679 23.6457C30.588 24.054 30.779 24.5485 30.8165 25.0659L32 42.0082Z" fill="#D5D6DB"/>
<path d="M23.1251 11.1782C23.3148 10.0647 23.0438 9.08967 22.5197 9.00038C21.9957 8.91109 21.417 9.74138 21.2273 10.8549C21.0376 11.9684 21.3086 12.9434 21.8327 13.0327C22.3567 13.122 22.9353 12.2917 23.1251 11.1782Z" fill="#FCD462"/>
<path d="M10.2317 13.2136C10.7526 13.1073 10.9917 12.124 10.7659 11.0173C10.54 9.91054 9.93466 9.09953 9.4138 9.20583C8.89294 9.31213 8.6538 10.2955 8.87966 11.4022C9.10552 12.5089 9.71086 13.3199 10.2317 13.2136Z" fill="#FCD462"/>
<path d="M20.7913 3.97535L15.9176 3.77565L11.0532 4.13549L9.96729 8.15527C9.96729 8.15527 10.4799 13.0695 10.7382 14.1857C11.1444 15.5064 11.8736 16.7049 12.8597 17.6728C13.6384 18.3402 14.5627 19.284 16.17 19.1375C17.7813 19.2313 18.6738 18.2562 19.4306 17.5634C20.3841 16.5636 21.0735 15.342 21.4363 14.0089C21.6575 12.8859 22.009 7.9546 22.009 7.9546L20.7913 3.97535Z" fill="#FCD462"/>
<path opacity="0.5" d="M17.3303 8.72994C17.1983 8.91682 17.1207 9.13674 17.1064 9.36514C17.0921 9.59353 17.1416 9.82141 17.2493 10.0233C17.2493 10.0233 18.1823 9.45109 18.7502 9.63711C18.9933 9.70183 19.2275 9.79646 19.4474 9.91884C19.4474 9.91884 19.7779 9.3549 20.2032 9.26897L19.5553 8.64401L17.9685 8.54636L17.3303 8.72994Z" fill="#F7BE56"/>
<path d="M19.6812 8.55368C19.4855 8.33877 19.2156 8.206 18.9259 8.18212C18.2043 8.12206 16.8953 8.06103 17.0217 8.42625C17.0694 8.56792 17.1707 8.68532 17.3038 8.75338C17.4369 8.82143 17.5913 8.83475 17.7341 8.79048C18.1779 8.7306 18.625 8.69799 19.0729 8.69283C19.253 8.68887 19.4311 8.73142 19.5899 8.81636L20.2027 9.26994L19.6812 8.55368Z" fill="#3A556A"/>
<path d="M17.2495 10.0233C17.2495 10.0233 18.2294 11.1273 19.4466 9.91885L18.9154 9.72355L17.9091 9.64933L17.2495 10.0233Z" fill="#EBF0F3"/>
<path d="M18.3384 10.4818C18.5697 10.4818 18.7573 10.2942 18.7573 10.0629C18.7573 9.83149 18.5697 9.64394 18.3384 9.64394C18.107 9.64394 17.9194 9.83149 17.9194 10.0629C17.9194 10.2942 18.107 10.4818 18.3384 10.4818Z" fill="#3A556A"/>
<path d="M18.3388 10.238C18.4353 10.238 18.5135 10.1598 18.5135 10.0633C18.5135 9.96681 18.4353 9.88859 18.3388 9.88859C18.2423 9.88859 18.1641 9.96681 18.1641 10.0633C18.1641 10.1598 18.2423 10.238 18.3388 10.238Z" fill="#64798A"/>
<path d="M17.2495 10.0233C17.3679 9.85827 17.522 9.72209 17.7004 9.62495C17.8788 9.52781 18.0768 9.47222 18.2797 9.46233C18.7082 9.48398 19.118 9.64419 19.4476 9.91885C19.0805 9.77059 18.6846 9.70733 18.2895 9.7338C17.9303 9.77785 17.5798 9.87544 17.2495 10.0233Z" fill="#F7BE56"/>
<path d="M17.2495 10.0233C17.3263 10.0934 17.4097 10.1559 17.4985 10.2098C17.541 10.2396 17.5874 10.2621 17.6313 10.288C17.6753 10.3138 17.7236 10.3319 17.7705 10.3514C17.9574 10.429 18.16 10.4613 18.3617 10.4457C18.411 10.4417 18.4599 10.4347 18.5082 10.4247C18.5332 10.4211 18.558 10.4162 18.5824 10.41L18.6542 10.3866C18.7029 10.3735 18.7507 10.3572 18.7973 10.3378C18.8427 10.3148 18.8886 10.2933 18.935 10.2718C18.9815 10.2502 19.0259 10.2244 19.0678 10.1947L19.1981 10.1112C19.2806 10.0492 19.3602 9.98231 19.4457 9.9203C19.3763 9.99842 19.3026 10.0731 19.2284 10.1493L19.1034 10.2469C19.0627 10.2814 19.0191 10.3123 18.973 10.3392C18.7901 10.4549 18.5826 10.5261 18.3671 10.5472C18.15 10.5638 17.9324 10.5209 17.7378 10.4232C17.5466 10.329 17.3795 10.1922 17.2495 10.0233Z" fill="#F7BE56"/>
<path opacity="0.5" d="M15.0721 8.76707C15.2103 8.94946 15.2951 9.16671 15.3169 9.39452C15.3387 9.62234 15.2967 9.85173 15.1956 10.057C15.1956 10.057 14.2445 9.51605 13.682 9.72014C13.441 9.79285 13.2099 9.89519 12.9941 10.0248C12.9941 10.0248 12.6455 9.47211 12.2173 9.39985L12.8457 8.75389L14.4281 8.60741L15.0721 8.76707Z" fill="#F7BE56"/>
<path d="M12.7173 8.666C12.9058 8.44486 13.1712 8.30338 13.4599 8.27002C14.1791 8.18604 15.4856 8.08253 15.3699 8.45263C15.327 8.59583 15.2298 8.71657 15.0991 8.78902C14.9683 8.86147 14.8144 8.87987 14.6703 8.8403C14.2247 8.79491 13.7768 8.77697 13.329 8.78659C13.1488 8.78819 12.9721 8.83629 12.8159 8.92623L12.2183 9.39984L12.7173 8.666Z" fill="#3A556A"/>
<path d="M15.1962 10.057C15.1962 10.057 14.2533 11.1922 12.9956 10.0248L13.5205 9.81241L14.5238 9.705L15.1962 10.057Z" fill="#EBF0F3"/>
<path d="M14.1089 10.5511C14.3402 10.5511 14.5278 10.3636 14.5278 10.1322C14.5278 9.90086 14.3402 9.7133 14.1089 9.7133C13.8775 9.7133 13.6899 9.90086 13.6899 10.1322C13.6899 10.3636 13.8775 10.5511 14.1089 10.5511Z" fill="#3A556A"/>
<path d="M14.1093 10.3073C14.2058 10.3073 14.284 10.2291 14.284 10.1326C14.284 10.0361 14.2058 9.95791 14.1093 9.95791C14.0128 9.95791 13.9346 10.0361 13.9346 10.1326C13.9346 10.2291 14.0128 10.3073 14.1093 10.3073Z" fill="#64798A"/>
<path d="M15.1962 10.057C15.0724 9.8959 14.9139 9.76482 14.7323 9.6736C14.5508 9.58237 14.351 9.53335 14.1479 9.5302C13.7203 9.5658 13.3159 9.73938 12.9956 10.0248C13.3577 9.86467 13.7513 9.78855 14.1469 9.80216C14.5074 9.83408 14.8611 9.91999 15.1962 10.057Z" fill="#F7BE56"/>
<path d="M15.1957 10.057C15.1207 10.1297 15.0389 10.1951 14.9515 10.2523C14.91 10.2831 14.8646 10.307 14.8217 10.3348C14.7787 10.3627 14.7304 10.3837 14.6845 10.4027C14.4543 10.5093 14.1972 10.5433 13.9472 10.5004C13.9228 10.496 13.8984 10.4955 13.873 10.4886L13.8002 10.4672C13.7504 10.4555 13.7015 10.4403 13.6538 10.4218C13.6079 10.4003 13.561 10.3803 13.5136 10.3602C13.4665 10.3403 13.4214 10.3159 13.3789 10.2875L13.2456 10.2084C13.1611 10.1493 13.0791 10.0849 12.9917 10.0258C13.064 10.1015 13.1382 10.1723 13.2163 10.2474L13.3447 10.3407C13.3864 10.3738 13.431 10.403 13.478 10.4281C13.6644 10.5382 13.8742 10.6026 14.0903 10.6161C14.3082 10.6254 14.5246 10.5747 14.7157 10.4696C14.9054 10.3709 15.0696 10.2297 15.1957 10.057Z" fill="#F7BE56"/>
<path opacity="0.5" d="M17.049 13.01C16.9401 13.5827 16.5177 13.4465 16.5177 13.4465C16.5019 13.5317 16.4571 13.6089 16.3908 13.6649C16.3246 13.7209 16.2411 13.7522 16.1543 13.7537C16.0676 13.7551 15.9831 13.7265 15.915 13.6728C15.847 13.619 15.7996 13.5434 15.781 13.4587C15.781 13.4587 15.3635 13.6086 15.2356 13.0398C15.1982 13.0735 15.1685 13.1149 15.1484 13.1611C15.1283 13.2073 15.1184 13.2572 15.1192 13.3076C15.12 13.358 15.1316 13.4076 15.1532 13.4531C15.1748 13.4986 15.2059 13.539 15.2444 13.5715C15.531 13.839 15.6101 13.7731 15.6101 13.7731C15.6478 13.8891 15.7217 13.9899 15.8209 14.0607C15.9201 14.1315 16.0395 14.1687 16.1614 14.1667C16.2833 14.1646 16.4014 14.1236 16.4982 14.0495C16.595 13.9754 16.6655 13.8722 16.6994 13.7551C16.6994 13.7551 16.7804 13.8185 17.0577 13.5417C17.0952 13.508 17.125 13.4666 17.1451 13.4204C17.1652 13.3742 17.1752 13.3242 17.1744 13.2738C17.1736 13.2234 17.1619 13.1738 17.1403 13.1283C17.1187 13.0828 17.0875 13.0424 17.049 13.01Z" fill="#F7BE56"/>
<path opacity="0.5" d="M16.1258 15.7701C16.9723 15.7002 17.8137 15.5784 18.6452 15.4053C18.6452 15.4053 16.8719 15.1124 16.6131 15.043C16.5207 15.0326 16.4271 15.0434 16.3396 15.0746C16.252 15.1059 16.1727 15.1567 16.1078 15.2232C16.0408 15.1588 15.9599 15.1105 15.8714 15.0822C15.7829 15.0538 15.689 15.0461 15.597 15.0597C15.3407 15.1358 13.5781 15.4888 13.5781 15.4888C14.4149 15.6343 15.2599 15.7284 16.1082 15.7705L16.1258 15.7701Z" fill="#F7BE56"/>
<path d="M14.4238 23.3536L15.599 24.6191L14.7129 36.9504L15.9999 39.0514L17.5877 36.9504L16.6659 24.4746L17.4793 23.0826L16.0023 21.8439L14.4238 23.3536Z" fill="#D5D6DB"/>
<path d="M20.9506 20.1458L19.706 18.5428L16.0026 21.8439L12.2944 18.5428L11.0498 20.1458L13.8836 24.8881L16.0026 21.8908L18.1172 24.8881L20.9506 20.1458Z" fill="#E56353"/>
<path d="M21.1448 27.4842L21.6116 29.2761C20.1873 34.7274 16.0001 39.0845 16.0001 39.0845C16.0001 39.0845 15.981 39.0606 15.9766 39.0562C15.7076 38.773 11.7704 34.5433 10.3935 29.2761L10.8603 27.4842L9.33691 26.0223L9.85104 20.5476L11.5438 19.5149C11.5438 19.5149 11.558 19.68 11.5926 19.9861C11.8236 22.4005 13.0305 33.4731 16.0015 39.0513C18.9535 33.5107 20.1702 22.5514 20.4105 20.0383C20.4485 19.6966 20.4627 19.5149 20.4627 19.5149L22.1506 20.5476L22.6081 26.1591L21.1448 27.4842Z" fill="#EBF0F3"/>
<path d="M21.0166 1.60585C19.9224 0.518027 17.9201 -7.62939e-06 15.9876 -7.62939e-06C14.0551 -7.62939e-06 12.0538 0.518027 10.9586 1.60585C9.86348 2.69368 9.67989 5.72181 9.70186 7.3555C9.72383 8.98919 10.0627 11.5901 10.0627 11.5901L10.4328 11.6067L10.5631 10.1268C10.5631 10.1268 11.0055 5.07634 11.9835 4.66182C12.9614 4.24729 15.9871 4.42892 15.9871 4.42892C15.9871 4.42892 19.0143 4.24778 19.9908 4.66182C20.9673 5.07585 21.4106 10.1268 21.4106 10.1268L21.5415 11.6067L21.9111 11.5901C21.9111 11.5901 22.249 8.98724 22.2719 7.3555C22.2948 5.72377 22.1103 2.69465 21.0166 1.60585Z" fill="#3A556A"/>
<path d="M22.5785 19.8533H21.3647C24.9915 21.4435 25.0134 26.0184 25.0125 26.2377L25.6228 26.2425C25.6233 26.1893 25.6086 21.9537 22.5785 19.8533Z" fill="#3A556A"/>
<path d="M10.2875 19.8533H9.23389C7.63438 21.0417 5.96016 23.1914 5.7673 27.0306C5.71781 28.1989 5.81077 29.3689 6.04414 30.5147C6.41395 32.4773 6.89054 34.4182 7.47179 36.3288L8.05378 36.1448C7.4796 34.2566 7.00888 32.3385 6.64372 30.399C6.41951 29.3014 6.32982 28.1806 6.37664 27.0613C6.58952 22.8257 8.64457 20.8019 10.2875 19.8533Z" fill="#3A556A"/>
<path d="M8.02186 37.7833C9.02686 37.7833 9.84158 36.9686 9.84158 35.9636C9.84158 34.9586 9.02686 34.1439 8.02186 34.1439C7.01686 34.1439 6.20215 34.9586 6.20215 35.9636C6.20215 36.9686 7.01686 37.7833 8.02186 37.7833Z" fill="#3A556A"/>
<path d="M8.02141 37.218C8.71415 37.218 9.27573 36.6564 9.27573 35.9636C9.27573 35.2709 8.71415 34.7093 8.02141 34.7093C7.32867 34.7093 6.76709 35.2709 6.76709 35.9636C6.76709 36.6564 7.32867 37.218 8.02141 37.218Z" fill="#2F4859"/>
<path d="M8.02194 36.5578C8.3501 36.5578 8.61614 36.2918 8.61614 35.9636C8.61614 35.6355 8.3501 35.3694 8.02194 35.3694C7.69377 35.3694 7.42773 35.6355 7.42773 35.9636C7.42773 36.2918 7.69377 36.5578 8.02194 36.5578Z" fill="#64798A"/>
<path d="M24.9538 25.6064H25.0515H26.2194H26.317C26.7115 25.6064 27.9024 25.6108 28.8691 27.8123C29.4206 29.3212 29.7363 30.9061 29.8051 32.5112C29.8798 33.7006 29.9003 35.7781 29.1962 36.3235C28.5539 36.7525 27.7931 36.9691 27.0211 36.9426C26.8559 36.9435 26.6907 36.935 26.5265 36.9172H26.5138L26.5934 36.2825H26.6061C26.7436 36.2962 26.8818 36.3027 27.0201 36.302C27.6504 36.3282 28.2735 36.1592 28.8042 35.8181C29.0649 35.616 29.2895 34.5077 29.1665 32.5517C29.1028 31.0215 28.805 29.51 28.2832 28.0701C27.5655 26.4359 26.8106 26.247 26.3053 26.247H26.2282H25.0417H24.9636C24.4587 26.247 23.7044 26.4359 22.9867 28.0701C22.4646 29.5098 22.1665 31.0211 22.1029 32.5513C21.9799 34.5072 22.2045 35.6155 22.4647 35.8177C22.9956 36.1589 23.6188 36.328 24.2493 36.302C24.3875 36.3028 24.5258 36.2961 24.6633 36.282H24.676L24.7556 36.9167H24.7429C24.5786 36.9345 24.4135 36.943 24.2483 36.9421C23.4763 36.9686 22.7155 36.7521 22.0731 36.323C21.3686 35.7776 21.3896 33.7001 21.4643 32.5107C21.533 30.9057 21.8485 29.3208 22.3998 27.8118C23.369 25.6064 24.5617 25.6064 24.9538 25.6064Z" fill="#44C4A1"/>
<path d="M22.3593 30.6905C22.4799 29.8002 22.7061 28.9274 23.0331 28.0906C23.7386 26.4833 24.4725 26.2977 24.9632 26.2977H25.0413H26.1789H26.2312H26.3049C26.7961 26.2977 27.5304 26.4833 28.2359 28.0906C28.5627 28.9275 28.7889 29.8003 28.9097 30.6905H29.6597C29.5295 29.6978 29.2797 28.7245 28.9156 27.7918C27.9332 25.5551 26.7184 25.5551 26.3142 25.5551H26.2165H25.0496H24.9519C24.5516 25.5551 23.3334 25.5551 22.351 27.7918C21.9869 28.7244 21.7372 29.6978 21.6074 30.6905H22.3593Z" fill="#3A556A"/>
<path d="M26.4678 37.218H27.1826C27.3409 37.218 27.4692 37.0896 27.4692 36.9314V36.3586C27.4692 36.2003 27.3409 36.072 27.1826 36.072H26.4678C26.3095 36.072 26.1812 36.2003 26.1812 36.3586V36.9314C26.1812 37.0896 26.3095 37.218 26.4678 37.218Z" fill="#3A556A"/>
<path d="M24.0308 37.218H24.7456C24.9039 37.218 25.0322 37.0896 25.0322 36.9314V36.3586C25.0322 36.2003 24.9039 36.072 24.7456 36.072H24.0308C23.8725 36.072 23.7442 36.2003 23.7442 36.3586V36.9314C23.7442 37.0896 23.8725 37.218 24.0308 37.218Z" fill="#3A556A"/>
<path d="M29.0792 32.0288C29.0494 31.9104 29.0131 31.7937 28.9703 31.6793C28.94 31.5782 28.9039 31.4791 28.8643 31.3809C28.7844 31.1844 28.6916 30.9935 28.5865 30.8092C28.3795 30.4382 28.131 30.0919 27.8458 29.777C27.5654 29.463 27.238 29.1944 26.8752 28.9807C26.6951 28.8776 26.5038 28.7957 26.3049 28.7366C26.1074 28.6811 25.9031 28.6536 25.698 28.655C25.2842 28.6649 24.8811 28.7882 24.5326 29.0114C24.3543 29.1211 24.1864 29.247 24.0311 29.3874C23.8743 29.5291 23.7259 29.6799 23.5868 29.839C23.3086 30.1636 23.0575 30.5105 22.8359 30.8761C22.6089 31.2393 22.3252 31.8145 22.1338 32.1997L22.0791 31.941C22.2555 31.5429 22.4532 31.1547 22.6714 30.7779C22.8921 30.4001 23.1432 30.0408 23.4223 29.7038C23.7044 29.3605 24.0389 29.0639 24.4134 28.8249C24.7964 28.5776 25.2399 28.4401 25.6956 28.4275C25.9234 28.4267 26.1501 28.4584 26.3689 28.5217C26.5848 28.5864 26.7926 28.6759 26.988 28.7883C27.1813 28.8996 27.3639 29.0285 27.5334 29.1735C27.7025 29.3166 27.8608 29.4719 28.007 29.6384C28.2974 29.9697 28.5489 30.3332 28.7564 30.7218C28.8598 30.9162 28.9504 31.1172 29.0279 31.3233C29.1079 31.5309 29.1648 31.7467 29.1973 31.9668L29.0792 32.0288Z" fill="white"/>
<path d="M21.4302 32.7754L22.126 32.5234C22.1296 32.5221 22.1327 32.5197 22.1349 32.5166C22.1371 32.5134 22.1382 32.5097 22.1382 32.5059C22.1478 32.1248 22.1893 31.7453 22.2622 31.3712C22.2628 31.3678 22.2625 31.3644 22.2613 31.3612C22.2601 31.358 22.2581 31.3552 22.2555 31.353C22.2528 31.3509 22.2497 31.3495 22.2463 31.349C22.2429 31.3485 22.2395 31.3489 22.2363 31.3502L21.501 31.5992C21.498 31.6004 21.4953 31.6024 21.4932 31.605C21.4912 31.6075 21.4898 31.6106 21.4893 31.6138C21.4312 31.9922 21.4028 32.3745 21.4044 32.7573C21.4044 32.7604 21.4052 32.7634 21.4067 32.7661C21.4081 32.7688 21.4102 32.7712 21.4127 32.7729C21.4152 32.7747 21.4181 32.7758 21.4212 32.7762C21.4242 32.7767 21.4273 32.7764 21.4302 32.7754Z" fill="white"/>
<path d="M29.8147 32.7754L29.119 32.5234C29.1153 32.5222 29.1121 32.5198 29.1098 32.5167C29.1075 32.5135 29.1063 32.5097 29.1063 32.5058C29.0972 32.1248 29.0557 31.7452 28.9823 31.3711C28.9816 31.3677 28.9819 31.3642 28.9831 31.361C28.9843 31.3577 28.9864 31.3549 28.9891 31.3527C28.9918 31.3505 28.9951 31.3491 28.9985 31.3487C29.002 31.3483 29.0055 31.3488 29.0086 31.3502L29.7439 31.5992C29.7469 31.6005 29.7494 31.6025 29.7514 31.6051C29.7534 31.6076 29.7547 31.6106 29.7552 31.6138C29.8137 31.9921 29.8423 32.3745 29.8406 32.7573C29.8406 32.7604 29.8398 32.7634 29.8383 32.7661C29.8369 32.7688 29.8348 32.7711 29.8323 32.7729C29.8297 32.7747 29.8268 32.7758 29.8238 32.7762C29.8208 32.7767 29.8176 32.7764 29.8147 32.7754Z" fill="white"/>
</svg>
