<svg width="37" height="37" viewBox="0 0 37 37" fill="none" xmlns="http://www.w3.org/2000/svg">
<path d="M28.3793 12.95H19.931L27.7626 0.616638H17.896L8.646 19.1166H15.9226L8.646 36.3834L28.3793 12.95Z" fill="#FFDD09"/>
<path d="M20.3626 0.616638H17.896L8.646 19.1166H11.1126L20.3626 0.616638Z" fill="white"/>
<path d="M25.2959 12.95L10.4959 30.525L8.0293 36.3834L27.7626 12.95H25.2959Z" fill="#FD9808"/>
<path d="M8.64605 37C8.5227 37 8.39941 37 8.3377 36.9384C8.09105 36.7534 7.9677 36.445 8.09105 36.1984L14.9977 19.7334H8.64605C8.46105 19.7334 8.21441 19.61 8.09105 19.425C7.9677 19.24 7.9677 18.9934 8.09105 18.8084L17.3411 0.308357C17.4644 0.123357 17.6494 0 17.8961 0H27.7627C28.0093 0 28.1943 0.123357 28.3177 0.308357C28.4411 0.493357 28.4411 0.74 28.3177 0.925L21.1027 12.3334H28.3793C28.626 12.3334 28.811 12.4567 28.9343 12.7034C29.0577 12.95 28.996 13.1967 28.8727 13.3817L9.13934 36.815C9.01605 36.9384 8.83105 37 8.64605 37ZM9.6327 18.5H15.9227C16.1077 18.5 16.2927 18.6234 16.4161 18.7466C16.5394 18.9316 16.5394 19.1166 16.4777 19.3016L10.8043 32.8683L27.0843 13.5666H19.931C19.6843 13.5666 19.4993 13.4433 19.376 13.2583C19.2526 13.0733 19.2526 12.8266 19.376 12.6416L26.6527 1.23336H18.2661L9.6327 18.5Z" fill="black"/>
</svg>
