<svg width="48" height="48" viewBox="0 0 48 48" fill="none" xmlns="http://www.w3.org/2000/svg">
<circle cx="24" cy="24" r="24" fill="#E4F7FF"/>
<path d="M36.3152 16.9467C35.3244 14.9519 33.2801 13.4792 29.685 12.1705C25.8517 10.7748 21.9025 9.97401 18.9676 13.5333C18.8828 13.6346 18.8189 13.7516 18.7795 13.8777C18.7402 14.0037 18.7262 14.1363 18.7384 14.2678C18.7506 14.3993 18.7887 14.5271 18.8506 14.6438C18.9124 14.7605 18.9967 14.8638 19.0987 14.9477C19.2007 15.0316 19.3183 15.0945 19.4447 15.1327C19.5711 15.1709 19.7038 15.1837 19.8352 15.1704C19.9666 15.1571 20.094 15.1178 20.2101 15.055C20.3263 14.9921 20.4288 14.9069 20.5118 14.8041C22.2878 12.6479 24.59 12.4441 29.0001 14.0503C32.0756 15.1688 33.7801 16.3367 34.5236 17.8355C35.2982 19.3955 35.1252 21.5867 33.9806 24.7312C33.7104 25.4888 33.3965 26.2301 33.0405 26.9513C32.9813 27.0687 32.9459 27.1965 32.9362 27.3276C32.9266 27.4587 32.9429 27.5903 32.9843 27.7151C33.0257 27.8398 33.0913 27.9551 33.1773 28.0544C33.2634 28.1537 33.3682 28.2351 33.4858 28.2937C33.6242 28.364 33.7772 28.4006 33.9324 28.4004C34.1179 28.4008 34.2999 28.3495 34.458 28.2522C34.616 28.1549 34.7437 28.0155 34.8269 27.8496C35.2176 27.0583 35.5627 26.2453 35.8608 25.4147C37.2228 21.6705 37.3634 19.0585 36.3152 16.9467Z" fill="#003865"/>
<path d="M21.3333 16.3333C13.7044 16.3333 11 19.0377 11 26.6667C11 34.1992 13.8008 37 21.3333 37C28.8659 37 31.6667 34.1992 31.6667 26.6667C31.6667 19.0377 28.9623 16.3333 21.3333 16.3333ZM13 26.6667C13 20.2031 14.8697 18.3333 21.3333 18.3333C27.4595 18.3333 29.4559 20.0201 29.6479 25.6988C26.9527 25.7591 24.3327 26.5985 22.1044 28.1158C19.8762 29.633 18.1349 31.7631 17.0912 34.2487C17.0604 34.3293 17.0405 34.4137 17.032 34.4996C14.0341 33.5867 13 31.2979 13 26.6667ZM21.3333 35C20.559 35.0037 19.785 34.966 19.0147 34.8871C19.9283 32.8087 21.4115 31.0312 23.2926 29.7601C25.1738 28.489 27.3763 27.7762 29.6455 27.7039C29.4301 33.2631 27.3588 35 21.3333 35Z" fill="#003865"/>
<path d="M18.3146 24.9707C19.2351 24.9707 19.9813 24.2245 19.9813 23.304C19.9813 22.3836 19.2351 21.6374 18.3146 21.6374C17.3941 21.6374 16.6479 22.3836 16.6479 23.304C16.6479 24.2245 17.3941 24.9707 18.3146 24.9707Z" fill="#003865"/>
</svg>
