<svg width="19" height="19" viewBox="0 0 19 19" fill="none" xmlns="http://www.w3.org/2000/svg">
<g clip-path="url(#clip0_210_118)">
<path d="M1.78125 10.9844V18.1094H17.2188V7.125L9.5 0.59375L1.78125 6.82812V10.9844Z" fill="white"/>
<path opacity="0.1" d="M9.49979 0.59375L8.58838 1.33L15.4373 7.125V18.1094H17.2185V7.125L9.49979 0.59375Z" fill="black"/>
<path d="M7.71875 10.0938H11.2812C11.5962 10.0938 11.8982 10.2189 12.1209 10.4416C12.3436 10.6643 12.4688 10.9663 12.4688 11.2812V18.4062H6.53125V11.2812C6.53125 10.9663 6.65636 10.6643 6.87906 10.4416C7.10176 10.2189 7.40381 10.0938 7.71875 10.0938Z" fill="#142E23"/>
<path opacity="0.1" d="M11.2812 10.0938H9.5C9.81494 10.0938 10.117 10.2189 10.3397 10.4416C10.5624 10.6643 10.6875 10.9663 10.6875 11.2812V18.4062H12.4688V11.2812C12.4688 10.9663 12.3436 10.6643 12.1209 10.4416C11.8982 10.2189 11.5962 10.0938 11.2812 10.0938Z" fill="black"/>
<path d="M8.90625 14.8438C9.23417 14.8438 9.5 14.5779 9.5 14.25C9.5 13.9221 9.23417 13.6562 8.90625 13.6562C8.57833 13.6562 8.3125 13.9221 8.3125 14.25C8.3125 14.5779 8.57833 14.8438 8.90625 14.8438Z" fill="white"/>
<path d="M18.786 7.26155L15.7341 4.7203V2.67187C15.7341 2.51439 15.6716 2.36337 15.5602 2.25202C15.4489 2.14067 15.2979 2.07812 15.1404 2.07812C14.9829 2.07812 14.8319 2.14067 14.7205 2.25202C14.6092 2.36337 14.5466 2.51439 14.5466 2.67187V3.72874L10.6398 0.474991C10.3197 0.208397 9.91632 0.0624084 9.49977 0.0624084C9.08321 0.0624084 8.67984 0.208397 8.35977 0.474991L0.213517 7.26155C0.0922632 7.36234 0.0160114 7.50716 0.0015359 7.66416C-0.0129396 7.82116 0.0355471 7.97749 0.136329 8.09874C0.237112 8.21999 0.381934 8.29625 0.538937 8.31072C0.69594 8.3252 0.852263 8.27671 0.973517 8.17593L9.11977 1.3864C9.22646 1.29753 9.36092 1.24887 9.49977 1.24887C9.63862 1.24887 9.77308 1.29753 9.87977 1.3864L16.6248 7.00624V17.2187C16.6248 17.3762 16.5622 17.5272 16.4509 17.6386C16.3395 17.7499 16.1885 17.8125 16.031 17.8125H13.0623V11.2812C13.0623 10.8088 12.8746 10.3558 12.5406 10.0217C12.2065 9.68766 11.7534 9.49999 11.281 9.49999H7.71852C7.2461 9.49999 6.79303 9.68766 6.45898 10.0217C6.12493 10.3558 5.93727 10.8088 5.93727 11.2812V17.8125H2.96852C2.81104 17.8125 2.66002 17.7499 2.54867 17.6386C2.43732 17.5272 2.37477 17.3762 2.37477 17.2187V10.0937C2.37477 9.93627 2.31221 9.78524 2.20086 9.67389C2.08951 9.56255 1.93849 9.49999 1.78102 9.49999C1.62354 9.49999 1.47252 9.56255 1.36117 9.67389C1.24982 9.78524 1.18727 9.93627 1.18727 10.0937V17.2187C1.18727 17.6912 1.37493 18.1442 1.70898 18.4783C2.04303 18.8123 2.4961 19 2.96852 19H16.031C16.5034 19 16.9565 18.8123 17.2906 18.4783C17.6246 18.1442 17.8123 17.6912 17.8123 17.2187V7.9978L18.026 8.17593C18.1328 8.26445 18.2673 8.31276 18.406 8.31249C18.5283 8.31273 18.6476 8.27522 18.7478 8.20509C18.8479 8.13495 18.924 8.03561 18.9655 7.92064C19.0071 7.80566 19.0122 7.68066 18.9801 7.56269C18.9479 7.44473 18.8802 7.33956 18.786 7.26155ZM7.12477 17.8125V11.2812C7.12477 11.1238 7.18732 10.9727 7.29867 10.8614C7.41002 10.75 7.56104 10.6875 7.71852 10.6875H11.281C11.4385 10.6875 11.5895 10.75 11.7009 10.8614C11.8122 10.9727 11.8748 11.1238 11.8748 11.2812V17.8125H7.12477Z" fill="#08613E"/>
</g>
<defs>
<clipPath id="clip0_210_118">
<rect width="19" height="19" fill="white"/>
</clipPath>
</defs>
</svg>
