<svg width="185" height="183" viewBox="0 0 185 183" fill="none" xmlns="http://www.w3.org/2000/svg">
<circle cx="45" cy="138" r="45" fill="#CBEADD"/>
<g clip-path="url(#clip0_78_541)">
<path d="M126.092 163.325L108.873 154.469L91.6507 163.325C90.7311 163.798 89.6401 163.798 88.7212 163.325L71.5021 154.469L54.2831 163.325C53.3641 163.798 52.2728 163.798 51.3532 163.325L38.6688 156.8C37.0958 155.991 36.4763 154.06 37.2857 152.487C38.0951 150.914 40.026 150.294 41.5994 151.104L52.8183 156.875L70.0373 148.019C70.9563 147.546 72.0479 147.546 72.9669 148.019L90.186 156.875L107.408 148.019C108.328 147.547 109.419 147.546 110.338 148.019L127.557 156.875L143.041 148.913V25.9453C143.041 24.1765 144.475 22.7422 146.244 22.7422C148.013 22.7422 149.447 24.1765 149.447 25.9453V150.867C149.447 152.067 148.776 153.167 147.709 153.716L129.022 163.325C128.098 163.799 127.007 163.796 126.092 163.325Z" fill="#003865"/>
<path d="M34.1345 132.587C32.3658 132.587 30.9314 131.153 30.9314 129.384V13.1328C30.9314 6.068 36.6791 0.320312 43.7439 0.320312H162.26C164.028 0.320312 165.463 1.75467 165.463 3.52344C165.463 5.2922 164.028 6.72656 162.26 6.72656H43.7439C40.2115 6.72656 37.3376 9.60041 37.3376 13.1328V129.384C37.3376 131.153 35.9036 132.587 34.1345 132.587Z" fill="#003865"/>
<path d="M181.478 67.5859H146.244C144.475 67.5859 143.041 66.1516 143.041 64.3828V21.1406C143.041 9.66031 152.381 0.320312 163.861 0.320312C175.341 0.320312 184.681 9.66031 184.681 21.1406V64.3828C184.681 66.1516 183.247 67.5859 181.478 67.5859ZM149.447 61.1797H178.275V21.1406C178.275 13.1927 171.809 6.72656 163.861 6.72656C155.913 6.72656 149.447 13.1927 149.447 21.1406V61.1797Z" fill="#003865"/>
<path d="M25.5437 153.829C19.911 148.196 19.9101 139.078 25.5437 133.444L39.1336 119.854C44.7532 114.235 53.8981 114.234 59.5183 119.854C65.1385 125.474 65.1385 134.619 59.5183 140.239L45.9287 153.829C40.3079 159.449 31.1643 159.449 25.5437 153.829ZM43.6635 124.384L30.0736 137.974C26.9512 141.096 26.9512 146.177 30.0736 149.299C33.2027 152.428 38.2688 152.429 41.3982 149.299L54.9878 135.709C58.1102 132.587 58.1102 127.506 54.9878 124.384C51.8584 121.255 46.7933 121.255 43.6635 124.384Z" fill="#08613E"/>
<path d="M48.1933 147.034L32.3388 131.18C31.0879 129.929 31.0879 127.9 32.3388 126.649C33.5899 125.399 35.6175 125.399 36.8689 126.649L52.7234 142.504C53.9743 143.755 53.9743 145.783 52.7234 147.034C51.4717 148.285 49.4444 148.285 48.1933 147.034Z" fill="#08613E"/>
<path d="M130.228 77.1953H50.1501C48.3814 77.1953 46.947 75.761 46.947 73.9922C46.947 72.2234 48.3814 70.7891 50.1501 70.7891H130.228C131.997 70.7891 133.431 72.2234 133.431 73.9922C133.431 75.761 131.997 77.1953 130.228 77.1953Z" fill="#003865"/>
<path d="M130.228 93.2109H50.1501C48.3814 93.2109 46.947 91.7766 46.947 90.0078C46.947 88.239 48.3814 86.8047 50.1501 86.8047H130.228C131.997 86.8047 133.431 88.239 133.431 90.0078C133.431 91.7766 131.997 93.2109 130.228 93.2109Z" fill="#003865"/>
<path d="M85.3845 109.227H50.1501C48.3814 109.227 46.947 107.792 46.947 106.023C46.947 104.255 48.3814 102.82 50.1501 102.82H85.3845C87.1533 102.82 88.5876 104.255 88.5876 106.023C88.5876 107.792 87.1533 109.227 85.3845 109.227Z" fill="#003865"/>
<path d="M96.5955 61.1797H83.783C82.0142 61.1797 80.5798 59.7453 80.5798 57.9766V48.3672H70.9705C69.2017 48.3672 67.7673 46.9328 67.7673 45.1641V32.3516C67.7673 30.5828 69.2017 29.1484 70.9705 29.1484H80.5798V19.5391C80.5798 17.7703 82.0142 16.3359 83.783 16.3359H96.5955C98.3642 16.3359 99.7986 17.7703 99.7986 19.5391V29.1484H109.408C111.177 29.1484 112.611 30.5828 112.611 32.3516V45.1641C112.611 46.9328 111.177 48.3672 109.408 48.3672H99.7986V57.9766C99.7986 59.7453 98.3642 61.1797 96.5955 61.1797ZM86.9861 54.7734H93.3923V45.1641C93.3923 43.3953 94.8267 41.9609 96.5955 41.9609H106.205V35.5547H96.5955C94.8267 35.5547 93.3923 34.1203 93.3923 32.3516V22.7422H86.9861V32.3516C86.9861 34.1203 85.5517 35.5547 83.783 35.5547H74.1736V41.9609H83.783C85.5517 41.9609 86.9861 43.3953 86.9861 45.1641V54.7734Z" fill="#08613E"/>
</g>
<defs>
<clipPath id="clip0_78_541">
<rect width="164" height="164" fill="white" transform="translate(21)"/>
</clipPath>
</defs>
</svg>
