<svg width="25" height="17" viewBox="0 0 25 17" fill="none" xmlns="http://www.w3.org/2000/svg">
<path d="M1.36515 0H23.6348C24.3876 0.00397754 25 0.606575 25 1.34242V15.6576C25 16.3954 24.3815 17 23.6267 17H1.36515C0.614421 16.996 0 16.3934 0 15.6576V1.34242C0 0.606575 0.612386 0.00397754 1.36515 0Z" fill="#FF9933"/>
<path d="M0 5.666H25V11.334H0V5.666Z" fill="white"/>
<path d="M0 11.334H25V15.6576C25 16.3954 24.3815 17 23.6267 17H1.36515C0.614421 16.996 0 16.3934 0 15.6576V11.334Z" fill="#128807"/>
<path d="M14.8193 8.5C14.8193 7.24708 13.7817 6.2328 12.5 6.2328C11.2183 6.2328 10.1807 7.24708 10.1807 8.5C10.1807 9.75094 11.2183 10.7672 12.5 10.7672C13.7817 10.7672 14.8193 9.75293 14.8193 8.5Z" fill="#000088"/>
<path d="M14.5285 8.5C14.5285 7.40419 13.6211 6.5172 12.5001 6.5172C11.3791 6.5172 10.4717 7.40419 10.4717 8.5C10.4717 9.59581 11.3791 10.4828 12.5001 10.4828C13.6211 10.4828 14.5285 9.59581 14.5285 8.5Z" fill="white"/>
<path fill-rule="evenodd" clip-rule="evenodd" d="M12.5003 6.51721L12.4312 7.7065L12.4795 8.10273C12.4578 8.10379 12.4366 8.10651 12.4159 8.11078L12.3577 7.71645L11.9752 6.58484L12.2234 7.75225L12.3753 8.12135C12.3544 8.12796 12.3343 8.13619 12.315 8.14588L12.1542 7.78004L11.4849 6.78168L12.0342 7.84766L12.2791 8.16635C12.2606 8.17812 12.2433 8.19132 12.2271 8.20579L11.9752 7.89142L11.0658 7.0979L11.8776 7.98688L12.198 8.23467C12.1839 8.25019 12.171 8.26681 12.1594 8.2844L11.8328 8.0446L10.7423 7.50763L11.7616 8.16194L12.1388 8.31975C12.1291 8.33854 12.1209 8.3582 12.1143 8.37858L11.7351 8.22951L10.5409 7.98688L11.6985 8.36077L12.1038 8.41795C12.0995 8.43807 12.0968 8.45875 12.0957 8.47988L11.6883 8.43237L10.4717 8.49999L11.6883 8.56761L12.0957 8.5201C12.0968 8.5417 12.0997 8.56284 12.1042 8.58339L11.6985 8.63924L10.5409 9.01313L11.7351 8.7705L12.115 8.62255C12.1216 8.64245 12.1297 8.66165 12.1394 8.68002L11.7616 8.83807L10.7423 9.49238L11.8328 8.95541L12.1601 8.71512C12.1719 8.73292 12.1851 8.74974 12.1996 8.76542L11.8776 9.01308L11.0658 9.90206L11.9752 9.10854L12.2286 8.79372C12.2446 8.80789 12.2618 8.82082 12.28 8.83235L12.0342 9.15233L11.4849 10.2183L12.1542 9.22193L12.3159 8.85262C12.3352 8.86224 12.3554 8.8704 12.3763 8.87694L12.2234 9.24975L11.9752 10.4152L12.3577 9.28356L12.4162 8.88727C12.4369 8.89151 12.4581 8.89422 12.4798 8.89526L12.4312 9.2936L12.5003 10.4829L12.5695 9.2936L12.5209 8.89524C12.5424 8.89418 12.5635 8.89148 12.584 8.88727L12.6425 9.28356L13.025 10.4152L12.7768 9.24975L12.6239 8.87693C12.6448 8.87038 12.665 8.86222 12.6843 8.8526L12.846 9.22193L13.5153 10.2183L12.966 9.15233L12.7202 8.83234C12.7384 8.82079 12.7556 8.80785 12.7716 8.79367L13.025 9.10854L13.9344 9.90206L13.1227 9.01308L12.8006 8.76538C12.8151 8.7497 12.8283 8.73288 12.8401 8.71507L13.1674 8.95541L14.2579 9.49238L13.2386 8.83807L12.8608 8.67999C12.8704 8.6616 12.8786 8.64237 12.8852 8.62245L13.2653 8.7705L14.4596 9.01313L13.3019 8.63924L12.896 8.58335C12.9005 8.56281 12.9033 8.54168 12.9044 8.52009L13.3119 8.56761L14.5285 8.49999L13.3119 8.43237L12.9044 8.47989C12.9034 8.45878 12.9006 8.43809 12.8963 8.41795L13.3019 8.36071L14.4596 7.98682L13.2653 8.22945L12.8857 8.37871C12.879 8.35837 12.8708 8.33873 12.861 8.31994L13.2386 8.16194L14.2579 7.50763L13.1674 8.0446L12.8404 8.28473C12.8288 8.26717 12.8159 8.25056 12.8018 8.23504L13.1227 7.98688L13.9344 7.0979L13.025 7.89142L12.7728 8.20625C12.7566 8.19175 12.7393 8.17851 12.7209 8.16671L12.966 7.84766L13.5153 6.78168L12.846 7.78004L12.685 8.1462C12.6658 8.13646 12.6457 8.12818 12.6248 8.12153L12.7768 7.75225L13.025 6.58484L12.6425 7.71645L12.5842 8.11087C12.5637 8.1066 12.5427 8.10385 12.5211 8.10276L12.5695 7.7065L12.5003 6.51721Z" fill="#000088"/>
</svg>
