<svg width="26" height="26" viewBox="0 0 26 26" fill="none" xmlns="http://www.w3.org/2000/svg">
<g clip-path="url(#clip0_465_3)">
<path d="M0 20.521L8.66665 25.5248L26 15.5174L25.9999 5.47885L17.3332 0.475174L0 10.5137V20.521Z" fill="#2DB357"/>
<path d="M0 10.5137L8.66665 15.5174L25.9999 5.47885L26 15.5174L8.66665 25.5248L0 20.521V10.5137Z" fill="#0E834C"/>
<path d="M8.6665 25.5248V15.5174L25.9998 5.47885L25.9999 15.5174L8.6665 25.5248Z" fill="#1A4541"/>
<path d="M17.3331 1.62079L2.1665 10.3273L8.7459 14.0813L23.9125 5.37495L17.3331 1.62079ZM8.74474 13.2321L3.65016 10.3253L17.3343 2.46997L22.4288 5.37683L8.74474 13.2321Z" fill="white"/>
<path d="M13.2499 9.25445C14.8198 9.25445 16.0925 8.53178 16.0925 7.64032C16.0925 6.74887 14.8198 6.0262 13.2499 6.0262C11.6799 6.0262 10.4072 6.74887 10.4072 7.64032C10.4072 8.53178 11.6799 9.25445 13.2499 9.25445Z" fill="white"/>
<path d="M17.6489 5.94747C18.3274 5.94747 18.8774 5.63519 18.8774 5.24998C18.8774 4.86477 18.3274 4.55249 17.6489 4.55249C16.9704 4.55249 16.4204 4.86477 16.4204 5.24998C16.4204 5.63519 16.9704 5.94747 17.6489 5.94747Z" fill="#5EE1EB"/>
<path d="M8.6665 11.075C9.34499 11.075 9.89501 10.7627 9.89501 10.3774C9.89501 9.99212 9.34499 9.67979 8.6665 9.67979C7.98801 9.67979 7.43799 9.99212 7.43799 10.3774C7.43799 10.7627 7.98801 11.075 8.6665 11.075Z" fill="#5EE1EB"/>
<path d="M0 11.7998V12.0445L8.66604 17.1767L8.66665 16.9322L0 11.7998Z" fill="#2DB357"/>
<path d="M0 13.1436V13.3884L8.66604 18.5205L8.66665 18.2761L0 13.1436Z" fill="#2DB357"/>
<path d="M0 14.4875V14.7322L8.66604 19.8645L8.66665 19.62L0 14.4875Z" fill="#2DB357"/>
<path d="M0 15.8313V16.0761L8.66604 21.2083L8.66665 20.9639L0 15.8313Z" fill="#2DB357"/>
<path d="M0 17.1753V17.42L8.66604 22.5522L8.66665 22.3077L0 17.1753Z" fill="#2DB357"/>
<path d="M0 18.5191V18.7639L8.66604 23.896L8.66665 23.6516L0 18.5191Z" fill="#2DB357"/>
<path d="M25.9998 6.87672L8.66706 16.9326L8.6665 17.1764L25.9998 7.12004V6.87672Z" fill="#0E834C"/>
<path d="M25.9998 8.22054L8.66706 18.2765L8.6665 18.5203L25.9998 8.46385V8.22054Z" fill="#0E834C"/>
<path d="M25.9998 9.56439L8.66706 19.6204L8.6665 19.8642L25.9998 9.80771V9.56439Z" fill="#0E834C"/>
<path d="M25.9999 10.9082L8.66706 20.9643L8.6665 21.208L25.9999 11.1516V10.9082Z" fill="#0E834C"/>
<path d="M8.66706 22.3081L8.6665 22.5519L25.9999 12.4955V12.2521L8.66706 22.3081Z" fill="#0E834C"/>
<path d="M8.66706 23.652L8.6665 23.8957L25.9999 13.8394V13.5959L8.66706 23.652Z" fill="#0E834C"/>
</g>
<defs>
<clipPath id="clip0_465_3">
<rect width="26" height="26" fill="white"/>
</clipPath>
</defs>
</svg>
