<svg width="189" height="189" viewBox="0 0 189 189" fill="none" xmlns="http://www.w3.org/2000/svg">
<g clip-path="url(#clip0_227_564)">
<path d="M135.233 32.5862H21.181C19.3813 32.5862 17.9224 34.0451 17.9224 35.8448V185.741C17.9224 187.541 19.3813 189 21.181 189H135.233C137.032 189 138.491 187.541 138.491 185.741V35.8448C138.491 34.0451 137.032 32.5862 135.233 32.5862Z" fill="#F3D55B"/>
<path fill-rule="evenodd" clip-rule="evenodd" d="M154.784 19.5517V169.448C154.784 171.248 153.325 172.707 151.526 172.707H138.491V35.8448C138.491 34.0451 137.032 32.5862 135.233 32.5862H34.2153V19.5517C34.2153 17.752 35.6743 16.2931 37.474 16.2931H151.526C153.325 16.2931 154.784 17.752 154.784 19.5517Z" fill="#E4C05C"/>
<path fill-rule="evenodd" clip-rule="evenodd" d="M171.078 3.25862V153.155C171.078 154.955 169.619 156.414 167.819 156.414H154.785V19.5517C154.785 17.752 153.326 16.2931 151.526 16.2931H50.5088V3.25862C50.5088 1.45893 51.9677 0 53.7674 0H167.819C169.619 0 171.078 1.45893 171.078 3.25862Z" fill="#B19046"/>
<path fill-rule="evenodd" clip-rule="evenodd" d="M73.3189 146.638H30.9569C29.1572 146.638 27.6982 145.179 27.6982 143.379C27.6982 141.58 29.1572 140.121 30.9569 140.121H73.3189C75.1186 140.121 76.5776 141.58 76.5776 143.379C76.5776 145.179 75.1186 146.638 73.3189 146.638Z" fill="#B19046"/>
<path fill-rule="evenodd" clip-rule="evenodd" d="M125.457 159.672H30.9569C29.1572 159.672 27.6982 158.213 27.6982 156.414C27.6982 154.614 29.1572 153.155 30.9569 153.155H125.457C127.257 153.155 128.715 154.614 128.715 156.414C128.715 158.213 127.257 159.672 125.457 159.672Z" fill="#B19046"/>
<path fill-rule="evenodd" clip-rule="evenodd" d="M105.905 172.707H30.9569C29.1572 172.707 27.6982 171.248 27.6982 169.448C27.6982 167.649 29.1572 166.19 30.9569 166.19H105.905C107.705 166.19 109.164 167.649 109.164 169.448C109.164 171.248 107.705 172.707 105.905 172.707Z" fill="#B19046"/>
<path d="M78.2069 130.345C100.703 130.345 118.94 112.108 118.94 89.6121C118.94 67.116 100.703 48.8793 78.2069 48.8793C55.7108 48.8793 37.4741 67.116 37.4741 89.6121C37.4741 112.108 55.7108 130.345 78.2069 130.345Z" fill="#4FBA6F"/>
<path fill-rule="evenodd" clip-rule="evenodd" d="M63.5433 110.793C62.6791 110.793 61.8504 110.449 61.2394 109.838L51.4636 100.062C50.2286 98.7839 50.2463 96.7514 51.5033 95.4945C52.7602 94.2375 54.7926 94.2199 56.0713 95.4548L63.6508 103.034L97.195 72.5369C98.0565 71.7534 99.2706 71.489 100.38 71.8434C101.489 72.1977 102.325 73.1169 102.573 74.2547C102.821 75.3926 102.443 76.5762 101.581 77.3597L65.7363 109.946C65.1362 110.491 64.3542 110.793 63.5433 110.793Z" fill="white"/>
</g>
<defs>
<clipPath id="clip0_227_564">
<rect width="189" height="189" fill="white"/>
</clipPath>
</defs>
</svg>
