<svg width="48" height="48" viewBox="0 0 48 48" fill="none" xmlns="http://www.w3.org/2000/svg">
<circle cx="24" cy="24" r="24" fill="#CBEADD"/>
<path d="M35.9844 27.6055C36.5453 27.6055 37 27.1508 37 26.5898V19.9883C37 17.7482 35.1776 15.9258 32.9375 15.9258H31.3957C30.9608 15.9258 30.5744 15.6492 30.4342 15.2374L30.127 14.3347C29.7065 13.0994 28.5474 12.2695 27.2426 12.2695H20.7542C19.4747 12.2695 18.3231 13.0781 17.8885 14.2815L17.537 15.2551C17.3921 15.6562 17.0082 15.9258 16.5817 15.9258H15.0625C12.8224 15.9258 11 17.7482 11 19.9883V31.668C11 33.908 12.8224 35.7305 15.0625 35.7305H32.9375C35.1776 35.7305 37 33.908 37 31.668C37 31.107 36.5453 30.6523 35.9844 30.6523C35.4234 30.6523 34.9688 31.107 34.9688 31.668C34.9688 32.788 34.0575 33.6992 32.9375 33.6992H15.0625C13.9425 33.6992 13.0312 32.788 13.0312 31.668V19.9883C13.0312 18.8682 13.9425 17.957 15.0625 17.957H16.5817C17.8612 17.957 19.0129 17.1484 19.4474 15.945L19.799 14.9714C19.9438 14.5703 20.3277 14.3008 20.7542 14.3008H27.2426C27.6775 14.3008 28.0639 14.5774 28.2041 14.9892L28.5114 15.8919C28.9318 17.1271 30.0909 17.957 31.3957 17.957H32.9375C34.0575 17.957 34.9688 18.8682 34.9688 19.9883V26.5898C34.9688 27.1508 35.4234 27.6055 35.9844 27.6055Z" fill="#08613E"/>
<path d="M24.0508 18.9727C20.5507 18.9727 17.7031 21.8202 17.7031 25.3203C17.7031 28.8204 20.5507 31.668 24.0508 31.668C27.5509 31.668 30.3984 28.8204 30.3984 25.3203C30.3984 21.8202 27.5509 18.9727 24.0508 18.9727ZM24.0508 29.6367C21.6707 29.6367 19.7344 27.7004 19.7344 25.3203C19.7344 22.9402 21.6707 21.0039 24.0508 21.0039C26.4308 21.0039 28.3672 22.9402 28.3672 25.3203C28.3672 27.7004 26.4308 29.6367 24.0508 29.6367Z" fill="#08613E"/>
</svg>
