<svg width="48" height="48" viewBox="0 0 48 48" fill="none" xmlns="http://www.w3.org/2000/svg">
<circle cx="24" cy="24" r="24" fill="#FFF8EC"/>
<path d="M17.8789 21.4345C18.0638 21.4344 18.241 21.3609 18.3716 21.2301C18.5023 21.0994 18.5757 20.9221 18.5757 20.7373V19.4911C18.5756 19.4596 18.5817 19.4284 18.5938 19.3993C18.6058 19.3701 18.6234 19.3436 18.6457 19.3213C18.668 19.299 18.6944 19.2813 18.7235 19.2692C18.7526 19.2572 18.7838 19.2509 18.8154 19.2509H19.0946C19.1351 19.2509 19.175 19.2611 19.2105 19.2805C19.246 19.3 19.276 19.328 19.2978 19.3622L20.5445 21.3238C20.569 21.3624 20.5821 21.4071 20.5821 21.4528C20.5821 21.4985 20.569 21.5433 20.5445 21.5818L19.1297 23.7872C19.0425 23.9295 19.0144 24.1002 19.0515 24.2629C19.0886 24.4255 19.1879 24.5672 19.3282 24.6575C19.4685 24.7479 19.6385 24.7797 19.802 24.7462C19.9654 24.7127 20.1093 24.6166 20.2027 24.4784L21.2224 22.9011C21.2441 22.8669 21.2741 22.8388 21.3096 22.8193C21.3451 22.7998 21.385 22.7895 21.4255 22.7895C21.466 22.7895 21.5059 22.7998 21.5414 22.8193C21.5769 22.8388 21.6069 22.8669 21.6286 22.9011L22.6016 24.4362C22.7036 24.596 22.8648 24.7088 23.0499 24.7497C23.235 24.7906 23.4287 24.7563 23.5885 24.6543C23.7483 24.5524 23.8611 24.3911 23.902 24.206C23.9429 24.0209 23.9086 23.8272 23.8066 23.6674L22.4675 21.5798C22.4429 21.5413 22.4299 21.4965 22.4299 21.4508C22.4299 21.4051 22.4429 21.3603 22.4675 21.3218L23.7823 19.253C23.8691 19.1092 23.8962 18.9371 23.858 18.7736C23.8197 18.61 23.719 18.4678 23.5774 18.3775C23.4358 18.2871 23.2645 18.2556 23.1 18.2898C22.9356 18.3239 22.791 18.421 22.6971 18.5603L21.783 19.9893C21.7614 20.0236 21.7314 20.0519 21.6959 20.0715C21.6603 20.091 21.6204 20.1013 21.5799 20.1013C21.5393 20.1013 21.4994 20.091 21.4639 20.0715C21.4284 20.0519 21.3984 20.0236 21.3768 19.9893L20.9649 19.3327C20.9469 19.3041 20.9351 19.272 20.9303 19.2385C20.9255 19.205 20.9278 19.1709 20.9369 19.1384C20.9461 19.1058 20.962 19.0756 20.9837 19.0496C21.0053 19.0236 21.0321 19.0024 21.0624 18.9874H21.065C21.4083 18.8227 21.6959 18.5611 21.8922 18.2348C22.0872 17.9098 22.1847 17.5305 22.1847 17.0968C22.1933 16.6962 22.0921 16.3009 21.8922 15.9537C21.6967 15.6257 21.409 15.3623 21.065 15.1966C20.6807 15.0141 20.2593 14.9235 19.834 14.932H18.1603C17.9002 14.9321 17.6509 15.0355 17.467 15.2194C17.2832 15.4032 17.1798 15.6526 17.1797 15.9126V20.7368C17.1796 20.8286 17.1977 20.9195 17.2328 21.0043C17.2679 21.089 17.3195 21.166 17.3844 21.2309C17.4494 21.2957 17.5265 21.3471 17.6114 21.382C17.6962 21.417 17.7872 21.4348 17.8789 21.4345ZM18.5757 16.332C18.5756 16.3005 18.5817 16.2693 18.5938 16.2402C18.6058 16.211 18.6234 16.1845 18.6457 16.1622C18.668 16.1399 18.6944 16.1222 18.7235 16.1101C18.7526 16.0981 18.7838 16.0918 18.8154 16.0918H19.7C20.028 16.0918 20.288 16.1817 20.48 16.3615C20.6719 16.5413 20.7681 16.7853 20.7684 17.0938C20.7684 17.3984 20.6723 17.64 20.48 17.8184C20.2877 17.9968 20.0277 18.0867 19.7 18.0881H18.8154C18.7838 18.0881 18.7526 18.0818 18.7235 18.0698C18.6944 18.0577 18.668 18.04 18.6457 18.0177C18.6234 17.9954 18.6058 17.9689 18.5938 17.9397C18.5817 17.9106 18.5756 17.8794 18.5757 17.8479V16.332Z" fill="#EA8B23"/>
<path d="M12.7561 17.5797C12.5113 19.3281 12.3498 21.1126 12.3447 24.0071C12.3493 26.9722 12.5199 28.7734 12.7774 30.567C12.9846 32.0052 13.7001 33.4067 14.7924 34.5153C15.8847 35.6238 17.2837 36.3566 18.7208 36.5724L18.7589 36.578H18.765C19.0108 36.613 19.2307 36.6466 19.4429 36.6796C20.5327 36.8477 21.3939 36.9807 24.1336 36.9919H24.1448C26.7666 36.9736 27.474 36.8583 28.4525 36.6994C28.6912 36.6608 28.9385 36.6207 29.2376 36.578H29.2442L29.2838 36.5724C30.7189 36.3566 32.1139 35.6264 33.2118 34.5148C34.3096 33.4032 35.018 32.0052 35.2262 30.5655C35.4802 28.7739 35.6523 26.9727 35.6569 24.0056C35.6569 22.6959 35.6203 21.529 35.5462 20.4382V20.4169C35.5278 20.2092 35.4424 20.0132 35.3029 19.8583L35.2968 19.8502C33.2656 17.2141 31.1104 15.0259 29.6601 13.6548C28.8243 12.8708 28.1352 12.2695 27.7035 11.9009C27.4471 11.6825 27.2556 11.5251 27.1398 11.4311C27.0713 11.3758 27.018 11.3336 26.9824 11.3052L26.9591 11.2879C26.8649 11.2101 26.7569 11.1508 26.6407 11.1132C26.5277 11.0737 26.4082 11.0565 26.2887 11.0625C26.1938 11.0569 26.0953 11.0518 25.9917 11.0467C25.3711 11.0147 24.6927 11 23.9188 11H23.8477C21.2254 11.0188 20.5185 11.1341 19.5394 11.293C19.3007 11.3321 19.0539 11.3722 18.7543 11.4144H18.7477L18.7081 11.4205C17.273 11.6363 15.8786 12.3665 14.7802 13.4781C13.6818 14.5897 12.9729 15.9887 12.7657 17.4264C12.7582 17.4771 12.755 17.5284 12.7561 17.5797ZM32.5237 19.4891C31.2932 19.4632 30.0598 19.4424 28.837 19.4277C28.4515 19.4215 28.0837 19.2651 27.8118 18.9919C27.5399 18.7186 27.3854 18.3501 27.3811 17.9646C27.3709 16.6997 27.3577 15.4256 27.3414 14.1525C29.1883 15.8114 30.9197 17.5944 32.5237 19.4891ZM14.6837 17.728C14.6837 17.7199 14.6837 17.7113 14.6873 17.7041C14.6933 17.6602 14.6964 17.6159 14.6964 17.5716C14.8696 16.5859 15.384 15.6155 16.1533 14.8345C16.9597 14.0184 17.9688 13.4837 18.994 13.3298L19.028 13.3248C19.3454 13.2796 19.613 13.2364 19.8487 13.1978C20.7419 13.0526 21.3873 12.9475 23.8579 12.9297C24.42 12.9297 24.9273 12.9363 25.3955 12.9515C25.4194 14.6237 25.4382 16.3107 25.4514 17.9789C25.461 18.8695 25.818 19.7213 26.4463 20.3527C27.0746 20.9841 27.9245 21.3453 28.8151 21.3594C30.4249 21.3782 32.0545 21.4076 33.6698 21.4462C33.7069 22.2414 33.7252 23.087 33.7257 24.0061C33.7211 26.8595 33.5581 28.584 33.3143 30.2933C33.165 31.3272 32.64 32.3459 31.8366 33.1614C31.0332 33.977 30.0217 34.5117 28.9964 34.6641L28.9624 34.6691C28.645 34.7138 28.3774 34.7575 28.1412 34.7956C27.2485 34.9408 26.6036 35.0459 24.1351 35.0632C21.5453 35.0525 20.7836 34.9352 19.7354 34.7732C19.5186 34.7397 19.2936 34.7052 19.0377 34.6717L19.0047 34.6666C17.9784 34.5143 16.9699 33.978 16.1645 33.163C15.3591 32.3479 14.8345 31.3272 14.6857 30.2959C14.442 28.5845 14.2795 26.86 14.2744 24.0096C14.2785 21.1603 14.441 19.4373 14.6837 17.728Z" fill="#EA8B23"/>
<path d="M18.1367 28.3672H29.8631C30.119 28.3672 30.3644 28.2655 30.5454 28.0846C30.7263 27.9036 30.828 27.6582 30.828 27.4023C30.828 27.1465 30.7263 26.901 30.5454 26.7201C30.3644 26.5392 30.119 26.4375 29.8631 26.4375H18.1367C17.8808 26.4375 17.6354 26.5392 17.4545 26.7201C17.2735 26.901 17.1719 27.1465 17.1719 27.4023C17.1719 27.6582 17.2735 27.9036 17.4545 28.0846C17.6354 28.2655 17.8808 28.3672 18.1367 28.3672Z" fill="#EA8B23"/>
<path d="M18.1367 32.4231H25.1115C25.3674 32.4231 25.6128 32.3214 25.7938 32.1405C25.9747 31.9596 26.0764 31.7141 26.0764 31.4583C26.0764 31.2024 25.9747 30.9569 25.7938 30.776C25.6128 30.5951 25.3674 30.4934 25.1115 30.4934H18.1367C17.8808 30.4934 17.6354 30.5951 17.4545 30.776C17.2735 30.9569 17.1719 31.2024 17.1719 31.4583C17.1719 31.7141 17.2735 31.9596 17.4545 32.1405C17.6354 32.3214 17.8808 32.4231 18.1367 32.4231Z" fill="#EA8B23"/>
</svg>
