<svg width="192" height="192" viewBox="0 0 192 192" fill="none" xmlns="http://www.w3.org/2000/svg">
<g clip-path="url(#clip0_226_199)">
<path d="M130.17 169.374H61.8291L46.1973 192H145.802L130.17 169.374Z" fill="#3A556A"/>
<path d="M96.0003 163.699C101.045 163.699 105.135 159.564 105.135 154.464C105.135 149.363 101.045 145.229 96.0003 145.229C90.9554 145.229 86.8657 149.363 86.8657 154.464C86.8657 159.564 90.9554 163.699 96.0003 163.699Z" fill="#3A556A"/>
<path d="M187.123 28.8051H157.832L157.249 37.7156H178.087C180.513 37.7156 182.48 39.7045 182.48 42.1575V140.148H150.545H41.4544H9.51891V42.1575C9.51891 39.7045 11.4858 37.7156 13.9116 37.7156H34.7503L34.1672 28.8051H4.87687C2.18344 28.8051 0 31.0125 0 33.7355V143.679V164.444C0 167.167 2.18344 169.374 4.87687 169.374H187.123C189.816 169.374 192 167.167 192 164.444V143.679V33.7355C192 31.0125 189.816 28.8051 187.123 28.8051Z" fill="#64798A"/>
<path d="M13.9117 37.7156C11.4859 37.7156 9.51904 39.7045 9.51904 42.1575V140.148H41.4545L34.7509 37.7156H13.9117Z" fill="#EBF0F3"/>
<path d="M182.481 140.148V42.1575C182.481 39.7045 180.514 37.7156 178.088 37.7156H157.25L150.546 140.148H182.481Z" fill="#EBF0F3"/>
<path d="M157.249 37.7156L157.832 28.8051H34.1675L34.7506 37.7156H157.249Z" fill="#3A556A"/>
<path d="M41.4546 140.148H150.545L157.249 37.7156H34.751L41.4546 140.148Z" fill="#E1E6E9"/>
<path d="M150.528 0H41.4478V140.16H150.528V0Z" fill="white"/>
<path d="M143.561 15.2208H48.4346V47.76H143.561V15.2208Z" fill="#EBF0F3"/>
<path d="M150.528 0H41.4478V8.23922H150.528V0Z" fill="#FCD462"/>
<path d="M107.344 26.7788H100.712V20.1469H91.2876V26.7788H84.6558V36.203H91.2876V42.8348H100.712V36.203H107.344V26.7788Z" fill="#E56353"/>
<path d="M143.558 58.4878H48.4321V61.98H143.558V58.4878Z" fill="#EBF0F3"/>
<path d="M143.558 70.98H48.4321V74.4694H143.558V70.98Z" fill="#EBF0F3"/>
<path d="M143.558 83.46H48.4321V86.9494H143.558V83.46Z" fill="#EBF0F3"/>
<path d="M95.9953 95.9423H48.4321V99.4317H95.9953V95.9423Z" fill="#EBF0F3"/>
<path d="M143.552 108.072H113.136V111.564H143.552V108.072Z" fill="#2D93BA"/>
<path d="M143.561 119.513H128.352V123.005H143.561V119.513Z" fill="#64798A"/>
</g>
<defs>
<clipPath id="clip0_226_199">
<rect width="192" height="192" fill="white"/>
</clipPath>
</defs>
</svg>
