<svg width="40" height="40" viewBox="0 0 40 40" fill="none" xmlns="http://www.w3.org/2000/svg">
<path d="M25.632 39.8354L21.4323 37.6755L17.2317 39.8355C17.0074 39.9507 16.7413 39.9508 16.5172 39.8354L12.3174 37.6755L8.11767 39.8354C7.89353 39.9508 7.62736 39.9508 7.40306 39.8354L4.30931 38.244C3.92564 38.0466 3.77455 37.5755 3.97197 37.1919C4.16939 36.8082 4.64033 36.657 5.02408 36.8545L7.76041 38.2622L11.9602 36.1023C12.1843 35.9869 12.4506 35.9869 12.6747 36.1023L16.8745 38.2622L21.075 36.1022C21.2993 35.987 21.5654 35.9869 21.7895 36.1023L25.9893 38.2622L29.7659 36.3202V6.32812C29.7659 5.89672 30.1157 5.54688 30.5471 5.54688C30.9785 5.54688 31.3284 5.89672 31.3284 6.32812V36.7969C31.3284 37.0896 31.1647 37.3578 30.9044 37.4917L26.3466 39.8355C26.1213 39.9511 25.8553 39.9503 25.632 39.8354Z" fill="white"/>
<path d="M3.20361 32.3383C2.77221 32.3383 2.42236 31.9884 2.42236 31.557V3.20312C2.42236 1.48 3.82424 0.078125 5.54736 0.078125H34.4536C34.885 0.078125 35.2349 0.427969 35.2349 0.859375C35.2349 1.29078 34.885 1.64062 34.4536 1.64062H5.54736C4.6858 1.64062 3.98486 2.34156 3.98486 3.20312V31.557C3.98486 31.9884 3.6351 32.3383 3.20361 32.3383Z" fill="white"/>
<path d="M39.1411 16.4844H30.5474C30.116 16.4844 29.7661 16.1345 29.7661 15.7031V5.15625C29.7661 2.35617 32.0442 0.078125 34.8442 0.078125C37.6443 0.078125 39.9224 2.35617 39.9224 5.15625V15.7031C39.9224 16.1345 39.5725 16.4844 39.1411 16.4844ZM31.3286 14.9219H38.3599V5.15625C38.3599 3.21773 36.7828 1.64062 34.8442 1.64062C32.9057 1.64062 31.3286 3.21773 31.3286 5.15625V14.9219Z" fill="white"/>
<path d="M1.1081 37.5192C-0.265732 36.1454 -0.265967 33.9214 1.1081 32.5473L4.42271 29.2327C5.79333 27.8621 8.0238 27.862 9.39458 29.2327C10.7654 30.6035 10.7654 32.8339 9.39458 34.2047L6.08005 37.5192C4.70911 38.89 2.47896 38.89 1.1081 37.5192ZM5.52755 30.3377L2.21294 33.6523C1.45138 34.4137 1.45138 35.6528 2.21294 36.4143C2.97614 37.1777 4.21177 37.1778 4.97505 36.4143L8.28958 33.0998C9.05114 32.3383 9.05114 31.0991 8.28958 30.3377C7.5263 29.5744 6.29091 29.5743 5.52755 30.3377Z" fill="#0DC47C"/>
<path d="M6.63238 35.862L2.76543 31.995C2.46035 31.6899 2.46035 31.1952 2.76543 30.8901C3.07059 30.5851 3.56512 30.5851 3.87035 30.8901L7.73731 34.757C8.04238 35.0621 8.04238 35.5568 7.73731 35.862C7.43199 36.1671 6.93754 36.167 6.63238 35.862Z" fill="#0DC47C"/>
<path d="M26.6411 18.8281H7.10986C6.67846 18.8281 6.32861 18.4783 6.32861 18.0469C6.32861 17.6155 6.67846 17.2656 7.10986 17.2656H26.6411C27.0725 17.2656 27.4224 17.6155 27.4224 18.0469C27.4224 18.4783 27.0725 18.8281 26.6411 18.8281Z" fill="white"/>
<path d="M26.6411 22.7344H7.10986C6.67846 22.7344 6.32861 22.3845 6.32861 21.9531C6.32861 21.5217 6.67846 21.1719 7.10986 21.1719H26.6411C27.0725 21.1719 27.4224 21.5217 27.4224 21.9531C27.4224 22.3845 27.0725 22.7344 26.6411 22.7344Z" fill="white"/>
<path d="M15.7036 26.6406H7.10986C6.67846 26.6406 6.32861 26.2908 6.32861 25.8594C6.32861 25.428 6.67846 25.0781 7.10986 25.0781H15.7036C16.135 25.0781 16.4849 25.428 16.4849 25.8594C16.4849 26.2908 16.135 26.6406 15.7036 26.6406Z" fill="white"/>
<path d="M18.438 14.9219H15.313C14.8816 14.9219 14.5317 14.572 14.5317 14.1406V11.7969H12.188C11.7566 11.7969 11.4067 11.447 11.4067 11.0156V7.89062C11.4067 7.45922 11.7566 7.10938 12.188 7.10938H14.5317V4.76562C14.5317 4.33422 14.8816 3.98438 15.313 3.98438H18.438C18.8694 3.98438 19.2192 4.33422 19.2192 4.76562V7.10938H21.563C21.9944 7.10938 22.3442 7.45922 22.3442 7.89062V11.0156C22.3442 11.447 21.9944 11.7969 21.563 11.7969H19.2192V14.1406C19.2192 14.572 18.8694 14.9219 18.438 14.9219ZM16.0942 13.3594H17.6567V11.0156C17.6567 10.5842 18.0066 10.2344 18.438 10.2344H20.7817V8.67188H18.438C18.0066 8.67188 17.6567 8.32203 17.6567 7.89062V5.54688H16.0942V7.89062C16.0942 8.32203 15.7444 8.67188 15.313 8.67188H12.9692V10.2344H15.313C15.7444 10.2344 16.0942 10.5842 16.0942 11.0156V13.3594Z" fill="#0DC47C"/>
</svg>
