<svg width="42" height="42" viewBox="0 0 42 42" fill="none" xmlns="http://www.w3.org/2000/svg">
<path d="M28.5 7.5V39H3V7.5H28.5Z" fill="#142E23"/>
<path d="M28.5 36V7.5H6V34.8465C6 35.1524 6.12153 35.4458 6.33785 35.6621C6.55418 35.8785 6.84757 36 7.1535 36H28.5Z" fill="#142E23"/>
<path d="M31.5 19.5V9L25.5 3H7.5V34.5H31.5V25.5" fill="#142E23"/>
<path d="M31.5 10.5V9L25.5 3H24V9.321C24 9.63369 24.1242 9.93357 24.3453 10.1547C24.5664 10.3758 24.8663 10.5 25.179 10.5H29.67C29.7134 10.4998 29.7564 10.5082 29.7965 10.5247C29.8366 10.5412 29.8731 10.5655 29.9038 10.5962C29.9345 10.6269 29.9588 10.6634 29.9753 10.7035C29.9918 10.7436 30.0002 10.7866 30 10.83V34.5H31.5V10.5Z" fill="#142E23"/>
<path d="M31.5 9H25.5V3" fill="#142E23"/>
<path d="M30.75 30C35.3064 30 39 26.3064 39 21.75C39 17.1937 35.3064 13.5 30.75 13.5C26.1937 13.5 22.5 17.1937 22.5 21.75C22.5 26.3064 26.1937 30 30.75 30Z" fill="#0DC47C"/>
<path d="M30.75 13.5C30.3735 13.5026 29.9976 13.5312 29.625 13.5855C31.5981 13.8563 33.4064 14.8324 34.7155 16.3333C36.0245 17.8342 36.7457 19.7584 36.7457 21.75C36.7457 23.7416 36.0245 25.6658 34.7155 27.1668C33.4064 28.6677 31.5981 29.6438 29.625 29.9145C30.7491 30.0774 31.8947 30.0065 32.9901 29.7061C34.0855 29.4057 35.1071 28.8823 35.9908 28.1688C36.8746 27.4553 37.6014 26.567 38.126 25.5595C38.6505 24.552 38.9613 23.4471 39.0389 22.3139C39.1166 21.1807 38.9594 20.0437 38.5773 18.9741C38.1951 17.9045 37.5962 16.9253 36.8181 16.0979C36.04 15.2705 35.0994 14.6127 34.0552 14.1656C33.011 13.7186 31.8858 13.492 30.75 13.5Z" fill="#08613E"/>
<path d="M33.7499 18.8625L29.5649 23.046L27.7499 21.219C27.6091 21.0784 27.4181 20.9995 27.2191 20.9996C27.0201 20.9997 26.8293 21.0789 26.6887 21.2198C26.548 21.3606 26.4691 21.5515 26.4692 21.7505C26.4694 21.9496 26.5486 22.1404 26.6894 22.281L29.0459 24.6375C29.1866 24.7781 29.3773 24.8571 29.5762 24.8571C29.775 24.8571 29.9658 24.7781 30.1064 24.6375L34.8224 19.923C34.894 19.8538 34.9512 19.7711 34.9905 19.6796C35.0298 19.5881 35.0505 19.4896 35.0513 19.3901C35.0522 19.2905 35.0332 19.1917 34.9955 19.0995C34.9578 19.0074 34.9021 18.9236 34.8317 18.8532C34.7613 18.7828 34.6775 18.7271 34.5854 18.6894C34.4932 18.6517 34.3944 18.6327 34.2949 18.6336C34.1953 18.6344 34.0969 18.6551 34.0054 18.6944C33.9138 18.7337 33.8311 18.7909 33.7619 18.8625H33.7499Z" fill="white"/>
<path d="M39.75 21.75C39.7461 19.6252 38.9912 17.5701 37.6188 15.948C36.2464 14.3258 34.3448 13.2409 32.25 12.885V9C32.2502 8.90144 32.2309 8.80382 32.1933 8.71271C32.1558 8.62159 32.1006 8.53878 32.031 8.469L26.031 2.469C25.9612 2.3994 25.8784 2.34423 25.7873 2.30665C25.6962 2.26908 25.5986 2.24983 25.5 2.25H7.5C7.30109 2.25 7.11032 2.32902 6.96967 2.46967C6.82902 2.61032 6.75 2.80109 6.75 3V6.75H3C2.80109 6.75 2.61032 6.82902 2.46967 6.96967C2.32902 7.11032 2.25 7.30109 2.25 7.5V39C2.25 39.1989 2.32902 39.3897 2.46967 39.5303C2.61032 39.671 2.80109 39.75 3 39.75H28.5C28.6989 39.75 28.8897 39.671 29.0303 39.5303C29.171 39.3897 29.25 39.1989 29.25 39V35.25H31.5C31.6989 35.25 31.8897 35.171 32.0303 35.0303C32.171 34.8897 32.25 34.6989 32.25 34.5V30.615C34.3448 30.2591 36.2464 29.1742 37.6188 27.552C38.9912 25.9299 39.7461 23.8748 39.75 21.75ZM26.25 4.8105L29.6895 8.25H26.25V4.8105ZM27.75 38.25H3.75V8.25H6.75V34.5C6.75 34.6989 6.82902 34.8897 6.96967 35.0303C7.11032 35.171 7.30109 35.25 7.5 35.25H27.75V38.25ZM30.75 33.75H8.25V3.75H24.75V9C24.75 9.19891 24.829 9.38968 24.9697 9.53033C25.1103 9.67098 25.3011 9.75 25.5 9.75H30.75V12.75C28.3631 12.75 26.0739 13.6982 24.386 15.386C22.6982 17.0739 21.75 19.3631 21.75 21.75C21.75 24.1369 22.6982 26.4261 24.386 28.114C26.0739 29.8018 28.3631 30.75 30.75 30.75V33.75ZM30.75 29.25C29.2666 29.25 27.8166 28.8101 26.5832 27.986C25.3499 27.1619 24.3886 25.9906 23.8209 24.6201C23.2532 23.2497 23.1047 21.7417 23.3941 20.2868C23.6835 18.832 24.3978 17.4956 25.4467 16.4467C26.4956 15.3978 27.832 14.6835 29.2868 14.3941C30.7417 14.1047 32.2497 14.2532 33.6201 14.8209C34.9906 15.3886 36.1619 16.3499 36.986 17.5832C37.8101 18.8166 38.25 20.2666 38.25 21.75C38.2476 23.7384 37.4567 25.6447 36.0507 27.0507C34.6447 28.4567 32.7384 29.2476 30.75 29.25Z" fill="white"/>
<path d="M15.75 20.469L13.428 22.8L12.528 21.9C12.3874 21.7592 12.1966 21.68 11.9975 21.6798C11.7985 21.6797 11.6076 21.7586 11.4667 21.8992C11.3259 22.0399 11.2467 22.2307 11.2466 22.4297C11.2464 22.6287 11.3254 22.8197 11.466 22.9605L12.8955 24.3885C13.0361 24.5291 13.2269 24.6081 13.4257 24.6081C13.6246 24.6081 13.8154 24.5291 13.956 24.3885L16.8135 21.5385C16.9543 21.3979 17.0335 21.2071 17.0337 21.008C17.0338 20.809 16.9549 20.6181 16.8142 20.4772C16.6736 20.3364 16.4828 20.2572 16.2838 20.2571C16.0848 20.2569 15.8938 20.3359 15.753 20.4765L15.75 20.469Z" fill="white"/>
<path d="M15.75 26.469L13.428 28.8L12.528 27.9C12.4584 27.8303 12.3757 27.7749 12.2847 27.7372C12.1936 27.6994 12.0961 27.6799 11.9975 27.6798C11.899 27.6798 11.8014 27.6991 11.7103 27.7367C11.6192 27.7744 11.5365 27.8296 11.4667 27.8992C11.397 27.9689 11.3417 28.0516 11.3039 28.1426C11.2661 28.2336 11.2467 28.3312 11.2466 28.4297C11.2465 28.5283 11.2659 28.6259 11.3035 28.7169C11.3411 28.808 11.3964 28.8908 11.466 28.9605L12.8955 30.3885C13.0361 30.5291 13.2269 30.6081 13.4257 30.6081C13.6246 30.6081 13.8154 30.5291 13.956 30.3885L16.8135 27.5385C16.9543 27.3979 17.0335 27.2071 17.0337 27.008C17.0338 26.809 16.9549 26.6181 16.8142 26.4772C16.6736 26.3364 16.4828 26.2572 16.2838 26.2571C16.0848 26.2569 15.8938 26.3359 15.753 26.4765L15.75 26.469Z" fill="white"/>
<path d="M12 8.25H21C21.1989 8.25 21.3897 8.17098 21.5303 8.03033C21.671 7.88968 21.75 7.69891 21.75 7.5C21.75 7.30109 21.671 7.11032 21.5303 6.96967C21.3897 6.82902 21.1989 6.75 21 6.75H12C11.8011 6.75 11.6103 6.82902 11.4697 6.96967C11.329 7.11032 11.25 7.30109 11.25 7.5C11.25 7.69891 11.329 7.88968 11.4697 8.03033C11.6103 8.17098 11.8011 8.25 12 8.25Z" fill="white"/>
<path d="M21 11.25H12C11.8011 11.25 11.6103 11.329 11.4697 11.4697C11.329 11.6103 11.25 11.8011 11.25 12C11.25 12.1989 11.329 12.3897 11.4697 12.5303C11.6103 12.671 11.8011 12.75 12 12.75H21C21.1989 12.75 21.3897 12.671 21.5303 12.5303C21.671 12.3897 21.75 12.1989 21.75 12C21.75 11.8011 21.671 11.6103 21.5303 11.4697C21.3897 11.329 21.1989 11.25 21 11.25Z" fill="white"/>
<path d="M16.5 15.75H12C11.8011 15.75 11.6103 15.829 11.4697 15.9697C11.329 16.1103 11.25 16.3011 11.25 16.5C11.25 16.6989 11.329 16.8897 11.4697 17.0303C11.6103 17.171 11.8011 17.25 12 17.25H16.5C16.6989 17.25 16.8897 17.171 17.0303 17.0303C17.171 16.8897 17.25 16.6989 17.25 16.5C17.25 16.3011 17.171 16.1103 17.0303 15.9697C16.8897 15.829 16.6989 15.75 16.5 15.75Z" fill="white"/>
</svg>
