<svg width="42" height="42" viewBox="0 0 42 42" fill="none" xmlns="http://www.w3.org/2000/svg">
<g clip-path="url(#clip0_210_1988)">
<path d="M40.1416 15.9989L29.6205 32.366L25.7515 29.879L36.2726 13.5119L40.1416 15.9989Z" fill="#08613E"/>
<path d="M0.820312 37.6982V41.1796H30.8396V30.4688L29.6199 32.3663L24.57 35.9691L25.7513 29.8792L30.8396 21.9638V0.820251H0.820312V30.4795" fill="#142E23"/>
<mask id="mask0_210_1988" style="mask-type:luminance" maskUnits="userSpaceOnUse" x="0" y="0" width="42" height="42">
<path d="M0 5.27013e-06H42V42H0V5.27013e-06Z" fill="white"/>
</mask>
<g mask="url(#mask0_210_1988)">
<path fill-rule="evenodd" clip-rule="evenodd" d="M0.174316 41.1797C0.174316 41.5364 0.463498 41.8256 0.820222 41.8256H30.8396C31.1963 41.8256 31.4855 41.5364 31.4855 41.1797V30.4688C31.4855 30.1822 31.2966 29.9299 31.0216 29.8491C30.7466 29.7683 30.4512 29.8785 30.2962 30.1196L29.1436 31.9126L25.5122 34.5034L26.3617 30.1241L31.3829 22.3131C31.4499 22.2089 31.4855 22.0877 31.4855 21.9638V0.820281C31.4855 0.463559 31.1963 0.174377 30.8396 0.174377H0.820222C0.463498 0.174377 0.174316 0.463559 0.174316 0.820281V30.4795C0.174316 30.8362 0.463498 31.1254 0.820222 31.1254C1.17695 31.1254 1.46613 30.8362 1.46613 30.4795V1.46619H30.1937V21.7741L25.2079 29.5299C25.1636 29.5989 25.1328 29.6757 25.1172 29.7562L23.9358 35.8461C23.8855 36.1056 23.9983 36.3695 24.2206 36.5124C24.4429 36.6553 24.7299 36.6484 24.945 36.4949L29.995 32.8921C30.0617 32.8445 30.1188 32.7846 30.1632 32.7156L30.1937 32.6681V40.5338H1.46613V37.6982C1.46613 37.3415 1.17695 37.0523 0.820222 37.0523C0.463498 37.0523 0.174316 37.3415 0.174316 37.6982V41.1797Z" fill="white"/>
<path fill-rule="evenodd" clip-rule="evenodd" d="M29.2711 32.9093C29.5712 33.1021 29.9708 33.0153 30.1637 32.7152L40.6849 16.3481C40.7775 16.204 40.8091 16.029 40.7727 15.8617C40.7363 15.6943 40.6349 15.5482 40.4908 15.4555L36.6218 12.9685C36.3217 12.7756 35.9221 12.8625 35.7292 13.1626L25.208 29.5297C25.1154 29.6738 25.0838 29.8488 25.1202 30.0162C25.1566 30.1836 25.258 30.3297 25.4021 30.4223L29.2711 32.9093ZM26.644 29.6849L36.4666 14.4044L39.2489 16.193L29.4263 31.4733L26.644 29.6849Z" fill="white"/>
</g>
<path d="M25.7512 29.879L24.5703 35.9692L29.6202 32.366L25.7512 29.879Z" fill="#0DC47C"/>
<mask id="mask1_210_1988" style="mask-type:luminance" maskUnits="userSpaceOnUse" x="0" y="0" width="42" height="42">
<path d="M0 5.27013e-06H42V42H0V5.27013e-06Z" fill="white"/>
</mask>
<g mask="url(#mask1_210_1988)">
<path d="M40.8143 14.9522L40.1415 15.9989L36.2725 13.5118L36.9453 12.4652C37.632 11.3968 39.0549 11.0874 40.1233 11.7742C41.1917 12.461 41.5011 13.8838 40.8143 14.9522Z" fill="#0DC47C"/>
<path fill-rule="evenodd" clip-rule="evenodd" d="M24.221 36.5125C24.4433 36.6554 24.7303 36.6484 24.9454 36.4949L29.9953 32.8917C30.1697 32.7673 30.2711 32.5645 30.2659 32.3503C30.2607 32.1361 30.1497 31.9384 29.9694 31.8226L26.1004 29.3356C25.9202 29.2198 25.6943 29.2009 25.4973 29.2851C25.3003 29.3693 25.1579 29.5457 25.1171 29.756L23.9362 35.8462C23.8858 36.1056 23.9987 36.3696 24.221 36.5125ZM25.5124 34.5034L26.2038 30.9378L28.469 32.3938L25.5124 34.5034Z" fill="white"/>
<path fill-rule="evenodd" clip-rule="evenodd" d="M40.2786 16.63C40.446 16.5936 40.5921 16.4922 40.6847 16.3481L41.3575 15.3014C42.2372 13.933 41.841 12.1105 40.4724 11.2308C39.104 10.3512 37.2815 10.7474 36.4019 12.1159C36.4019 12.1159 36.4019 12.1159 36.4019 12.1159L35.729 13.1625C35.6364 13.3066 35.6048 13.4816 35.6412 13.649C35.6776 13.8164 35.779 13.9625 35.9231 14.0551L39.7921 16.5422C39.9362 16.6348 40.1112 16.6664 40.2786 16.63ZM37.165 13.3177L37.4885 12.8144C37.9824 12.0461 39.0056 11.8236 39.7739 12.3175C40.5423 12.8114 40.7647 13.8346 40.2709 14.6029L39.9473 15.1063L37.165 13.3177Z" fill="white"/>
<path d="M15.4008 15.032H6.27295V4.67004H15.4008V15.032Z" fill="#08613E"/>
<path fill-rule="evenodd" clip-rule="evenodd" d="M5.62695 15.032C5.62695 15.3887 5.91613 15.6779 6.27286 15.6779H15.4007C15.7574 15.6779 16.0466 15.3887 16.0466 15.032V4.67001C16.0466 4.31329 15.7574 4.0241 15.4007 4.0241H6.27286C5.91613 4.0241 5.62695 4.31329 5.62695 4.67001V15.032ZM6.91876 14.386V5.31591H14.7548V14.386H6.91876Z" fill="white"/>
<path fill-rule="evenodd" clip-rule="evenodd" d="M19.4419 6.30167C19.4419 6.65839 19.7311 6.94757 20.0878 6.94757H26.1068C26.4636 6.94757 26.7527 6.65839 26.7527 6.30167C26.7527 5.94494 26.4636 5.65576 26.1068 5.65576H20.0878C19.7311 5.65576 19.4419 5.94494 19.4419 6.30167Z" fill="white"/>
<path fill-rule="evenodd" clip-rule="evenodd" d="M19.4419 9.90683C19.4419 10.2636 19.7311 10.5527 20.0878 10.5527H26.1068C26.4636 10.5527 26.7527 10.2636 26.7527 9.90683C26.7527 9.55011 26.4636 9.26092 26.1068 9.26092H20.0878C19.7311 9.26092 19.4419 9.55011 19.4419 9.90683Z" fill="white"/>
<path fill-rule="evenodd" clip-rule="evenodd" d="M19.4419 13.5121C19.4419 13.8688 19.7311 14.158 20.0878 14.158H26.1068C26.4636 14.158 26.7527 13.8688 26.7527 13.5121C26.7527 13.1553 26.4636 12.8661 26.1068 12.8661H20.0878C19.7311 12.8661 19.4419 13.1553 19.4419 13.5121Z" fill="white"/>
<path d="M26.1065 22.928H6.42773V18.8915H26.1065V22.928Z" fill="#08613E"/>
<path fill-rule="evenodd" clip-rule="evenodd" d="M5.78223 22.9279C5.78223 23.2847 6.07141 23.5739 6.42813 23.5739H26.1069C26.4637 23.5739 26.7528 23.2847 26.7528 22.9279V18.8915C26.7528 18.5348 26.4637 18.2456 26.1069 18.2456H6.42813C6.07141 18.2456 5.78223 18.5348 5.78223 18.8915V22.9279ZM7.07404 22.282V19.5374H25.461V22.282H7.07404Z" fill="white"/>
<path fill-rule="evenodd" clip-rule="evenodd" d="M6.07178 26.9724C6.07178 27.3291 6.36096 27.6183 6.71768 27.6183H18.0325C18.3892 27.6183 18.6784 27.3291 18.6784 26.9724C18.6784 26.6157 18.3892 26.3265 18.0325 26.3265H6.71768C6.36096 26.3265 6.07178 26.6157 6.07178 26.9724Z" fill="white"/>
<path fill-rule="evenodd" clip-rule="evenodd" d="M6.07178 30.411C6.07178 30.7678 6.36096 31.0569 6.71768 31.0569H12.0452C12.4019 31.0569 12.6911 30.7678 12.6911 30.411C12.6911 30.0543 12.4019 29.7651 12.0452 29.7651H6.71768C6.36096 29.7651 6.07178 30.0543 6.07178 30.411Z" fill="white"/>
<path d="M12.7847 9.05805C12.7847 10.1338 11.9127 11.0058 10.8369 11.0058C9.76123 11.0058 8.88916 10.1338 8.88916 9.05805C8.88916 7.98237 9.76123 7.1103 10.8369 7.1103C11.9127 7.1103 12.7847 7.98237 12.7847 9.05805Z" fill="#0DC47C"/>
<path d="M10.8369 11.0058C10.8369 11.0058 6.27295 10.837 6.27295 15.032H10.8369H15.4008C15.4008 10.8417 10.8369 11.0058 10.8369 11.0058Z" fill="#0DC47C"/>
<path fill-rule="evenodd" clip-rule="evenodd" d="M8.24316 9.05802C8.24316 10.4905 9.40444 11.6517 10.8368 11.6517C12.2693 11.6517 13.4306 10.4905 13.4306 9.05802C13.4306 7.6256 12.2693 6.46436 10.8368 6.46436C9.40442 6.46436 8.24316 7.62562 8.24316 9.05802ZM10.8368 10.3599C10.1178 10.3599 9.53497 9.77703 9.53497 9.05802C9.53497 8.33907 10.1179 7.75617 10.8368 7.75617C11.5559 7.75617 12.1387 8.33908 12.1387 9.05802C12.1387 9.77702 11.5559 10.3599 10.8368 10.3599Z" fill="white"/>
<path fill-rule="evenodd" clip-rule="evenodd" d="M5.62695 15.032C5.62695 15.3887 5.91613 15.6779 6.27286 15.6779H15.4007C15.7574 15.6779 16.0466 15.3887 16.0466 15.032C16.0466 13.8596 15.7246 12.9454 15.2054 12.249C14.6914 11.5596 14.0159 11.1258 13.3705 10.8527C12.7265 10.5802 12.0919 10.4587 11.625 10.4041C11.3899 10.3766 11.1927 10.3655 11.0521 10.3613C10.9816 10.3592 10.9251 10.3588 10.8846 10.3591C10.8649 10.3592 10.849 10.3594 10.8372 10.3597C10.8253 10.3594 10.8094 10.3591 10.7897 10.359C10.7492 10.3588 10.6927 10.3591 10.6222 10.3611C10.4816 10.3651 10.2844 10.376 10.0492 10.4034C9.58227 10.4576 8.94757 10.5786 8.30342 10.8508C7.65787 11.1236 6.98215 11.5574 6.46809 12.2471C5.94885 12.9438 5.62695 13.8586 5.62695 15.032ZM10.8145 11.6513C10.8147 11.6513 10.8147 11.6513 10.8145 11.6513ZM10.8141 11.6513L10.8144 11.6513C10.8138 11.6513 10.8121 11.6512 10.8094 11.6512C10.8041 11.651 10.7947 11.6509 10.7815 11.6508C10.7551 11.6506 10.7136 11.6508 10.6592 11.6524C10.5503 11.6555 10.3909 11.6641 10.1983 11.6865C9.8094 11.7317 9.30311 11.8307 8.80627 12.0407C8.31083 12.2501 7.84555 12.5606 7.50387 13.0191C7.2522 13.3568 7.04971 13.7983 6.9636 14.386H14.7099C14.6237 13.7995 14.4213 13.3586 14.1698 13.0212C13.8281 12.5628 13.3627 12.2521 12.8671 12.0424C12.3701 11.8321 11.8637 11.7327 11.4748 11.6871C11.2821 11.6646 11.1228 11.6558 11.0138 11.6525C10.9594 11.6509 10.918 11.6507 10.8915 11.6509C10.8783 11.6509 10.8689 11.6511 10.8636 11.6512C10.8609 11.6513 10.8592 11.6513 10.8586 11.6513L10.8595 11.6513C10.8598 11.6513 10.86 11.6513 10.8368 11.0058M10.8141 11.6513L10.8139 11.6513L10.8136 11.6513C10.8138 11.6513 10.8139 11.6513 10.8141 11.6513Z" fill="white"/>
</g>
</g>
<defs>
<clipPath id="clip0_210_1988">
<rect width="42" height="42" fill="white"/>
</clipPath>
</defs>
</svg>
