<svg width="49" height="47" viewBox="0 0 49 47" fill="none" xmlns="http://www.w3.org/2000/svg">
<path d="M44.7881 19.0988C44.0709 18.6818 43.4264 18.1508 42.8801 17.5265C42.9353 16.6573 43.1424 15.8045 43.4918 15.0067C44.1344 13.1937 44.8609 11.14 43.6949 9.54333C42.5289 7.9467 40.3272 7.99749 38.3949 8.04166C37.5411 8.12951 36.6786 8.07126 35.8443 7.86941C35.3998 7.1462 35.0824 6.35225 34.9058 5.52195C34.3581 3.65591 33.7332 1.54695 31.8141 0.915368C29.9635 0.319118 28.2499 1.63087 26.7349 2.78362C26.0813 3.38057 25.3238 3.85284 24.5001 4.17708C23.6678 3.85548 22.9019 3.38309 22.241 2.78362C20.7305 1.63749 19.0234 0.312493 17.164 0.917576C15.2494 1.54033 14.6244 3.65591 14.0724 5.52195C13.896 6.34956 13.5817 7.14161 13.1427 7.86499C12.3068 8.0663 11.4432 8.12602 10.5876 8.04166C8.6487 7.98866 6.46466 7.93124 5.28761 9.54333C4.11057 11.1554 4.84595 13.1937 5.49078 15.0045C5.84509 15.8011 6.0552 16.6542 6.11132 17.5242C5.56604 18.1494 4.9223 18.6812 4.20553 19.0988C2.58903 20.2029 0.753906 21.4595 0.753906 23.5C0.753906 25.5405 2.58903 26.7926 4.20553 27.9012C4.92213 28.3181 5.56587 28.8492 6.11132 29.4735C6.0611 30.3432 5.85697 31.1971 5.50845 31.9955C4.86803 33.8063 4.1437 35.86 5.30749 37.4567C6.47128 39.0533 8.66636 39.0025 10.6075 38.9583C11.462 38.8704 12.3253 38.9286 13.1603 39.1306C13.6028 39.8545 13.9194 40.6483 14.0967 41.478C14.6443 43.3441 15.2693 45.453 17.1883 46.0846C17.496 46.1833 17.817 46.2339 18.1401 46.2348C19.693 46.0119 21.1363 45.3057 22.2653 44.2164C22.919 43.6194 23.6764 43.1471 24.5001 42.8229C25.3324 43.1445 26.0983 43.6169 26.7592 44.2164C28.2719 45.3713 29.9856 46.6897 31.8384 46.0824C33.753 45.4597 34.378 43.3441 34.9301 41.4802C35.107 40.6511 35.4237 39.858 35.8664 39.135C36.699 38.9323 37.56 38.8726 38.4126 38.9583C40.3515 39.0047 42.5356 39.0687 43.7126 37.4567C44.8897 35.8446 44.1543 33.8063 43.5094 31.9932C43.1576 31.1974 42.9476 30.3461 42.8889 29.4779C43.4345 28.8523 44.0791 28.3204 44.7969 27.9034C46.4134 26.7992 48.2485 25.5405 48.2485 23.5C48.2485 21.4595 46.4068 20.2052 44.7881 19.0988Z" fill="#49ADF4"/>
<path d="M22.2919 29.5729C22.0743 29.5733 21.8589 29.5306 21.658 29.4472C21.4571 29.3638 21.2747 29.2414 21.1214 29.0871L16.7048 24.6704C16.4122 24.3564 16.2529 23.9412 16.2605 23.5121C16.2681 23.083 16.4419 22.6736 16.7454 22.3702C17.0488 22.0667 17.4582 21.8929 17.8873 21.8853C18.3164 21.8777 18.7316 22.037 19.0456 22.3296L22.4464 25.7304L30.1314 19.9667C30.4829 19.7031 30.9246 19.5899 31.3594 19.6521C31.7943 19.7142 32.1866 19.9465 32.4502 20.2979C32.7138 20.6493 32.8269 21.091 32.7648 21.5259C32.7027 21.9607 32.4704 22.3531 32.1189 22.6167L23.2856 29.2417C22.9988 29.4565 22.6502 29.5728 22.2919 29.5729Z" fill="white"/>
</svg>
