<svg width="76" height="22" viewBox="0 0 76 22" fill="none" xmlns="http://www.w3.org/2000/svg">
<g clip-path="url(#clip0_251_181)">
<path d="M74.2916 13.1363C74.2486 13.3482 74.1732 13.5282 74.0708 13.687C73.9686 13.8457 73.8337 13.973 73.6617 14.0734C73.4944 14.1689 73.2846 14.2216 73.0367 14.2216C72.7943 14.2216 72.5841 14.1741 72.4173 14.0734C72.2507 13.9776 72.1087 13.8454 72.0024 13.687C71.9 13.5283 71.8246 13.3482 71.7762 13.1363C71.7287 12.926 71.7052 12.7112 71.7061 12.4958C71.7061 12.2734 71.7279 12.051 71.7709 11.8448C71.8139 11.6329 71.8893 11.4476 71.9918 11.2888C72.094 11.1245 72.2288 10.9976 72.4009 10.8918C72.5681 10.7911 72.7781 10.7382 73.0259 10.7382C73.2682 10.7382 73.473 10.7911 73.6399 10.8918C73.8072 10.9935 73.949 11.131 74.0548 11.294C74.1626 11.4581 74.238 11.6486 74.2863 11.8552C74.3347 12.0669 74.3564 12.2787 74.3564 12.4958C74.3564 12.7129 74.3347 12.9246 74.2916 13.1363ZM75.7247 11.4264C75.6222 11.0717 75.4715 10.7647 75.2668 10.4947C75.0565 10.2301 74.7981 10.0128 74.4856 9.85415C74.1731 9.69533 73.7962 9.61061 73.3599 9.61061C73.0151 9.61061 72.7025 9.67949 72.4172 9.81187C72.1315 9.94425 71.8945 10.1612 71.7113 10.4524H71.6899V9.75883H70.2462V17.1017H71.7653V14.5233H71.7867C71.9658 14.7823 72.211 14.9905 72.4979 15.1269C72.7889 15.2645 73.1013 15.3334 73.4459 15.3334C73.85 15.3334 74.2055 15.2541 74.5125 15.1005C74.8089 14.9513 75.0682 14.7398 75.2721 14.481C75.4769 14.2216 75.6275 13.925 75.7247 13.5863C75.8271 13.2475 75.8755 12.8983 75.8755 12.5328C75.8755 12.1464 75.8271 11.7759 75.7247 11.421V11.4264ZM68.2317 13.1363C68.1887 13.3482 68.1133 13.5282 68.0108 13.687C67.9083 13.8458 67.7738 13.973 67.6014 14.0734C67.4345 14.1689 67.2244 14.2216 66.9767 14.2216C66.7341 14.2216 66.5296 14.1741 66.3571 14.0734C66.1905 13.9775 66.0486 13.8453 65.9422 13.687C65.84 13.5283 65.7646 13.3482 65.7163 13.1363C65.6687 12.926 65.6451 12.7112 65.6462 12.4958C65.6462 12.2734 65.6676 12.051 65.7106 11.8448C65.754 11.6329 65.8291 11.4476 65.9315 11.2888C66.034 11.1245 66.1686 10.9976 66.341 10.8918C66.5079 10.7911 66.718 10.7382 66.9656 10.7382C67.2083 10.7382 67.4127 10.7911 67.58 10.8918C67.7472 10.9935 67.8889 11.131 67.9945 11.294C68.1023 11.4581 68.1777 11.6486 68.2264 11.8552C68.2747 12.0669 68.2962 12.2787 68.2962 12.4958C68.2962 12.7129 68.2747 12.9246 68.2317 13.1363ZM69.2065 10.4947C69.0019 10.2301 68.738 10.0128 68.4255 9.85415C68.1131 9.69533 67.7361 9.61061 67.2996 9.61061C66.9548 9.61061 66.6426 9.67949 66.3569 9.81187C66.0716 9.94425 65.8346 10.1612 65.6514 10.4524H65.6296V9.75883H64.186V17.1017H65.705V14.5233H65.7268C65.9058 14.7823 66.1511 14.9905 66.4379 15.1269C66.7286 15.2645 67.041 15.3334 67.3857 15.3334C67.7951 15.3334 68.1452 15.2541 68.4526 15.1005C68.7488 14.9512 69.008 14.7397 69.2118 14.481C69.4168 14.2216 69.5676 13.925 69.67 13.5863C69.7694 13.2437 69.8202 12.8891 69.8208 12.5328C69.8208 12.1464 69.7722 11.7759 69.67 11.421C69.5676 11.0665 69.4168 10.7593 69.2065 10.4895V10.4947ZM59.2086 12.2947L60.2052 9.53635H60.2267L61.191 12.2947H59.2086ZM59.3702 7.68349L56.4776 15.1956H58.1691L58.7671 13.5228H61.6274L62.2037 15.1956H63.949L61.0887 7.68349H59.3649H59.3702ZM56.3537 12.8134C56.2512 12.644 56.122 12.4958 55.9551 12.3794C55.7935 12.263 55.6048 12.1727 55.3947 12.0988C55.1819 12.03 54.9662 11.97 54.7483 11.9189C54.5329 11.8711 54.3228 11.8234 54.118 11.7811C53.9132 11.7388 53.7247 11.691 53.5686 11.6381C53.4071 11.5852 53.2777 11.5165 53.1807 11.4316C53.0783 11.3469 53.0299 11.2411 53.0299 11.1035C53.0299 10.9924 53.0568 10.9023 53.116 10.8334C53.1753 10.7647 53.2454 10.717 53.3261 10.68C53.407 10.6429 53.4985 10.6217 53.601 10.6112C53.6939 10.6011 53.7874 10.5958 53.881 10.5954C54.1504 10.5954 54.3874 10.6483 54.5868 10.7488C54.7862 10.8494 54.8993 11.0453 54.9154 11.3311H56.359C56.332 10.9922 56.2406 10.717 56.0951 10.4945C55.9496 10.2721 55.7666 10.0975 55.5457 9.96517C55.3248 9.83279 55.0717 9.73761 54.7915 9.67934C54.5114 9.62107 54.2205 9.59462 53.9188 9.59462C53.6174 9.59462 53.3264 9.62122 53.0409 9.67396C52.7554 9.72685 52.4969 9.81695 52.2707 9.94933C52.0392 10.0817 51.8558 10.2565 51.7213 10.4787C51.5811 10.701 51.5112 10.9924 51.5112 11.3416C51.5112 11.5799 51.5595 11.781 51.662 11.945C51.759 12.1094 51.8935 12.2468 52.0551 12.358C52.2222 12.4639 52.4054 12.554 52.6155 12.6228C52.8256 12.6915 53.041 12.7499 53.2619 12.7974C53.806 12.9086 54.2262 13.0197 54.5332 13.1309C54.8348 13.2421 54.9858 13.4115 54.9858 13.6338C54.9858 13.7662 54.9534 13.8774 54.8888 13.9673C54.8255 14.0552 54.7426 14.1277 54.6463 14.179C54.5493 14.2319 54.4415 14.2691 54.3231 14.2954C54.2118 14.3203 54.0979 14.3327 53.9838 14.3325C53.8329 14.3325 53.6875 14.3168 53.5528 14.2796C53.4127 14.2425 53.2888 14.1893 53.1812 14.1154C53.0734 14.0413 52.9872 13.946 52.9173 13.8296C52.8472 13.7132 52.8148 13.5754 52.8148 13.4166H51.3712C51.3873 13.7818 51.4683 14.0836 51.6244 14.3271C51.7753 14.5708 51.9746 14.7613 52.2116 14.9095C52.4486 15.0577 52.7233 15.1635 53.0304 15.227C53.3375 15.2907 53.6498 15.3225 53.973 15.3225C54.2855 15.3225 54.5978 15.2907 54.8996 15.2322C55.2012 15.1741 55.4706 15.0682 55.7076 14.92C55.9446 14.7718 56.1331 14.5759 56.2786 14.3376C56.4239 14.0942 56.4993 13.7977 56.4993 13.4377C56.4993 13.1837 56.451 12.9719 56.3485 12.8024L56.3537 12.8134ZM50.0672 8.12829H48.5482V9.75883H47.6269V10.7593H48.5482V13.9676C48.5482 14.243 48.5965 14.4601 48.6882 14.6294C48.7799 14.7989 48.9091 14.9258 49.0707 15.0213C49.2323 15.1112 49.4157 15.1747 49.6256 15.2065C49.8467 15.2389 50.07 15.2548 50.2936 15.2541C50.4444 15.2541 50.5952 15.2488 50.7568 15.2436C50.8995 15.2389 51.0416 15.2247 51.1824 15.2012V14.0417C51.108 14.0582 51.0324 14.0688 50.9563 14.0734C50.8738 14.0797 50.7912 14.0833 50.7085 14.084C50.4499 14.084 50.2828 14.0417 50.1968 13.9569C50.1106 13.8723 50.0674 13.7027 50.0674 13.4541V10.7593H51.1824V9.75883H50.0674V8.12829H50.0672ZM45.7092 13.094C45.7092 13.1786 45.6986 13.2899 45.6823 13.4329C45.6642 13.5791 45.6146 13.7199 45.5368 13.8458C45.4561 13.9836 45.3375 14.1 45.1706 14.2007C45.0092 14.3011 44.772 14.3489 44.4758 14.3489C44.3573 14.3489 44.2387 14.3382 44.1203 14.3171C44.0071 14.2957 43.9048 14.2587 43.8186 14.2059C43.7324 14.1529 43.6678 14.0842 43.6139 13.9888C43.5655 13.8989 43.5384 13.7877 43.5384 13.65C43.5384 13.507 43.5655 13.3958 43.6139 13.3006C43.6623 13.2104 43.7323 13.1363 43.8133 13.0729C43.894 13.0147 43.991 12.9672 44.1041 12.9301C44.2172 12.893 44.325 12.8665 44.4435 12.8452C44.5651 12.8247 44.6872 12.807 44.8097 12.7923C44.9336 12.7765 45.0469 12.7605 45.16 12.7395C45.2731 12.7184 45.3754 12.6918 45.4724 12.6601C45.5694 12.6284 45.6501 12.586 45.7149 12.5277V13.0837L45.7092 13.094ZM47.2283 13.9887V11.1563C47.2283 10.8282 47.1529 10.5634 47.0022 10.3623C46.8514 10.161 46.6573 10.0076 46.4257 9.89644C46.1887 9.78528 45.9301 9.71117 45.6446 9.66888C45.3644 9.63124 45.0819 9.61177 44.7991 9.61061C44.4918 9.61061 44.1849 9.64244 43.8832 9.70071C43.5818 9.75898 43.3069 9.85938 43.0644 10.0025C42.8257 10.1421 42.6215 10.332 42.4665 10.5585C42.3104 10.7914 42.2187 11.0825 42.1973 11.4319H43.7163C43.7432 11.1357 43.8455 10.9292 44.0178 10.802C44.1903 10.6749 44.4219 10.6115 44.7236 10.6115C44.8583 10.6115 44.9874 10.622 45.1061 10.638C45.2165 10.6522 45.3228 10.6883 45.4186 10.7439C45.5102 10.7968 45.5802 10.8709 45.6341 10.9662C45.688 11.0616 45.7149 11.1884 45.7149 11.3526C45.7202 11.5061 45.6772 11.6227 45.5747 11.7073C45.4724 11.7867 45.3377 11.8503 45.1654 11.8926C44.9932 11.9349 44.7992 11.9667 44.5783 11.9879C44.3574 12.0091 44.1312 12.0356 43.905 12.0726C43.6788 12.1097 43.4524 12.1572 43.2262 12.2155C43 12.2737 42.8005 12.3637 42.6281 12.4856C42.4504 12.6072 42.3104 12.766 42.1973 12.9619C42.0842 13.1632 42.0302 13.4173 42.0302 13.7244C42.0302 14.005 42.0785 14.2485 42.1757 14.4496C42.2666 14.6457 42.4031 14.818 42.5743 14.9527C42.7522 15.0886 42.9552 15.1893 43.1722 15.2491C43.3984 15.3126 43.6462 15.3443 43.9102 15.3443C44.255 15.3443 44.589 15.2968 44.9175 15.1961C45.2424 15.0986 45.5371 14.922 45.774 14.6827C45.7793 14.7727 45.7956 14.8624 45.8117 14.9527C45.8278 15.0373 45.8547 15.1274 45.8818 15.2121H47.4224C47.3523 15.1009 47.2985 14.9313 47.2716 14.709C47.2431 14.4754 47.2287 14.2403 47.2284 14.005V13.9887H47.2283ZM40.969 10.2299C40.8182 10.0394 40.6135 9.88583 40.355 9.7799C40.0964 9.66873 39.7626 9.61569 39.353 9.61569C39.0675 9.61569 38.7767 9.6898 38.475 9.83279C38.1734 9.97578 37.9309 10.2087 37.7371 10.521H37.7047V7.68872H36.1857V15.201H37.7047V12.3475C37.7047 11.7916 37.7964 11.3946 37.9849 11.1511C38.1681 10.9075 38.4697 10.7911 38.8845 10.7911C39.2454 10.7911 39.504 10.9023 39.644 11.1245C39.7841 11.3468 39.8595 11.6804 39.8595 12.1303V15.201H41.3786V11.8552C41.3786 11.5164 41.3462 11.2095 41.2869 10.9341C41.2276 10.6587 41.1199 10.4206 40.969 10.2299ZM32.9373 12.8665H32.9157L31.6122 7.68887H30.0392L28.714 12.803H28.6924L27.4803 7.68887H25.7998L27.8251 15.2012H29.5274L30.7986 10.0869H30.8202L32.113 15.2012H33.7829L34.6985 11.8658L35.8406 7.68887H34.1921L32.9373 12.8665Z" fill="#272525"/>
<path d="M11.5515 19.7221C9.693 19.7221 7.95852 19.1715 6.50955 18.2345L2.98648 19.3408L4.12851 15.995C3.02966 14.5125 2.38339 12.6861 2.38339 10.7167C2.38339 5.75086 6.49344 1.71151 11.5462 1.71151C16.599 1.71151 20.709 5.75086 20.709 10.7167C20.709 15.6824 16.599 19.7219 11.5462 19.7219H11.5515V19.7221ZM11.5515 0.00671387C5.5343 0.00671387 0.654087 4.80344 0.654087 10.7169C0.654087 12.7392 1.2251 14.6345 2.21616 16.2492L0.25 21.9933L6.28334 20.0928C7.89596 20.9692 9.70879 21.4282 11.5515 21.4269C17.5686 21.4269 22.449 16.6305 22.449 10.7169C22.4488 4.80344 17.5686 0.00671387 11.5515 0.00671387Z" fill="#FEFEFE"/>
<path d="M11.5515 1.71165C6.49872 1.71165 2.38867 5.751 2.38867 10.7169C2.38867 12.6863 3.03509 14.5127 4.13394 15.9951L2.99191 19.3409L6.51483 18.2347C7.9638 19.177 9.69295 19.7222 11.5568 19.7222C16.6096 19.7222 20.7196 15.6827 20.7196 10.717C20.7196 5.75115 16.6096 1.7118 11.5568 1.7118H11.5515V1.71165Z" fill="#00E676"/>
<path d="M8.9924 6.28591C8.81468 5.8677 8.67998 5.85187 8.41074 5.84111C8.3085 5.83464 8.20609 5.83115 8.10365 5.83065C7.75338 5.83065 7.38714 5.9312 7.16625 6.15353C6.89701 6.42352 6.229 7.05344 6.229 8.34526C6.229 9.63707 7.18784 10.8865 7.31706 11.0613C7.45176 11.2358 9.18638 13.9252 11.8797 15.0213C13.9859 15.8789 14.6109 15.7994 15.0902 15.6989C15.7904 15.5507 16.6685 15.0422 16.8894 14.4283C17.1103 13.814 17.1103 13.2899 17.0456 13.1787C16.981 13.0676 16.8031 13.0042 16.5338 12.8717C16.2646 12.7393 14.9555 12.104 14.7077 12.0193C14.4652 11.9294 14.2337 11.9612 14.0506 12.2153C13.792 12.57 13.5389 12.9301 13.3341 13.1471C13.1725 13.3165 12.9085 13.3377 12.6877 13.2476C12.3914 13.126 11.562 12.8399 10.5384 11.9452C9.74645 11.2518 9.20782 10.3889 9.05169 10.1295C8.8954 9.86493 9.03557 9.71118 9.15932 9.56834C9.29402 9.40414 9.42324 9.28775 9.55794 9.13415C9.69263 8.98071 9.76804 8.90122 9.85424 8.72118C9.94591 8.54651 9.88114 8.36647 9.81653 8.23409C9.75192 8.10171 9.21329 6.8099 8.9924 6.28591Z" fill="#FEFEFE"/>
</g>
<defs>
<clipPath id="clip0_251_181">
<rect width="75.625" height="22" fill="white" transform="translate(0.25)"/>
</clipPath>
</defs>
</svg>
