<svg width="201" height="68" viewBox="0 0 201 68" fill="none" xmlns="http://www.w3.org/2000/svg">
<mask id="mask0_132_3" style="mask-type:alpha" maskUnits="userSpaceOnUse" x="80" y="39" width="79" height="18">
<rect x="80.1959" y="39.1283" width="78.1959" height="16.9991" fill="#D9D9D9"/>
</mask>
<g mask="url(#mask0_132_3)">
<path d="M83.5957 53.3803V41.8754H85.7313L89.7802 49.5344L93.8121 41.8754H95.9476V53.3803H94.1367V44.8831L90.4807 51.7368H89.0798L85.4067 44.8996V53.3803H83.5957Z" fill="#08613E"/>
<path d="M97.4379 53.3803V41.8754H105.04V43.2889H99.2488V46.8718H104.528V48.2524H99.2488V51.9669H105.04V53.3803H97.4379Z" fill="#08613E"/>
<path d="M106.258 53.3803V41.8754H110.136C111.537 41.8754 112.688 42.111 113.587 42.5822C114.499 43.0533 115.171 43.7217 115.603 44.5873C116.048 45.4419 116.27 46.461 116.27 47.6443C116.27 48.8167 116.048 49.8357 115.603 50.7013C115.171 51.556 114.499 52.2189 113.587 52.69C112.688 53.1502 111.537 53.3803 110.136 53.3803H106.258ZM108.069 51.9011H110.068C111.15 51.9011 112.004 51.7313 112.631 51.3916C113.269 51.052 113.724 50.5644 113.997 49.9289C114.282 49.2934 114.425 48.5318 114.425 47.6443C114.425 46.7568 114.282 45.9898 113.997 45.3433C113.724 44.6969 113.269 44.2038 112.631 43.8641C112.004 43.5135 111.15 43.3382 110.068 43.3382H108.069V51.9011Z" fill="#08613E"/>
<path d="M117.331 53.3803V41.8754H119.142V53.3803H117.331Z" fill="#08613E"/>
<path d="M125.959 53.5776C124.775 53.5776 123.75 53.331 122.884 52.838C122.03 52.3339 121.369 51.6382 120.902 50.7506C120.435 49.8522 120.202 48.8167 120.202 47.6443C120.202 46.461 120.435 45.4255 120.902 44.538C121.369 43.6395 122.03 42.9383 122.884 42.4342C123.75 41.9302 124.775 41.6782 125.959 41.6782C127.36 41.6782 128.505 42.0069 129.393 42.6643C130.282 43.3218 130.845 44.2421 131.085 45.4255H129.069C128.909 44.7571 128.567 44.2257 128.044 43.8313C127.52 43.4368 126.819 43.2396 125.942 43.2396C124.746 43.2396 123.801 43.634 123.106 44.4229C122.411 45.2009 122.064 46.2747 122.064 47.6443C122.064 49.003 122.411 50.0713 123.106 50.8493C123.801 51.6272 124.746 52.0162 125.942 52.0162C126.819 52.0162 127.52 51.8299 128.044 51.4574C128.567 51.0848 128.909 50.5753 129.069 49.9289H131.085C130.845 51.0684 130.282 51.9614 129.393 52.6079C128.505 53.2543 127.36 53.5776 125.959 53.5776Z" fill="#08613E"/>
<path d="M132.135 53.3803V41.8754H133.946V53.3803H132.135Z" fill="#08613E"/>
<path d="M135.434 53.3803V41.8754H137.244L143.241 50.537V41.8754H145.052V53.3803H143.241L137.244 44.7188V53.3803H135.434Z" fill="#08613E"/>
<path d="M146.54 53.3803V41.8754H154.142V43.2889H148.351V46.8718H153.63V48.2524H148.351V51.9669H154.142V53.3803H146.54Z" fill="#08613E"/>
</g>
<mask id="mask1_132_3" style="mask-type:alpha" maskUnits="userSpaceOnUse" x="80" y="11" width="121" height="28">
<rect x="80" y="11" width="120.695" height="27.7006" fill="#D9D9D9"/>
</mask>
<g mask="url(#mask1_132_3)">
<path d="M93.3159 36.0624C91.0415 36.0624 89.0543 35.5489 87.3543 34.5217C85.6543 33.4946 84.3334 32.0566 83.3915 30.2077C82.4496 28.3588 81.9786 26.2018 81.9786 23.7366C81.9786 21.2943 82.461 19.1373 83.4259 17.2656C84.3908 15.3939 85.7577 13.9331 87.5266 12.8831C89.3185 11.8103 91.4321 11.2739 93.8672 11.2739C96.624 11.2739 98.9213 11.9358 100.759 13.2597C102.597 14.5836 103.792 16.4097 104.343 18.7379H100.208C99.8403 17.4596 99.1166 16.4553 98.0369 15.7249C96.9571 14.9945 95.5672 14.6293 93.8672 14.6293C91.3402 14.6293 89.353 15.4396 87.9057 17.0602C86.4584 18.6808 85.7347 20.9177 85.7347 23.7709C85.7347 26.6241 86.4469 28.8496 87.8712 30.4474C89.2956 32.0451 91.1909 32.844 93.5571 32.844C95.9463 32.844 97.7382 32.1707 98.9328 30.824C100.15 29.4773 100.863 27.6855 101.069 25.4486H94.522V22.641H104.757V35.6516H101.414L101.104 32.125C100.3 33.3804 99.2889 34.3505 98.0713 35.0353C96.8537 35.7201 95.2686 36.0624 93.3159 36.0624Z" fill="#009245"/>
<path d="M114.462 36.0624C112.785 36.0624 111.292 35.6972 109.982 34.9668C108.696 34.2136 107.685 33.175 106.95 31.8511C106.215 30.5272 105.847 28.9865 105.847 27.229C105.847 25.4486 106.203 23.885 106.915 22.5383C107.651 21.1916 108.661 20.1416 109.948 19.3884C111.257 18.6351 112.774 18.2585 114.497 18.2585C116.174 18.2585 117.632 18.6351 118.873 19.3884C120.113 20.1188 121.078 21.1003 121.768 22.3329C122.457 23.5655 122.801 24.9236 122.801 26.4072C122.801 26.6355 122.79 26.8866 122.767 27.1605C122.767 27.4116 122.755 27.6969 122.732 28.0164H109.431C109.546 29.6599 110.086 30.9153 111.051 31.7827C112.038 32.6272 113.176 33.0495 114.462 33.0495C115.496 33.0495 116.357 32.8212 117.047 32.3647C117.759 31.8854 118.287 31.2463 118.632 30.4474H122.284C121.825 32.0451 120.906 33.3804 119.528 34.4532C118.172 35.526 116.484 36.0624 114.462 36.0624ZM114.462 21.2373C113.244 21.2373 112.165 21.6025 111.223 22.3329C110.281 23.0405 109.707 24.1133 109.5 25.5513H119.149C119.08 24.2274 118.609 23.1774 117.736 22.4014C116.863 21.6253 115.772 21.2373 114.462 21.2373Z" fill="#009245"/>
<path d="M124.007 35.6516V18.6694H127.246L127.522 21.6481C128.05 20.5981 128.82 19.7764 129.831 19.183C130.864 18.5667 132.047 18.2585 133.38 18.2585C135.448 18.2585 137.067 18.8976 138.239 20.1759C139.433 21.4541 140.031 23.36 140.031 25.8937V35.6516H136.412V26.2703C136.412 22.9834 135.057 21.34 132.346 21.34C130.991 21.34 129.865 21.8193 128.969 22.778C128.096 23.7366 127.66 25.1062 127.66 26.8866V35.6516H124.007Z" fill="#009245"/>
<path d="M149.743 36.0624C148.066 36.0624 146.573 35.6972 145.263 34.9668C143.977 34.2136 142.966 33.175 142.231 31.8511C141.496 30.5272 141.128 28.9865 141.128 27.229C141.128 25.4486 141.484 23.885 142.196 22.5383C142.931 21.1916 143.942 20.1416 145.229 19.3884C146.538 18.6351 148.054 18.2585 149.777 18.2585C151.454 18.2585 152.913 18.6351 154.154 19.3884C155.394 20.1188 156.359 21.1003 157.048 22.3329C157.738 23.5655 158.082 24.9236 158.082 26.4072C158.082 26.6355 158.071 26.8866 158.048 27.1605C158.048 27.4116 158.036 27.6969 158.013 28.0164H144.712C144.827 29.6599 145.367 30.9153 146.331 31.7827C147.319 32.6272 148.456 33.0495 149.743 33.0495C150.777 33.0495 151.638 32.8212 152.327 32.3647C153.04 31.8854 153.568 31.2463 153.913 30.4474H157.565C157.106 32.0451 156.187 33.3804 154.809 34.4532C153.453 35.526 151.765 36.0624 149.743 36.0624ZM149.743 21.2373C148.525 21.2373 147.446 21.6025 146.504 22.3329C145.562 23.0405 144.987 24.1133 144.781 25.5513H154.429C154.361 24.2274 153.89 23.1774 153.017 22.4014C152.144 21.6253 151.052 21.2373 149.743 21.2373Z" fill="#009245"/>
<path d="M159.288 35.6516V18.6694H162.561L162.872 21.8878C163.469 20.7693 164.296 19.8905 165.353 19.2514C166.432 18.5895 167.73 18.2585 169.247 18.2585V22.059H168.247C167.236 22.059 166.329 22.2302 165.525 22.5725C164.744 22.8921 164.112 23.4513 163.63 24.2502C163.17 25.0263 162.94 26.1105 162.94 27.5029V35.6516H159.288Z" fill="#009245"/>
<path d="M171.862 15.451C171.172 15.451 170.598 15.2455 170.139 14.8347C169.702 14.401 169.484 13.8646 169.484 13.2255C169.484 12.5864 169.702 12.0614 170.139 11.6505C170.598 11.2168 171.172 11 171.862 11C172.551 11 173.114 11.2168 173.55 11.6505C174.01 12.0614 174.239 12.5864 174.239 13.2255C174.239 13.8646 174.01 14.401 173.55 14.8347C173.114 15.2455 172.551 15.451 171.862 15.451ZM170.035 35.6516V18.6694H173.688V35.6516H170.035Z" fill="#009245"/>
<path d="M184.023 36.0624C182.346 36.0624 180.842 35.6858 179.509 34.9326C178.2 34.1793 177.166 33.1408 176.408 31.8169C175.673 30.4702 175.305 28.918 175.305 27.1605C175.305 25.4029 175.673 23.8622 176.408 22.5383C177.166 21.1916 178.2 20.1416 179.509 19.3884C180.842 18.6351 182.346 18.2585 184.023 18.2585C186.137 18.2585 187.906 18.8063 189.33 19.902C190.778 20.9976 191.708 22.4812 192.121 24.3529H188.296C188.067 23.4171 187.561 22.6867 186.78 22.1617C185.999 21.6367 185.08 21.3742 184.023 21.3742C183.127 21.3742 182.3 21.6025 181.542 22.059C180.784 22.4927 180.175 23.1432 179.716 24.0106C179.256 24.8551 179.027 25.9051 179.027 27.1605C179.027 28.4159 179.256 29.4773 179.716 30.3446C180.175 31.1892 180.784 31.8397 181.542 32.2962C182.3 32.7527 183.127 32.981 184.023 32.981C185.08 32.981 185.999 32.7185 186.78 32.1935C187.561 31.6685 188.067 30.9267 188.296 29.968H192.121C191.731 31.7941 190.812 33.2663 189.365 34.3848C187.917 35.5032 186.137 36.0624 184.023 36.0624Z" fill="#009245"/>
</g>
<path d="M40.5662 0H27.4289C18.1278 0 9.90921 4.63136 4.94739 11.7101H41.572V26.6866H56.2898V4.95225C51.8357 1.83434 46.4189 0 40.5662 0ZM63.0477 56.2947C58.0906 63.3734 49.8672 68 40.5662 68H27.4289C21.581 68 16.1594 66.1704 11.7052 63.0525V41.3182H26.4231V56.2947H63.0477Z" fill="#009245"/>
<path d="M56.2899 4.95206V41.318H41.5721V56.2945H63.0478C66.1704 51.8404 68 46.4187 68 40.5709V27.4335C68 18.1325 63.3686 9.91388 56.2899 4.95206ZM26.4232 11.7099V26.6864H11.7053V63.0523C4.62657 58.0905 0 49.8719 0 40.5709V27.4335C0 21.5857 1.82955 16.1641 4.94746 11.7099H26.4232Z" fill="#08613E"/>
<path d="M56.2898 26.6866V41.3182H41.572V56.2947H26.4231V41.3182H11.7053V26.6866H26.4231V11.7101H41.572V26.6866H56.2898Z" fill="white"/>
</svg>
