<svg width="42" height="42" viewBox="0 0 42 42" fill="none" xmlns="http://www.w3.org/2000/svg">
<path d="M25.0555 0H16.9413C11.1965 0 6.12032 2.86054 3.05566 7.23271H25.6767V16.4829H34.7672V3.05874C32.0161 1.13298 28.6704 0 25.0555 0ZM38.9411 34.7702C35.8794 39.1424 30.8003 42 25.0555 42H16.9413C13.3294 42 9.98072 40.87 7.22963 38.9442V25.5201H16.3201V34.7702H38.9411Z" fill="#009245"/>
<path d="M34.7673 3.05862V25.52H25.6769V34.7701H38.9413C40.87 32.019 42 28.6704 42 25.0585V16.9442C42 11.1995 39.1395 6.12328 34.7673 3.05862ZM16.3202 7.23259V16.4828H7.22975V38.9441C2.85759 35.8794 0 30.8032 0 25.0585V16.9442C0 13.3323 1.13002 9.98368 3.05578 7.23259H16.3202Z" fill="#08613E"/>
<path d="M34.7675 16.4829V25.5201H25.6771V34.7702H16.3204V25.5201H7.22998V16.4829H16.3204V7.2327H25.6771V16.4829H34.7675Z" fill="white"/>
</svg>
